<svg class="icon" style="width: 1em; height: 1em;vertical-align: middle;fill: currentColor;overflow: hidden;" viewBox="0 0 1024 1024" version="1.1" xmlns="http://www.w3.org/2000/svg"><path d="M402.30838013 544.54442215c-68.34096908 9.33923721-117.41638185 61.92941665-109.74569321 117.34685898S361.88470077 754.65022278 430.22566986 745.28781129s117.46273042-61.96804047 109.75341797-117.41638184S470.61845017 535.09703828 402.30838013 544.54442215z m-19.96850967 156.54230118C358.27723693 704.39292146 336.64790343 691.29172516 333.93651199 671.78670121s14.56890107-37.92858125 38.56201172-41.26567842 45.66879273 9.83362197 48.40335846 29.30002213-14.56117629 37.96720505-38.56201171 41.26567841z m61.26508711-62.6941681c-10.04219055 2.54144668-19.96078492-2.03161241-22.00784683-10.21986006s4.38766479-16.85543061 14.47620393-19.38142778 19.95306015 2.0702362 22.00012207 10.21986008-4.43401337 16.87860489-14.46847916 19.38915253zM757.02944946 452.5965805a28.14130783 28.14130783 0 0 0 36.76986695-14.84699248 98.28987122 98.28987122 0 0 0 7.8792572-38.73968126c0-54.84580994-44.88086701-99.47948457-100.06656648-99.47948455A100.08974075 100.08974075 0 0 0 662.69465637 307.29380799a27.86321639 27.86321639 0 0 0-14.93196487 36.59992218 28.18765641 28.18765641 0 0 0 36.8393898 14.87789153 43.96162033 43.96162033 0 0 1 60.9251976 40.20738602 43.258667 43.258667 0 0 1-3.39889526 16.99447632 27.80914307 27.80914307 0 0 0 14.93968963 36.59992218z m-65.42873382 41.1884308l5.49230575-15.63491822c49.19128418-93.86358262-77.62613296-124.46908951-150.37794112-84.57069397s-37.61186601-27.64692307-37.61186601-27.64692306c12.02745438-123.37989807-118.47467423-68.79673005-118.47467422-68.79673004C87.57067871 466.09946442 118.36157989 633.54140473 118.36157989 633.54140473c0 92.15641022 145.31049728 195.1043129 328.57275009 195.10431289 242.79699325 0 381.22472763-141.12367629 357.16981889-246.00276947-9.74092483-42.33942032-60.30721665-78.66125107-112.50343323-88.83476257zM410.80561828 780.65949631c-158.96787644 0-212.73994446-82.20691681-212.73994445-141.62578584 0-94.13394928 125.45013427-163.67225647 243.54629516-163.67225646s202.25744247 49.90196228 221.52299881 115.33069611c28.53527069 96.80671692-95.92609406 190.02914429-252.32934952 190.02914429z m290.82183839-585.04257202a206.02712631 206.02712631 0 0 0-51.26924515 6.46562576 27.95591355 27.95591355 0 1 0 14.05134201 54.11195754 147.76697159 147.76697159 0 0 1 37.24880218-4.69665526c81.7434311 0 148.31542969 66.17031098 148.31542969 147.48115539a146.70095444 146.70095444 0 0 1-8.96844864 50.63581467 28.07178498 28.07178498 0 0 0 52.76784897 19.15740967 202.31924057 202.31924057 0 0 0 12.35961914-69.82412338c0-112.09402085-91.77017212-203.34663391-204.53624725-203.34663392z m0 0" fill="#707070" /></svg>