<svg class="icon" style="width: 1em; height: 1em;vertical-align: middle;fill: currentColor;overflow: hidden;" viewBox="0 0 1024 1024" version="1.1" xmlns="http://www.w3.org/2000/svg"><path d="M924.28613281 548.68554688a36.13183594 36.13183594 0 0 0 0-72.26367188H824.01171876v-64.66992188h100.27441405a36.13183594 36.13183594 0 0 0 0-72.25488281H787.9765625a36.03515625 36.03515625 0 0 0-35.88574219 36.13183594v273.81445313A36.08789063 36.08789063 0 0 0 787.9765625 685.58398439h136.30957031a36.13183594 36.13183594 0 0 0 0-72.26367189H824.01171876v-64.63476563z m-256.51757812-209.17968751a36.09667969 36.09667969 0 0 0-35.97363282 36.14062501v169.35644531L492.11035156 353.96386719a35.92089844 35.92089844 0 0 0-64.72265625 21.67382812v273.80566406a35.96484375 35.96484375 0 1 0 71.92089845 0V480.05175781l139.64941405 191.08300782a35.94726563 35.94726563 0 0 0 64.81933594-21.69140626V375.63769531a36.08789063 36.08789063 0 0 0-36.03515625-36.14941406z m-328.06054688 1e-8a36.03515625 36.03515625 0 0 0-35.96484375 36.140625v273.79687499a35.96484375 35.96484375 0 1 0 71.92089844 1e-8V375.63769531A36.08789063 36.08789063 0 0 0 339.73437501 339.48828125z m-104.94140625 273.82324218H134.39550781V375.63769531a35.95605469 35.95605469 0 1 0-71.91210937 0v273.80566406a36.08789063 36.08789063 0 0 0 35.96484375 36.14941407h136.31835937a36.13183594 36.13183594 0 1 0 0-72.26367188z m0 0" fill="#8A8A8A" /></svg>