<svg class="icon" style="width: 1em; height: 1em;vertical-align: middle;fill: currentColor;overflow: hidden;" viewBox="0 0 1024 1024" version="1.1" xmlns="http://www.w3.org/2000/svg"><path d="M32 575.4340625l65.1984375-8.40281248c1.19156251 20.66812499 9.3759375 40.1671875 23.0090625 54.58874999 14.6071875 11.1609375 32.045625 17.0746875 49.8515625 16.80375 18.028125 2.2565625 36.1059375-3.83718749 49.85812499-16.80375 9.5090625-8.0859375 15.151875-20.4234375 15.33937501-33.58781251-0.0778125-7.61812499-2.7740625-14.998125-7.6696875-21.00093748-3.8334375-4.19625001-15.33937499-8.401875-26.84249999-16.79437502a233.915625 233.915625 0 0 1-49.85906251-12.579375c-27.80437501-5.7271875-53.9775-17.1778125-76.7034375-33.56343751-19.0903125-17.8996875-30.26624999-43.9059375-30.67875-71.42812499-0.3215625-17.904375 5.0259375-35.4815625 15.339375-50.41125 10.31343751-16.895625 25.02281251-30.0496875 42.19124999-37.79531249 18.9084375-9.9065625 39.885-15.6421875 61.4025-16.79437501 42.189375 0 72.8671875 8.401875 92.0025 29.3934375 19.6903125 21.37687501 31.87874999 49.60124999 34.52250002 79.794375l-65.19843752 4.19625c-1.5665625-16.066875-8.3746875-30.984375-19.17468749-41.9925-11.998125-8.97281249-26.998125-13.445625-42.18937499-12.57937499-16.37437499-0.819375-32.565 3.60656247-46.02468751 12.57937499-4.2815625 7.8103125-6.8775 16.36874998-7.6321875 25.160625-0.1696875 8.8340625 4.3040625 16.9940625 11.503125 20.99156251 3.8334375 8.401875 26.8425 16.794375 57.5278125 25.16062499a388.7353125 388.7353125 0 0 1 72.860625 25.160625c15.001875 8.0859375 27.19031251 21.350625 34.5225 37.7934375 9.1771875 16.9209375 14.4103125 35.548125 15.3365625 54.6 0.92437501 20.6025-4.4034375 41.02125001-15.3365625 58.7840625-12.2653125 16.801875-27.915 31.081875-46.02468749 42.001875-19.175625 12.579375-42.1921875 12.579375-72.87093751 12.57937501-34.5196875 1.1334375-68.3671875-10.7278125-95.87625001-33.61593751C46.4946875 644.103125 32.6196875 610.6859375 32 575.4340625z m322.123125 117.5615625v-361.13437499h99.7125l61.2975 247.76906249 57.59625-247.76906249h99.748125v361.13437499h-61.335V411.655625l-65.23874999 285.555h-65.21812501l-65.263125-285.555v285.555h-61.299375v-4.215zM722.290625 575.4340625l65.1984375-8.40281248c1.0790625 19.5253125 9.3759375 37.7409375 23.008125 50.39156248 14.6175 11.1525 32.045625 17.0296875 49.861875 16.7953125 18.028125 2.2659375 36.0965625-3.8278125 49.84875-16.7953125 9.5090625-8.0859375 15.151875-20.4234375 15.33937501-33.59718749-0.0778125-7.61437499-2.7740625-14.9934375-7.66968751-20.99062501-6.0975-7.3434375-14.0025-13.1184375-23.00625001-16.8046875-7.66968751-4.19625001-26.8453125-8.3925-53.69437499-16.79437501-27.80437501-5.73656251-53.97562499-17.2021875-76.69406252-33.5971875-19.0903125-17.8921875-30.2559375-43.8796875-30.68906249-71.38499998-0.3196875-17.896875 5.02781249-35.4675 15.33937501-50.39156251 10.31343751-16.9021875 25.02281251-30.0590625 42.19125001-37.7953125 20.4421875-8.9109375 42.7415625-13.2140625 65.18812499-12.579375 42.19124999 0 72.8709375 8.4 92.0428125 29.4 19.68843751 21.369375 31.8778125 49.5946875 34.5225 79.785l-69.03375 8.40281251c-1.5665625-16.066875-8.371875-30.984375-19.17281251-41.98968751-11.998125-8.9746875-27-13.449375-42.19218749-12.58125-16.37437499-0.8165625-32.565 3.60656247-46.02468751 12.58125-4.295625 7.8065625-6.9046875 16.3640625-7.66968749 25.15875-0.1696875 8.8340625 4.3040625 16.9940625 11.503125 20.9915625 3.83625001 8.401875 26.8425 16.794375 57.5315625 25.160625a388.7784375 388.7784375 0 0 1 72.85781249 25.16062501c15.00281249 8.0859375 27.19031251 21.350625 34.52250001 37.7953125 9.1865625 16.9359375 14.4196875 35.581875 15.339375 54.65062499 0.94218749 20.63624999-4.38374999 41.090625-15.3290625 58.88437501-12.2709375 16.79718749-27.9225 31.07156249-46.035 41.98218749-19.1728125 12.5821875-42.19124999 12.5821875-72.8671875 12.5821875-34.606875 1.79624999-68.6596875-10.093125-95.8696875-33.5990625-23.87812501-23.70468749-37.7559375-57.1603125-38.3559375-92.43843751l0.0084375 0.01968751z m0 0" fill="#8A8A8A" /></svg>