<svg class="icon" style="width: 1em; height: 1em;vertical-align: middle;fill: currentColor;overflow: hidden;" viewBox="0 0 1024 1024" version="1.1" xmlns="http://www.w3.org/2000/svg"><path d="M615.82080078 287.05493164c-69.21386719 0-124.83215333 55.61828614-124.83215332 124.83215333v189.10217284c0 34.60693359-28.42712403 63.03405762-63.03405762 63.03405762S363.68457031 635.59619141 363.68457031 599.7532959s28.42712403-63.03405762 63.03405762-63.03405762c17.3034668 0 30.89904786-13.59558106 30.89904785-30.89904785S444.02209472 474.92114258 426.71862792 474.92114258c-65.50598145 2.47192383-117.41638184 54.38232422-119.88830565 119.88830567-2.47192383 69.21386719 50.67443848 127.30407715 119.88830566 129.77600097 69.21386719 0 124.83215333-55.61828614 124.83215332-124.83215333V410.65112305c0-34.60693359 28.42712403-63.03405762 63.03405762-63.03405763s63.03405762 28.42712403 63.03405761 63.03405763-28.42712403 63.03405762-61.7980957 63.03405762h-1.23596192c-17.3034668 0-30.89904786 13.59558106-30.89904784 30.89904785s13.59558106 30.89904786 30.89904785 30.89904784c69.21386719 0 124.83215333-55.61828614 124.83215332-124.83215331s-54.38232422-123.59619141-123.59619141-123.59619141z" fill="#707070" /><path d="M512 116.4921875C293.23474121 116.4921875 116.4921875 293.23474121 116.4921875 512s176.74255372 395.5078125 395.5078125 395.5078125 395.5078125-176.74255372 395.5078125-395.5078125S730.76525879 116.4921875 512 116.4921875z m-1.23596192 740.34118653c-191.57409668 0-346.06933594-155.73120117-344.83337402-346.06933594 0-138.42773438 82.80944825-264.49584961 211.34948731-317.64221192C420.53881836 174.58239746 466.26940917 165.93066406 512 165.93066406c191.57409668 0 346.06933594 155.73120117 344.83337403 346.06933594 0 190.33813477-154.49523926 344.83337403-346.06933595 344.83337403z" fill="#707070" /></svg>