<svg class="icon" style="width: 1em; height: 1em;vertical-align: middle;fill: currentColor;overflow: hidden;" viewBox="0 0 1024 1024" version="1.1" xmlns="http://www.w3.org/2000/svg"><path d="M312.47794146 487.68014715v125.94209574c0 8.4375 4.46691138 16.25459573 11.78768354 20.34926422l37.47242642 21.71415427 121.84742643-69.85753638-171.10753639-98.14797785zM612.13327215 512L512 454.55055142 411.86672785 512 512 569.44944858zM390.15257358 671.94025711l110.05974289 63.52941221c7.32077215 4.21875001 16.25459573 4.21875001 23.57536706 0l175.94669147-101.6222429c7.32077215-4.21875001 11.78768354-12.03584573 11.78768354-20.34926504v-44.54503638l-70.85018354-40.69852927-250.51930142 143.68566138zM633.84742642 352.05974289l-110.05974289-63.52941221c-3.59834573-2.109375-7.69301504-3.10202217-11.78768353-3.10202215-4.09466932 0-8.18933862 0.99264715-11.78768353 3.10202215l-175.94669147 101.6222429c-7.32077215 4.21875001-11.78768354 12.03584573-11.78768354 20.34926504v44.54503638l70.85018354 40.69852927 250.51930142-143.68566138z" fill="#707070" /><path d="M512 90.125C278.97610284 90.125 90.125 278.97610284 90.125 512s188.85110284 421.875 421.875 421.875 421.875-188.85110284 421.875-421.875S745.02389716 90.125 512 90.125z m227.8125 523.49724289c0 18.48805142-9.92647073 35.61121362-25.93290427 44.91727926L537.93290427 760.16176505c-7.94117642 4.59099289-16.99908068 6.94852927-25.93290427 6.94852928s-17.86764715-2.35753638-25.93290427-6.94852928l-175.94669146-101.74632358a51.90303323 51.90303323 0 0 1-25.93290427-44.91728009V410.37775711c0-18.48805142 9.92647073-35.61121362 25.93290427-44.91727926L486.06709573 263.83823495c16.00643354-9.18198496 35.859375-9.18198496 51.86580854 0l175.94669146 101.62224288c16.00643354 9.18198496 25.93290427 26.42922785 25.93290427 44.91727928v203.24448578z" fill="#707070" /><path d="M699.734375 390.02849289l-37.47242642-21.59007357-121.84742643 69.85753636 171.10753638 98.14797786V410.37775711c0-8.31341932-4.59099289-16.13051504-11.78768353-20.34926422z" fill="#707070" /></svg>