<svg class="icon" style="width: 1em; height: 1em;vertical-align: middle;fill: currentColor;overflow: hidden;" viewBox="0 0 1024 1024" version="1.1" xmlns="http://www.w3.org/2000/svg"><path d="M512 363.86891104c-159.98157617 0-266.63595985 148.13108896-266.63595985 148.13108896s106.65438368 148.13108896 266.63595985 148.13108896 266.63595985-148.13108896 266.63595985-148.13108896-106.65438368-148.13108896-266.63595985-148.13108896z m0 237.00974245a88.8786535 88.8786535 0 1 1 0-177.75730699 88.8786535 88.8786535 0 0 1 0 177.75730699z" fill="#707070" /><path d="M452.74756455 512c0 15.52413799 6.39926291 30.92977163 17.36096338 41.89147209 10.96170044 10.96170044 26.3673341 17.36096337 41.89147207 17.36096336 15.52413799 0 30.92977163-6.39926291 41.89147209-17.36096336 10.96170044-10.96170044 17.36096337-26.3673341 17.36096336-41.89147209 0-15.52413799-6.39926291-30.92977163-17.36096336-41.89147209C542.92977163 459.14682746 527.52413799 452.74756455 512 452.74756455c-15.52413799 0-30.92977163 6.39926291-41.89147209 17.36096338-10.96170044 10.96170044-17.36096337 26.3673341-17.36096336 41.89147207z" fill="#707070" /><path d="M334.24269365 245.36404015H245.36404015v88.8786535H186.11160469V186.11160469h148.13108896v59.25243546zM689.75730635 245.36404015h88.8786535v88.8786535h59.25243546V186.11160469h-148.13108896v59.25243546zM334.24269365 778.63595985H245.36404015v-88.8786535H186.11160469v148.13108896h148.13108896v-59.25243546zM689.75730635 778.63595985h88.8786535v-88.8786535h59.25243546v148.13108896h-148.13108896v-59.25243546z" fill="#707070" /></svg>