<svg class="icon" style="width: 1em; height: 1em;vertical-align: middle;fill: currentColor;overflow: hidden;" viewBox="0 0 1024 1024" version="1.1" xmlns="http://www.w3.org/2000/svg"><path d="M421.00998796 438.39807421c0.06390929-55.21752592 36.55604776-80.52555963 95.54421575-80.39773964h303.95203041v162.1375728H516.55420371c-48.57097177 1.02254711-95.73594217-26.52230728-95.60812507-81.73983316zM664.95130467 779.86479021l155.29929229-2.93982135v210.26118106c11.05628763 24.66894086 35.78913779 71.57827412-30.6124943 42.18005476-66.3377228-29.39821935-81.86765174-48.57097177-102.38249631-84.5518374-20.45093526-35.91695636-43.90560259-131.90853423-22.30430168-165.01348636z"  /><path d="M820.95359767 848.82278939c-106.0253198-0.25563714-236.2083062 7.86082766-318.07595797-2.42854851-81.86765174-10.22546834-371.18448178-79.43910323-370.80102605-404.86461745 0.38345571-325.4255128 288.2303736-395.59778551 370.80102605-403.90597821 82.57065246-8.30819269 212.05063816 0 318.07595797 0v173.19386189c-106.0253198 0-276.08763105-3.19545849-318.07595797 3.70673134-41.92441764 6.96610056-199.26880416 53.36415952-197.92671061 227.00538498 1.40600138 173.64122544 151.59256093 228.85875136 197.92671061 233.01284912 46.33415111 4.15409633 212.05063816 1.15036569 318.07595797 1.15036426v173.12995259z"  /></svg>