<svg class="icon" style="width: 1em; height: 1em;vertical-align: middle;fill: currentColor;overflow: hidden;" viewBox="0 0 1024 1024" version="1.1" xmlns="http://www.w3.org/2000/svg"><path d="M901.12 1003.52H122.88a40.96 40.96 0 0 1-40.96-40.96V61.44a40.96 40.96 0 0 1 40.96-40.96h654.72512L942.08 184.95488V962.56a40.96 40.96 0 0 1-40.96 40.96z m0-737.28h-163.84a40.96 40.96 0 0 1-40.96-40.96V61.44H122.88v901.12h778.24V266.24z m-122.88 184.32H225.28v-40.96h552.96v40.96z m0 184.32H225.28v-40.96h552.96v40.96z m0 184.32H225.28v-40.96h552.96v40.96zM225.28 225.28h348.16v40.96H225.28v-40.96z" fill="#929292" /></svg>