<svg class="icon" style="width: 1em; height: 1em;vertical-align: middle;fill: currentColor;overflow: hidden;" viewBox="0 0 1024 1024" version="1.1" xmlns="http://www.w3.org/2000/svg"><path d="M601.4 759.6c45-4.5 88.4-15.6 126.4-41.6 67.3-46.1 67.7-138-0.3-182.7-30.1-19.8-62.5-37-95.8-51-43-18.1-88.1-31.3-132-47.4-17.2-6.4-35.2-12.9-49.8-23.4-9.2-6.6-18.1-21.2-17.5-31.6 0.6-9.1 13.3-21 23.3-24.9 15.5-6.1 33.3-8.6 50.2-9 79.3-1.7 153.2 23.1 226.6 49.3 7.8 2.8 15.8 5 25.9 8.2 2.1-29.4 4-55.9 5.3-83 0.2-3.7-6.1-9.6-10.7-11.3-94.6-36.1-192.6-55.4-294-51.9-55.7 1.9-110.5 11-158.5 42.4-66.1 43.2-68.7 132.9-3.9 178 25.8 18 53.9 33.7 83 45.6 44.4 18.1 91 31 135.9 48.1 23.8 9 47.6 19.9 68.6 34.1 19.8 13.2 18.3 38.2-0.5 51.9-7.2 5.3-16.2 9.4-24.9 11.1-52.3 10.2-104.4 5.4-154.2-11-51.1-16.8-100.4-39-152.3-59.5-1.6 25.7-3 51.7-5.2 80.6-1 13.6 4.3 19.3 16.5 24.6 108.1 47.1 220.6 66.1 337.9 54.4z" fill="#fe670f" /><path d="M759.6 879.9l47.2 47.2c23.3-15.8 45.7-34 66.4-54.7 23.6-23.6 43.7-49.1 60.9-75.9l-52.3-52.3c-15.9 28.2-34.2 55.2-57.9 78.9-21 21-44.1 38.1-68.2 53l-46.8-46.8c-145.7 90.2-338.1 69.8-461.3-53.4-143.5-143.5-148-381.2 0-529.2 148-148 385.7-143.5 529.2 0C896.7 366.6 916 555.2 835.5 697.8l51.5 51.5c110.6-172.1 90.4-400.6-60.9-551.9-174.9-174.9-457.4-170.4-627.8 0-174.9 174.9-174.9 452.9 0 627.8 154 154 388.1 172.2 561.3 54.7z" fill="#fe670f" /></svg>