<svg class="icon" style="width: 1em; height: 1em;vertical-align: middle;fill: currentColor;overflow: hidden;" viewBox="0 0 1024 1024" version="1.1" xmlns="http://www.w3.org/2000/svg"><path d="M511.808 692.224c-18.048 0-35.136 3.968-50.432 11.392-25.472 12.416-46.528 33.92-57.792 60.032-5.632 14.144-9.024 29.504-9.024 45.952 0 65.152 52.672 117.824 117.248 117.824 65.28 0 117.952-52.672 117.952-117.824 0-64.64-52.672-117.376-117.952-117.376z m0 178.496c-33.408 0-60.608-27.712-60.608-61.12 0-33.472 27.2-60.672 60.608-60.672s61.248 27.2 61.248 60.672c0 33.472-27.776 61.12-61.248 61.12zM286.784 661.632c3.968 3.392 8.512 5.632 12.992 5.632L438.08 523.328c-60.032 14.72-114.432 49.344-155.328 98.624-9.536 11.84-7.872 30.08 4.032 39.68zM622.912 534.656l-43.008 45.312c45.312 13.056 86.72 40.256 117.376 78.208 5.632 6.784 13.568 10.24 22.08 10.24 6.272 0 12.416-2.24 18.176-6.784 11.904-9.6 13.568-27.84 3.392-39.68-31.808-39.104-72.704-69.12-118.016-87.296zM511.808 391.168c17.024 0 33.408 1.216 49.856 3.456l47.68-49.856c-31.744-6.848-64.064-10.24-97.536-10.24-142.784 0-277.12 63.488-367.232 174.656-10.24 11.904-8.576 30.08 3.904 39.68 5.12 4.48 11.328 6.784 18.176 6.784 7.936 0 15.872-3.968 21.568-10.816 79.872-97.536 197.76-153.664 323.584-153.664zM751.616 400.32l-40.256 41.92c47.04 24.96 89.536 60.032 124.096 102.592 10.24 12.48 27.84 14.208 40.256 3.968 11.968-9.6 13.632-27.84 3.968-39.68-36.16-44.8-79.872-81.088-128.064-108.8zM705.152 244.928l42.56-44.672c-73.664-28.992-153.6-44.224-235.904-44.224-196.672 0-380.864 87.872-505.6 239.744-9.6 12.48-7.872 30.08 3.968 40.256 5.632 3.968 11.904 6.208 18.112 6.208 7.936 0 16.448-3.392 22.144-10.176C163.84 292.608 332.096 212.672 511.808 212.672c66.944 0 132.16 10.752 193.344 32.256zM1017.472 395.776c-40.192-49.92-87.296-92.416-139.456-126.976l-39.68 41.344C889.408 343.04 935.36 383.808 973.888 432c9.6 11.904 27.776 13.568 39.68 3.968 11.84-10.176 14.144-27.712 3.904-40.192zM937.408 104.512c-11.328-10.944-29.312-10.496-40.064 0.832L179.008 854.72c-10.816 11.328-10.496 29.248 0.896 40.064 5.44 5.312 12.48 7.872 19.584 7.872 7.488 0 14.848-2.88 20.416-8.704L938.24 144.576c10.88-11.328 10.496-29.248-0.832-40.064z" fill="" /></svg>