<svg class="icon" style="width: 1em; height: 1em;vertical-align: middle;fill: currentColor;overflow: hidden;" viewBox="0 0 1024 1024" version="1.1" xmlns="http://www.w3.org/2000/svg"><path d="M751.84838788 589.4377067c-12.95636133 11.89869927-18.24467239 29.35012554-15.60051726 46.801551l34.10960475 198.57607307c4.75948005 27.76363248-24.32623041 48.91687591-49.181291 35.69609865L542.9601078 776.37949559c-15.60051727-8.19688211-33.84518967-8.19688211-49.44570611 0l-178.21607657 94.13193383c-24.85506143 13.22077725-54.20518615-7.93246619-49.18129101-35.69609865l34.10960476-198.57607307c2.64415512-17.45142627-2.64415512-34.90285171-15.60051727-46.80155101l-144.37088692-140.93348481c-20.09558139-19.56675037-8.99012824-53.67635513 18.77350425-57.90700414l199.63373511-29.35012556c17.45142627-2.64415512 31.99428067-13.74960828 39.39791584-29.35012556l88.57920767-180.59581576c12.4275303-25.38389245 48.38804489-25.38389245 60.81557436 0l88.57920768 180.59581576c7.40363516 15.60051728 23.00415244 26.44155451 39.39791584 29.35012556l200.16256694 29.35012556c27.76363248 3.9662331 38.86908481 38.07583868 18.77350341 57.64258819L751.84838788 589.4377067z" fill="#8a8a8a" p-id="5980"></path></svg>