<svg class="icon" style="width: 1em; height: 1em;vertical-align: middle;fill: currentColor;overflow: hidden;" viewBox="0 0 1024 1024" version="1.1" xmlns="http://www.w3.org/2000/svg"><path d="M286.4 1024h-6.4c-6.4-1.6-11.2-4.8-14.4-11.2-9.6-16-1.6-48 14.4-100.8 6.4-24 19.2-60.8 17.6-73.6C120 764.8 6.4 609.6 6.4 440 6.4 196.8 233.6 0 513.6 0s507.2 196.8 507.2 440-227.2 438.4-507.2 438.4c-14.4 0-67.2 40-100.8 67.2-59.2 48-99.2 78.4-126.4 78.4zM513.6 32C251.2 32 38.4 214.4 38.4 440c0 158.4 108.8 304 276.8 369.6 27.2 11.2 14.4 51.2-3.2 112-6.4 20.8-16 54.4-17.6 68.8 20.8-6.4 70.4-44.8 100.8-68.8 59.2-46.4 96-73.6 120-73.6 262.4 0 475.2-182.4 475.2-408S776 32 513.6 32z" fill="" /><path d="M310.4 494.4c-44.8 0-80-36.8-80-80s36.8-80 80-80 80 36.8 80 80-35.2 80-80 80z m0-129.6c-27.2 0-48 22.4-48 48 0 27.2 22.4 48 48 48 27.2 0 48-22.4 48-48 1.6-25.6-20.8-48-48-48z" fill="" /><path d="M513.6 494.4c-44.8 0-80-36.8-80-80s36.8-80 80-80c44.8 0 80 36.8 80 80s-35.2 80-80 80z m0-129.6c-27.2 0-48 22.4-48 48 0 27.2 22.4 48 48 48 27.2 0 48-22.4 48-48s-20.8-48-48-48z" fill="" /><path d="M707.2 510.4c-44.8 0-80-36.8-80-80s36.8-80 80-80c44.8 0 80 36.8 80 80s-36.8 80-80 80z m0-129.6c-27.2 0-48 22.4-48 48 0 27.2 22.4 48 48 48 27.2 0 48-22.4 48-48s-22.4-48-48-48z" fill="" /></svg>