<svg class="icon" style="width: 1em; height: 1em;vertical-align: middle;fill: currentColor;overflow: hidden;" viewBox="0 0 1024 1024" version="1.1" xmlns="http://www.w3.org/2000/svg"><path d="M876.762131 340.943948A84.928895 84.928895 0 1 1 962.551169 256.015053a85.358967 85.358967 0 0 1-85.789038 84.928895z m0-127.997491a43.007157 43.007157 0 1 0 42.884279 43.007157 43.007157 43.007157 0 0 0-42.884279-42.945719z m-192.405829 0A84.928895 84.928895 0 1 1 770.042942 128.017561a85.358967 85.358967 0 0 1-85.68664 84.990334z m0-127.997492a43.007157 43.007157 0 1 0 42.884279 43.007157 43.007157 43.007157 0 0 0-42.884279-43.007157zM469.893945 171.086157a85.543283 85.543283 0 1 1 85.789039-85.543283 85.666161 85.666161 0 0 1-85.789039 85.543283z m0-127.997491a42.454208 42.454208 0 1 0 42.904759 42.454208A42.679483 42.679483 0 0 0 469.893945 43.027227zM191.08469 299.02221a149.50107 149.50107 0 1 1 150.115458-149.50107 149.828743 149.828743 0 0 1-150.115458 149.50107z m0-255.994983a106.493913 106.493913 0 1 0 107.231178 106.493913A106.842066 106.842066 0 0 0 191.08469 43.027227z m321.386341 212.987826c264.862649 0 321.529698 192.262472 321.529698 383.992473S813.050099 1024 576.77697 1024c-120.645315 0-150.033539-83.311007-150.033539-135.533984s21.44214-50.420772 21.44214-158.12298-192.897339-78.457342-192.897339-248.458491c0 0-7.65937-225.869493 257.182799-225.869492zM298.152031 500.500501c0 75.917872 207.171619 124.229245 207.17162 219.131705s-35.71642 122.672796-35.71642 168.751892 34.815318 90.355989 102.397993 90.355989c201.273495 0 219.131705-169.632515 219.131705-338.814479s-48.270414-338.732561-273.894152-338.732561-219.090746 199.307454-219.090746 199.307454z" fill="#929292" /></svg>