<svg class="icon" style="width: 1em; height: 1em;vertical-align: middle;fill: currentColor;overflow: hidden;" viewBox="0 0 1024 1024" version="1.1" xmlns="http://www.w3.org/2000/svg"><path d="M511.999488 76.893274c-239.943814 0-435.105702 195.162912-435.105702 435.106726 0 239.944837 195.161888 435.106726 435.105702 435.106726 239.943814 0 435.105702-195.161888 435.105702-435.106726C947.105191 272.056186 751.942279 76.893274 511.999488 76.893274L511.999488 76.893274zM666.725432 574.158688 481.255277 574.158688c-17.209964 0-31.246655-14.036691-31.246655-31.246655L450.008622 295.616788c0-17.209964 13.868869-31.078833 31.078833-31.078833s31.079856 13.868869 31.079856 31.078833L512.167311 512.167822l154.726967 0c17.209964 0 31.078833 13.868869 31.078833 31.079856C697.97311 560.456618 683.935396 574.158688 666.725432 574.158688L666.725432 574.158688z" /></svg>