<svg class="icon" style="width: 1em; height: 1em;vertical-align: middle;fill: currentColor;overflow: hidden;" viewBox="0 0 1024 1024" version="1.1" xmlns="http://www.w3.org/2000/svg"><path d="M418.384714 751.553049a37.544523 37.544523 0 0 0 59.45467 0l299.034969-368.949257a56.371835 56.371835 0 0 0 11.010124-48.114242 46.572825 46.572825 0 0 0-29.727335-35.232397 37.654624 37.654624 0 0 0-40.517257 12.881846l-269.748039 334.047163-141.259891-176.822592a37.654624 37.654624 0 0 0-40.517257-12.881845 46.572825 46.572825 0 0 0-29.727335 35.232397 56.371835 56.371835 0 0 0 11.010124 48.114242zM242.222729 133.00428a27.084905 27.084905 0 0 0 14.20306-4.183847A25.653589 25.653589 0 1 0 220.202481 121.113346a25.323285 25.323285 0 0 0 21.249539 11.010124zM168.014493 193.559963a25.543488 25.543488 0 1 0-18.056603-7.486885 25.543488 25.543488 0 0 0 18.056603 7.486885zM325.679469 88.082974a26.6445 26.6445 0 0 0 9.799011-1.871721 25.76369 25.76369 0 1 0-9.799011 1.871721zM93.255751 262.813643a24.88288 24.88288 0 0 0 14.20306 4.293948 25.323285 25.323285 0 0 0 14.20306-46.572825 25.499447 25.499447 0 1 0-28.516222 42.278877zM52.738494 349.243117a25.543488 25.543488 0 1 0-12.881845-33.030373 25.543488 25.543488 0 0 0 12.881845 33.030373zM416.843296 60.337462a39.746548 39.746548 0 0 0 4.844455 0 25.433387 25.433387 0 1 0-29.947537-19.928325 25.873792 25.873792 0 0 0 25.103082 20.36873zM29.727335 442.058462a25.873792 25.873792 0 0 0 29.947537-20.148527 25.433387 25.433387 0 1 0-29.947537 20.148527z" fill="#CF635C" /><path d="M873.983647 149.959871A508.55763 508.55763 0 0 0 511.970768 0.001982a25.543488 25.543488 0 0 0 0 50.976874A460.993894 460.993894 0 1 1 50.976874 511.97275a25.543488 25.543488 0 0 0-50.976874 0 511.970768 511.970768 0 1 0 873.983647-362.012879z" fill="#CF635C" /></svg>