<svg class="icon" style="width: 1em; height: 1em;vertical-align: middle;fill: currentColor;overflow: hidden;" viewBox="0 0 1024 1024" version="1.1" xmlns="http://www.w3.org/2000/svg"><path d="M264.43125 357.825h424.3875c14.15 0 28.2875-14.15 28.2875-28.3S702.94375 301.25 688.81875 301.25H264.39375c-14.15 0-28.25 14.15-28.25 28.2875s14.2 28.2875 28.2875 28.2875zM766.59375 474.55H264.39375c-14.15 0-28.3 14.15-28.3 28.3s14.15 28.2875 28.3 28.2875H766.59375c14.15 0 28.2875-14.15 28.2875-28.2875s-14.1125-28.3-28.2875-28.3z" fill="#666666" /><path d="M787.84375 0H243.16875C119.36875 0 20.34375 99.025 20.34375 219.2875V647.25c0 120.2625 99.025 219.2875 219.2875 219.2875h54.0875l41.4125 4.1375 141.125 144.6375v0.0625l0.3 0.3a27.5 27.5 0 0 0 43.4625-5.325l136.925-140.2625h123.75c123.75 0 222.825-99.05 222.825-219.2875V219.2875C1007.14375 99.025 908.10625 0 787.84375 0z m162.7125 647.25a166.0375 166.0375 0 0 1-166.25 166.25H646.31875c-7.075 0-14.15 3.5375-21.25 7.075l-129.3125 135.5-128.75-134.9c-7.075-3.5375-14.225-10.1125-21.25-10.1125a23.3375 23.3375 0 0 0-6.975-1.1125h-95.5a166.0625 166.0625 0 0 1-117.6-48.6375 166.0375 166.0375 0 0 1-48.75-117.5625V219.2875a166.0375 166.0375 0 0 1 48.625-117.6 166.05 166.05 0 0 1 117.6-48.6375h541.1625a166.0375 166.0375 0 0 1 117.6125 48.625 166.0125 166.0125 0 0 1 48.6375 117.6z" fill="#666666" /></svg>