<svg class="icon" style="width: 1em; height: 1em;vertical-align: middle;fill: currentColor;overflow: hidden;" viewBox="0 0 1024 1024" version="1.1" xmlns="http://www.w3.org/2000/svg"><path d="M787.84375 0H243.16875C119.36875 0 20.34375 99.025 20.34375 219.2875V647.25c0 120.2625 99.025 219.2875 219.2875 219.2875h54.0875l41.4125 4.1375 141.125 144.6375v0.0625l0.3 0.3a27.5 27.5 0 0 0 43.4625-5.325l136.925-140.2625h123.75c123.75 0 222.825-99.05 222.825-219.2875V219.2875C1007.14375 99.025 908.10625 0 787.84375 0zM264.39375 531.1375c-14.15 0-28.3-14.1375-28.3-28.2875s14.15-28.3 28.3-28.3H766.59375c14.1375 0 28.2875 14.1625 28.2875 28.3s-14.1 28.2875-28.2875 28.2875z m0-229.8875h424.425c14.125 0 28.2875 14.1375 28.2875 28.2875s-14.1375 28.2875-28.2875 28.2875H264.43125c-14.15 0-28.3-14.1625-28.3-28.3S250.24375 301.25 264.39375 301.25z" fill="#49B575" /></svg>