<svg class="icon" style="width: 1em; height: 1em;vertical-align: middle;fill: currentColor;overflow: hidden;" viewBox="0 0 1024 1024" version="1.1" xmlns="http://www.w3.org/2000/svg"><path d="M184.32 521.216V266.24c-3.584 0-7.168 0-10.752 0.512 57.856-125.44 186.88-212.992 336.896-212.992 150.016 0 279.04 87.552 336.896 212.992-3.584-0.512-7.168-0.512-10.752-0.512v255.488c72.192 0 130.56-57.344 130.56-127.488 0-47.616-27.136-89.6-66.56-111.616-56.32-158.208-209.408-271.36-389.632-271.36-180.736 0-333.824 113.664-389.632 271.36-39.936 22.016-66.56 63.488-66.56 111.616-1.024 70.144 57.344 126.976 129.536 126.976zM798.208 729.6c90.624 54.272 146.432 135.168 160.768 232.96H65.024c6.656-47.104 22.528-90.624 48.128-129.024 27.136-40.96 64-75.776 110.08-103.936 81.92 63.488 182.272 97.792 287.232 97.792 104.96 0.512 205.824-34.304 287.744-97.792m-6.144-61.952c-73.728 67.584-173.056 108.544-281.6 108.544-108.544 0-207.872-40.96-281.6-108.544C96.768 734.72 10.24 852.992 10.24 1013.76h1003.52c0-161.28-88.064-279.552-221.696-346.112zM510.464 189.952c127.488 0 231.424 100.864 231.424 225.28s-103.936 225.28-231.424 225.28c-127.488 0-231.424-100.864-231.424-225.28 0-123.904 103.936-225.28 231.424-225.28m0-51.2c-156.16 0-282.624 123.904-282.624 276.48s126.464 276.48 282.624 276.48c156.16 0 282.624-123.904 282.624-276.48-0.512-152.576-126.976-276.48-282.624-276.48z" /></svg>