<svg class="icon" style="width: 1em; height: 1em;vertical-align: middle;fill: currentColor;overflow: hidden;" viewBox="0 0 1024 1024" version="1.1" xmlns="http://www.w3.org/2000/svg"><path d="M586.601412 331.414588c-51.049412 2.469647-77.854118 47.314824-77.854118 83.757177 43.339294 0.512 77.854118-32.798118 77.854118-83.757177z m-128.873412 361.472c32.677647 0 29.906824-17.106824 60.958118-17.167059 31.051294 0.090353 28.280471 17.167059 60.988235 17.167059 29.696 0 64.481882-45.748706 83.094588-97.551059-32.045176-9.728-55.446588-38.189176-55.446588-72.161882 0-30.509176 18.823529-56.651294 45.839059-68.758588a89.088 89.088 0 0 0-69.12-32.707765c-41.170824 0-42.947765 15.028706-65.355294 17.889882-22.407529-2.861176-24.184471-17.889882-65.355294-17.889882-43.580235 0-92.069647 30.900706-92.069648 104.448 0 71.258353 53.549176 166.731294 96.466824 166.731294zM843.294118 90.352941H180.705882a30.117647 30.117647 0 0 0-30.117647 30.117647v813.176471a30.117647 30.117647 0 0 0 30.117647 30.117647h662.588236a30.117647 30.117647 0 0 0 30.117647-30.117647V120.470588a30.117647 30.117647 0 0 0-30.117647-30.117647zM542.117647 933.647059h-30.117647v-30.117647h30.117647v30.117647z m301.176471-60.235294H180.705882V180.705882h662.588236v692.705883z" /></svg>