<svg class="icon" style="width: 1.3916015625em; height: 1em;vertical-align: middle;fill: currentColor;overflow: hidden;" viewBox="0 0 1425 1024" version="1.1" xmlns="http://www.w3.org/2000/svg"><path d="M720.77420534 90.125c23.01042536 0 41.48067727 18.57343745 41.4806781 41.48067727V259.45284021c0 23.01042536-18.57343745 41.48067727-41.4806781 41.48067727-23.01042536 0-41.48067727-18.57343745-41.48067727-41.48067727V131.70886362c-0.20637186-23.01042536 18.47025192-41.58386362 41.48067727-41.58386362z" fill="#EAEAEA" /><path d="M939.63121288 152.86194473c19.81166693 11.45361951 26.72511301 36.94050385 15.2714935 56.75217078l-63.97517422 110.71832602c-11.45361951 19.81166693-36.94050385 26.72511301-56.75217077 15.2714935-19.81166693-11.45361951-26.72511301-36.94050385-15.27149351-56.75217077l63.97517422-110.61514051c11.55680586-19.91485244 36.94050385-26.82829853 56.75217078-15.37467902z" fill="#9B9B9B" /><path d="M1078.10650955 305.06094803c11.45361951 19.81166693 4.74654529 45.29855045-15.27149351 56.75217078l-110.61513967 63.97517421c-19.81166693 11.45361951-45.29855045 4.74654529-56.75217079-15.27149267-11.45361951-19.81166693-4.74654529-45.29855045 15.2714935-56.75217077l110.61513968-63.97517423c19.81166693-11.45361951 45.19536493-4.54017343 56.75217079 15.27149268z" fill="#9D9B9B" /><path d="M1141.97849826 503.8999176c0 23.01042536-18.57343745 41.48067727-41.48067729 41.48067728H972.75384357c-23.01042536 0-41.48067727-18.57343745-41.48067729-41.48067728 0-23.01042536 18.57343745-41.48067727 41.48067729-41.48067727h127.7439774c23.01042536-0.10318552 41.48067727 18.47025192 41.48067729 41.48067727z" fill="#A19F9F" /><path d="M1078.10650955 718.83586563c-11.45361951 19.81166693-36.94050385 26.72511301-56.75217079 15.2714935l-110.61513968-63.97517422c-19.81166693-11.45361951-26.72511301-36.94050385-15.2714935-56.75217078 11.45361951-19.81166693 36.94050385-26.72511301 56.75217079-15.2714935l110.61513967 63.97517422c19.91485244 11.45361951 26.72511301 36.94050385 15.27149351 56.75217078z" fill="#A9A9A9" /><path d="M939.63121288 887.23503455c-19.81166693 11.45361951-45.29855045 4.74654529-56.75217078-15.2714935l-63.97517422-110.61513969c-11.45361951-19.81166693-4.74654529-45.29855045 15.27149351-56.75217077 19.81166693-11.45361951 45.29855045-4.74654529 56.75217077 15.27149267l63.97517422 110.61514051c11.45361951 19.91485244 4.74654529 45.29855045-15.2714935 56.75217078z" fill="#B0B0B0" /><path d="M720.77420534 933.875c-23.01042536 0-41.48067727-18.57343745-41.48067727-41.48067727V764.54715979c0-23.01042536 18.57343745-41.48067727 41.48067727-41.48067727 23.01042536 0 41.48067727 18.57343745 41.4806781 41.48067727v127.84716293c0 22.80405432-18.57343745 41.48067727-41.4806781 41.48067728z" fill="#B8B8B8" /><path d="M501.71082678 887.23503455c-19.81166693-11.45361951-26.72511301-36.94050385-15.27149352-56.75217078l63.97517424-110.61514051c11.45361951-19.81166693 36.94050385-26.72511301 56.75217078-15.27149267 19.81166693 11.45361951 26.72511301 36.94050385 15.27149349 56.75217077l-63.97517422 110.61513969c-11.45361951 19.91485244-36.83731833 26.72511301-56.75217077 15.2714935z" fill="#C1C0C0" /><path d="M346.72580795 718.83586563c-11.45361951-19.81166693-4.74654529-45.29855045 15.27149267-56.75217078l110.61514051-63.97517422c19.81166693-11.45361951 45.29855045-4.74654529 56.75217077 15.2714935 11.45361951 19.81166693 4.74654529 45.29855045-15.2714935 56.75217078l-110.61513968 63.97517422c-19.81166693 11.45361951-45.29855045 4.64335977-56.75217077-15.2714935z" fill="#C9C8C8" /><path d="M299.3635414 503.8999176c0-23.01042536 18.57343745-41.48067727 41.48067729-41.48067727H468.5881961c23.01042536 0 41.48067727 18.57343745 41.48067727 41.48067727 0 23.01042536-18.57343745 41.48067727-41.48067727 41.48067728H340.84421869c-22.90723984 0-41.48067727-18.57343745-41.48067729-41.48067728z" fill="#D3D3D3" /><path d="M346.72580795 305.06094803c11.45361951-19.81166693 36.94050385-26.72511301 56.75217077-15.27149268l110.61513968 63.97517423c19.81166693 11.45361951 26.72511301 36.94050385 15.2714935 56.75217077-11.45361951 19.81166693-36.94050385 26.72511301-56.75217077 15.27149267l-110.61514051-63.97517421c-19.91485244-11.45361951-26.72511301-36.83731833-15.27149267-56.75217078z" fill="#DBDBDB" /><path d="M501.71082678 152.86194473c19.81166693-11.45361951 45.29855045-4.74654529 56.75217077 15.2714935l63.97517422 110.6151405c11.45361951 19.81166693 4.74654529 45.29855045-15.27149349 56.75216995-19.81166693 11.45361951-45.29855045 4.74654529-56.75217078-15.27149267l-63.97517424-110.6151405c-11.45361951-19.81166693-4.54017343-45.19536493 15.27149352-56.75217078z" fill="#E1E1E1" /></svg>