<svg class="icon" style="width: 1em; height: 1em;vertical-align: middle;fill: currentColor;overflow: hidden;" viewBox="0 0 1024 1024" version="1.1" xmlns="http://www.w3.org/2000/svg"><path d="M512 921.6a577.65888 577.65888 0 0 1-122.88-13.6192L225.28 1003.52v-159.17056C89.35424 763.35104 0 626.3808 0 471.04 0 222.208 229.23264 20.48 512 20.48s512 201.728 512 450.56-229.23264 450.56-512 450.56z m0-860.16C251.904 61.44 40.96 244.81792 40.96 471.04a358.4 358.4 0 0 0 2.1504 37.15072 364.6464 364.6464 0 0 0 7.18848 44.3392c0.38912 1.67936 0.94208 3.31776 1.35168 4.99712 2.4576 9.89184 5.38624 19.64032 8.64256 29.24544a361.22624 361.22624 0 0 0 16.46592 40.89856c1.8432 3.85024 3.95264 7.55712 5.91872 11.3664a479.21152 479.21152 0 0 0 19.12832 33.0752c3.76832 5.77536 7.80288 11.40736 11.8784 16.9984q8.47872 11.69408 17.83808 22.79424c2.43712 2.88768 4.87424 5.75488 7.39328 8.58112a439.62368 439.62368 0 0 0 55.296 52.26496l2.39616 1.86368a472.82176 472.82176 0 0 0 69.632 45.3632V942.08l116.24448-77.49632c16.384 4.096 33.28 7.31136 50.42176 9.8304 7.08608 1.06496 14.19264 2.048 21.36064 2.84672 5.50912 0.59392 10.99776 1.14688 16.54784 1.57696 13.59872 1.06496 27.27936 1.80224 41.18528 1.80224 260.096 0 471.04-183.37792 471.04-409.6S772.096 61.44 512 61.44z m266.24 491.52a81.92 81.92 0 1 1 81.92-81.92 81.92 81.92 0 0 1-81.92 81.92z m0-122.88a40.96 40.96 0 1 0 40.96 40.96 40.96 40.96 0 0 0-40.96-40.96z m-266.24 122.88a81.92 81.92 0 1 1 81.92-81.92 81.92 81.92 0 0 1-81.92 81.92z m0-122.88a40.96 40.96 0 1 0 40.96 40.96 40.96 40.96 0 0 0-40.96-40.96z m-266.24 122.88a81.92 81.92 0 1 1 81.92-81.92 81.92 81.92 0 0 1-81.92 81.92z m0-122.88a40.96 40.96 0 1 0 40.96 40.96 40.96 40.96 0 0 0-40.96-40.96z" fill="#929292" /></svg>