<svg class="icon" style="width: 1em; height: 1em;vertical-align: middle;fill: currentColor;overflow: hidden;" viewBox="0 0 1024 1024" version="1.1" xmlns="http://www.w3.org/2000/svg"><path d="M363.52 727.04L870.4 220.16c20.48-20.48 51.2-20.48 71.68 0l5.12 5.12c20.48 20.48 20.48 51.2 0 71.68L440.32 803.84c-20.48 20.48-51.2 20.48-71.68 0l-5.12-5.12c-15.36-25.6-15.36-56.32 0-71.68z" fill="#4CAF50" /><path d="M189.44 465.92L440.32 716.8c20.48 20.48 20.48 51.2 0 71.68l-5.12 5.12c-20.48 20.48-51.2 20.48-71.68 0L112.64 542.72c-20.48-20.48-20.48-51.2 0-71.68l5.12-5.12c20.48-15.36 51.2-15.36 71.68 0z" fill="#4CAF50" /></svg>