<svg class="icon" style="width: 1em; height: 1em;vertical-align: middle;fill: currentColor;overflow: hidden;" viewBox="0 0 1024 1024" version="1.1" xmlns="http://www.w3.org/2000/svg"><path d="M104.481139 1018.859538A100.214056 100.214056 0 0 1 4.466712 918.745297V104.805537A100.189102 100.189102 0 0 1 104.481139 4.79111h813.889852A100.126718 100.126718 0 0 1 1018.385418 104.805537v813.93976a100.126718 100.126718 0 0 1-100.014427 100.014426H104.481139z m0 0" fill="#343434" /><path d="M918.370991 8.83361a96.071742 96.071742 0 0 1 96.071742 96.071741v813.839946a96.071742 96.071742 0 0 1-96.071742 96.071742H104.481139a96.071742 96.071742 0 0 1-96.071742-96.071742V104.805537a96.19651 96.19651 0 0 1 96.071742-96.071742h813.889852m0-7.985184H104.481139A104.069402 104.069402 0 0 0 0.47412 104.805537v813.93976a103.994541 103.994541 0 0 0 104.007019 104.007018h813.889852a104.007018 104.007018 0 0 0 104.007019-104.007018V104.805537A103.932157 103.932157 0 0 0 918.370991 0.798518z m0 0" fill="#474747" /><path d="M840.51545 812.342723a28.696754 28.696754 0 0 1-28.696754 28.696755h-602.631836a28.796569 28.796569 0 0 1-28.696754-28.696755 28.696754 28.696754 0 0 1 28.696754-28.696754h602.631836a28.696754 28.696754 0 0 1 28.696754 28.696754zM510.527732 730.594405a28.821523 28.821523 0 0 1-28.696754-28.696754V209.760795a28.821523 28.821523 0 0 1 28.696754-28.696754 28.821523 28.821523 0 0 1 28.696754 28.696754v492.086948a28.946291 28.946291 0 0 1-28.696754 28.696755z m20.062774-8.733795a28.621893 28.621893 0 0 1-40.924067 0L273.767034 505.312409a28.621893 28.621893 0 0 1 0-40.924067 28.621893 28.621893 0 0 1 40.924066 0l216.697924 216.598109c10.680183 11.578516 10.680183 30.243883-0.798518 40.924067z m-40.924067 0a28.621893 28.621893 0 0 1 0-40.924066L706.364363 464.388342a28.937557 28.937557 0 0 1 40.924067 40.924067L530.590506 721.910518c-10.779998 11.478702-29.445365 11.478702-40.924067 0z m0 0" fill="#FFFFFF" /></svg>