<svg class="icon" style="width: 1em; height: 1em;vertical-align: middle;fill: currentColor;overflow: hidden;" viewBox="0 0 1024 1024" version="1.1" xmlns="http://www.w3.org/2000/svg"><path d="M512 0C229.234286 0 0 229.234286 0 512s229.234286 512 512 512 512-229.234286 512-512S794.765714 0 512 0z m0 950.857143C269.622857 950.857143 73.142857 754.377143 73.142857 512S269.622857 73.142857 512 73.142857s438.857143 196.48 438.857143 438.857143-196.48 438.857143-438.857143 438.857143z"  /><path d="M419.611429 723.062857a73.417143 73.417143 0 0 1-73.142858-73.257143V374.205714a73.142857 73.142857 0 0 1 109.714286-63.348571L694.857143 448.651429a73.142857 73.142857 0 0 1 0 126.685714L456.182857 713.142857a72.982857 72.982857 0 0 1-36.571428 9.92z m0-348.857143v275.588572L658.285714 512zM676.571429 543.668571z m-18.125715-31.565714z m0-0.217143z"  /></svg>