<svg class="icon" style="width: 1em; height: 1em;vertical-align: middle;fill: currentColor;overflow: hidden;" viewBox="0 0 1024 1024" version="1.1" xmlns="http://www.w3.org/2000/svg"><path d="M925.734 188.197c-10.387 1.007-20.938 3.265-31.652 6.782-10.723 3.517-22.445 8.29-35.169 14.32-16.077 7.709-29.139 16.416-39.189 26.124-10.048 9.717-20.938 23.111-32.658 40.194-17.413 25.457-38.842 57.863-64.293 97.213-25.451 39.36-59.606 91.692-102.461 157.002-43.866 67.323-83.219 128.034-118.043 182.122-34.822 54.096-69.143 107.602-102.961 160.523h-101.085c-26.124-148.372-48.231-272.809-66.318-373.289s-31.994-176.009-41.703-226.588c-4.021-18.090-9.129-31.401-15.325-39.941-6.201-8.54-15.159-16.658-26.88-24.366-9.382-6.030-18.257-10.464-26.627-13.315-8.375-2.843-19.091-5.103-32.153-6.782l8.54-36.676h378.354l-9.044 36.676c-27.468 3.015-47.903 6.114-61.292 9.296-13.398 3.186-23.282 6.454-29.643 9.797-6.030 3.015-9.38 6.532-10.048 10.55-0.677 4.021-1.007 7.537-1.007 10.55 0 7.372 0.668 14.91 2.009 22.607 1.333 7.709 3.015 18.251 5.024 31.628 6.378 39.486 15.927 92.853 28.678 160.105 12.742 67.252 28.167 153.41 46.277 258.468 44.134-69.585 84.929-134.403 122.384-194.457 37.445-60.054 73.223-117.685 107.345-172.885 14.374-23.418 26.839-45.342 37.405-65.776 10.564-20.428 15.845-34.331 15.845-41.698 0-10.048-8.636-18.416-25.898-25.12-17.262-6.695-42.139-11.053-74.626-13.063l9.044-36.676h296.204l-9.044 36.676z" /></svg>