<svg class="icon" style="width: 1em; height: 1em;vertical-align: middle;fill: currentColor;overflow: hidden;" viewBox="0 0 1024 1024" version="1.1" xmlns="http://www.w3.org/2000/svg"><path d="M873.198947 436.543448C841.810053 263.267009 690.220542 131.841747 507.893984 131.841747c-149.71379 0-278.710746 88.609107-337.451592 216.239949l39.192627 0c55.874565-106.47501 167.483502-179.108261 296.074206-179.108261 161.748894 0 296.613488 114.927519 327.494823 267.570012L730.686163 436.543448l124.500549 144.160307 115.765607-144.160307L873.198947 436.543448z" fill="#cccccc" /><path d="M154.614915 582.88749c31.389918 173.276439 182.978405 304.7017 365.305987 304.7017 149.712767 0 278.7087-88.609107 337.450569-216.238926l-39.192627 0c-55.874565 106.47501-167.483502 179.107237-296.073182 179.107237-161.750941 0-296.614511-114.926496-327.494823-267.570012l102.517885 0L172.627151 438.727183 56.861544 582.88749 154.614915 582.88749z" fill="#cccccc" /></svg>