<svg class="icon" style="width: 1em; height: 1em;vertical-align: middle;fill: currentColor;overflow: hidden;" viewBox="0 0 1024 1024" version="1.1" xmlns="http://www.w3.org/2000/svg"><path d="M512 512m-512 0a512 512 0 1 0 1024 0 512 512 0 1 0-1024 0Z" fill="#E4393C" /><path d="M665.6 716.8L307.2 358.4c-14.628571-14.628571-14.628571-36.571429 0-51.2 14.628571-14.628571 36.571429-14.628571 51.2 0l358.4 358.4c14.628571 14.628571 14.628571 36.571429 0 51.2-14.628571 14.628571-36.571429 14.628571-51.2 0z" fill="#FFFFFF" /><path d="M716.8 358.4L358.4 716.8c-14.628571 14.628571-36.571429 14.628571-51.2 0-14.628571-14.628571-14.628571-36.571429 0-51.2l358.4-358.4c14.628571-14.628571 36.571429-14.628571 51.2 0 14.628571 14.628571 14.628571 36.571429 0 51.2z" fill="#FFFFFF" /></svg>