<svg class="icon" style="width: 1em; height: 1em;vertical-align: middle;fill: currentColor;overflow: hidden;" viewBox="0 0 1024 1024" version="1.1" xmlns="http://www.w3.org/2000/svg"><path d="M512 0C229.281902 0 0.0125 229.281902 0.0125 512.0125s229.269403 511.9875 511.9875 511.9875 511.9875-229.269403 511.9875-511.9875S794.718098 0 512 0z m220.994605 353.741364a49.998779 49.998779 0 0 1 49.998779 49.998779 49.998779 49.998779 0 0 1-49.998779 49.998779 49.998779 49.998779 0 0 1-49.99878-49.998779 49.998779 49.998779 0 0 1 49.99878-50.048778z m-441.239228 0a49.998779 49.998779 0 0 1 49.998779 49.998779 49.998779 49.998779 0 0 1-49.998779 49.998779 49.998779 49.998779 0 0 1-49.998779-49.998779 49.998779 49.998779 0 0 1 50.036278-50.048778z m528.937087 308.742462c-0.82498 1.737458-21.099485 43.523937-69.22331 85.097922a334.566832 334.566832 0 0 1-95.122678 57.498597c-43.486438 17.299578-91.610263 25.974366-143.121506 25.974366-53.048705 0-101.97251-8.749786-145.608945-25.986866a317.129758 317.129758 0 0 1-94.410195-57.76109c-47.09885-41.873978-65.223408-83.96045-65.94839-85.710407a18.749542 18.749542 0 0 1 9.937257-24.5744 18.749542 18.749542 0 0 1 24.474403 9.937257c0.199995 0.41249 16.3871 37.374088 57.74859 73.623203 55.29865 48.448817 127.184395 72.973218 213.707283 72.973218 83.96045 0 155.433705-24.674398 212.494812-73.32321 42.798955-36.44911 61.02351-73.623203 61.248504-74.035692a18.777042 18.777042 0 0 1 33.861674 16.237103z" fill="#F4C836" /></svg>