<svg class="icon" style="width: 1em; height: 1em;vertical-align: middle;fill: currentColor;overflow: hidden;" viewBox="0 0 1024 1024" version="1.1" xmlns="http://www.w3.org/2000/svg"><path d="M509.677828 65.064841c-247.074792 0-447.348809 200.270946-447.348809 447.354952 0 247.059433 200.274017 447.34369 447.348809 447.343689 247.080935 0 447.349833-200.283232 447.349833-447.343689 0-247.08503-200.268898-447.354952-447.349833-447.354952z m0 838.777097c-216.180076 0-391.427264-175.255379-391.427264-391.423169 0-216.192362 175.248212-391.433407 391.427264-391.433407 216.187243 0 391.435455 175.241045 391.435455 391.433407-0.001024 216.167789-175.249236 391.423169-391.435455 391.423169z" fill="#A0A0A0" /><path d="M527.598893 512.419793l0.012287-252.044731c0-15.221079-12.539524-27.553778-27.972548-27.553778-15.44531 0-27.961284 12.314269-27.972547 27.553778l0.012287 279.856528c0 0.062457-0.012287 0.08703-0.012287 0.137201 0 0.063481 0.012287 0.088054 0.012287 0.149487v0.251876c0 6.738189 2.561761 12.839522 6.639896 17.637448 5.048779 6.026589 12.495497 9.921449 20.933336 9.921449h238.433199c15.240533 0 27.567088-12.50164 27.567089-27.961284 0.01843-15.44531-12.344985-27.947974-27.597805-27.947974H527.598893z" fill="#A0A0A0" /></svg>