<svg class="icon" style="width: 1em; height: 1em;vertical-align: middle;fill: currentColor;overflow: hidden;" viewBox="0 0 1024 1024" version="1.1" xmlns="http://www.w3.org/2000/svg"><path d="M718.6 576.5c37 2.7 72.9 18 100.5 42.7-0.7 2.1-1.3 4.3-2 6.4-17.7 1-36.1 0.8-53.7 2.9-71.4 7.8-142.4 15.1-213.2 28.2-26.9 5-53.3 11-79.9 17.1-22.6 5.2-45.6 11.8-68 18.3-11.8 3.4-23.6 6.9-35.3 10.5-5.9 1.8-11.8 3.6-17.6 5.4-5.2 1.6-11.7 4.8-17 4.9 4.2-6.9 15.5-11.9 22.5-15.5 8.3-4.3 16.9-7.9 25.4-11.7 21.6-9.6 44.3-15.2 66.7-22.3 24.2-7.6 48.3-15.4 72.9-21.3 34.5-8.3 69.3-15 104.3-20.7 20.3-3.3 40.7-6.3 61.1-9.1 10-1.4 20.6-2.9 28.5-9.2 7.9-6.3 11.4-19.2 4.5-26.6h0.3z" fill="#E68013" /><path d="M806.4 312c17-1.3 34.2-1.4 51.1 0.8 26.3 3.4 62.2 13 68.2 43.3 4.7 23.7 0.2 48.1-7 70.8-3.1 9.6-17.1 60.4-29.6 56.7-13.6-4.1-29.3-7.4-42-13.6-3.3-1.6-7.3-2.5-9.8-5.3-1.6-1.8 12.1-26.3 13.4-29 5.3-11.3 9.7-23.1 13.2-35.1 2.8-9.6 5-19.9 2.3-29.6-7.7-27.5-49.2-21.2-70-19-50.7 5.4-100.8 18.8-150.7 29.2-1.1 0.2-2.3 0.4-3.3-0.1-3.1-1.8 1.4-15.3 2.3-17.8 2.1-6.2 5.3-13.8 11.4-17 26.5-14.1 60.9-19.8 90.1-25.3 19.6-3.9 39.9-7.4 60.4-9zM397.5 317.3c0.9-0.6 2.1-1 3.7-1.1 3.7-0.4 45.3-0.3 45.3-0.1 1.2 10.7-0.6 21.4-2.2 31.9-0.5 3.2-2.6 8.1-0.8 10.9 2 3.3 9 3.8 12.4 4.3 31.4 4.5 66 19.5 84.8 46.1 6.3 8.9 10.7 18.9 17.3 27.6 2 2.6 17-9 17.1 1 0.1 8.1-1.5 16-3.1 23.9-0.3 1.5-0.6 3.4-2.1 4.2-0.7 0.4-1.6 0.6-2.4 0.7-3.8 0.4-7.4-0.3-11.1-0.7-1.5-0.1-6-1-6.8 0.9-5.4 13.8-10 28-17.8 40.7-13 21.6-29 42-49.6 56.8-13.2 10.9-28.4 19-43.6 26.8-7.6 3.9-15.3 7.7-22.8 11.8-7.3 4-9 13.5-9.6 21-0.8 8.5-0.4 17.2-1.7 25.6-0.5 3.2-1.7 2.8-5 3-4.6 0.3-9.1 0.5-13.7 0.7-9.1 0.3-18.3 0.4-27.4 0.2-2.2 0-6.6 0.7-8.4-0.7-1.9-1.4-1.8-4.9-1.8-7 0-9.4 1.6-18.5 3-27.8 0.2-1.5 2.5-13.5-0.1-13.4-9.9 0.3-19.7-0.8-29.5-1.6-22.1-0.7-45.7-11.2-55.2-32.3-8.2-18.2-1.8-42.6 11.8-56.3 7.2-7.3 13.9-14.7 22.3-20.9 16.2-11.9 32.7-19.3 51.3-26.4 7.5-2.8 14.9-6.5 20.3-12.3 6.4-6.9 6.4-13.9 7.5-22.6 1.1-9.4 5-18.7 4.2-28.2-11.5-1-24.5 0.5-35.8 2.9-11.9 2.5-23.5 7.5-32.3 15.9-7.1 6.8-12.1 16.1-13.1 26-0.4 4.4 0.1 8.9 1.9 12.9 1.8 4 4.7 7.8 4.2 12.4-14-4.1-25-12.8-28-27.7-3.9-19.3 4.1-37.6 18.9-50 15.9-13.4 37.4-18.6 56.8-24.3 6.5-1.9 13-4 19.6-5.4 5.2-1.1 11-1.2 14.3-6 2.2-3.2 2.2-7.4 2.3-11.2 0.1-7.4 0.8-14.7 1.9-22 0.4-4.5 0.2-8.3 3-10.2z m38.6 92.3c-1.6 0.5-3.8 28.9-4.2 32.2-0.9 6.3 2.8 9.8 9.3 8.8 14.8-2.1 29.6-4.8 44.4-7.2 4.7-0.8 11.5 0 11.8-5 0.3-4.2-3.7-7.8-6.4-10.3-4.3-4-9-7.5-14.1-10.3-11.3-6.4-27.8-12.2-40.8-8.2z m-10.7 68.1c-2.5 0.2-4 24.8-4.2 27.3-1.8 16.3-4.3 32.7-6.7 49-0.4 2.5-2 6.7-0.4 9.1 2.1 3.2 7.7 0.9 10.4-0.3 13-5.6 26.4-11.4 38.3-19.5 11.4-7.7 20.7-18.3 27.2-30.4 3.3-6.2 5.9-12.7 7.8-19.4 0.9-3.4 1.7-6.8 2.3-10.3 0.4-2.5 2.1-7.2-0.1-9.2-2-1.9-6.9-1.4-9.4-1.3-21.9 0.7-43.4 3.2-65.2 5z m-110.9 43.4c-5.5 8.2-6.1 18.5-4.4 28 1.3 7.4 7.8 13.6 13.6 17.8 5.6 4.1 12.1 6.9 19 8.1 4.6 0.8 12.5 2.4 15.4-2.5 1-1.8 1.4-3.8 1.7-5.8 3.5-23.6 7.1-47.2 10.7-70.7 0.3-1.6 2-7 0.4-8.4-1.7-1.5-8.5 0.5-10.4 1.2-17.7 6.6-35.2 16.3-46 32.3zM147.9 340.4c9.6-3.9 19.6-7.8 30.1-8.1 13.1-0.5 26.2-0.3 39.3 0.9 7.5 0.1 13.2 6.9 14.5 13.9 1.1 5.2-2 10-4.2 14.5-1.6 3.4-5.8 2.4-8.8 2.7-31.7-0.2-63.4 0.1-95.1-0.2 0.6-2.6 1.1-5.5 3.1-7.5 6.4-6 12.7-12.9 21.1-16.2z" fill="#585858" /><path d="M676.5 406.6c10.5-9 24.1-14.3 37.5-11.7-10.4 36.1-20.7 72.2-31.1 108.3 68.6-2.7 137.8-5.5 205.4 6.5 14.5 2.6 29.2 5.9 42.1 13 40.7 22.2 35.4 70.2 14.9 105.2-0.2 0.3-0.3 0.6-0.5 0.9-18.7 31.4-48.3 52.7-82.7 64.4-22.3 7.6-46.1 11.4-69.7 10.8-11.4-0.3-25.7 0.5-20.5-14.4 3.6-10.2 12.9-18.3 23.3-20.8 27.9-6.7 59.6-11 78.5-35.1 15.7-19.9 19.5-47 0.5-65.6-23.7-23.3-58.1-23.1-89.1-24.4-21.6-1-42.6-1.3-64.3-0.7-23.1 0.6-46.2 1.1-69.3 1.7-5.9 0.1-17.9 2.9-22.9-0.8-5.1-3.8-2.2-12.4-0.7-17.2 6.3-20.9 12.6-41.9 18.9-62.8 5.1-16.9 10.4-34.3 21.3-48.2a56 56 0 0 1 8.4-9.1zM116 408.5c4.9-0.9 10.1-1.3 14.6-1.8 16.9-2.2 34.1-3.9 51.2-3.8 16.3 0.1 33.8-0.9 48.4 7.4 28.4 16.1 9.3 54.1-3.6 73.7-7.7 11.7 3.5 27.1 11.1 35.7 3.8 4.3 11.3 8.2 14.3 12.6 5.7 8.2-9 25.9-12.9 33-2.7 4.8-5.5 4.5-10 2.3-8.3-4.3-17.1-7.8-25.3-12.2-3.7-2.1-7.7-3.4-11.9-4.1-7.5 26.8-8.3 55.4-11.6 83-0.5 3.8-4.6 50.3-6.9 50.4-7.8 0.2-15.7 0.3-23.5 0.3-6.7 0-16.3 1.7-22.8-0.2-7.4-2.2-5.7-16.1-4.6-21.6 4-18.9 7.6-37.9 11.3-57 3.2-16.9 9.4-35.8 8.1-53.1 0.3 4.5-74.1 20.5-78.7 21.8 2.3-7.4 4.6-14.9 6.9-22.3 1.6-5.2 1.3-12.9 4.5-17.5 3.1-4.4 10.4-6.2 15.4-7.9 17.5-5.9 33.9-11.1 50.3-19.7 12.4-6.5 24.5-13.8 34.6-23.7 7-6.9 15.4-19.2 14.1-29.7-3.2-24.2-43.1-17.9-58.7-15.8-3.5 0.5-41.4 5.9-41.4 6-0.1-8.3 5.2-19.7 9.9-26.3 3.9-5.9 10.3-8.3 17.2-9.5z" fill="#585858" /></svg>