<svg class="icon" style="width: 1.0009765625em; height: 1em;vertical-align: middle;fill: currentColor;overflow: hidden;" viewBox="0 0 1025 1024" version="1.1" xmlns="http://www.w3.org/2000/svg"><path d="M950.097375 295.36588c-12.003506-11.775951-24.575898-20.195471-36.664736-26.254113-43.861151-21.987464-134.626995 11.150176-162.644656 23.864789-66.189946 30.008764-109.994208 58.566867-139.035865 82.91521 111.700868-115.796851 303.131181-203.320042 303.131181-203.320042-215.380436-195.128076-378.821533-191.856978-463.614068-148.308715-14.961715 7.679968-26.908332 16.981263-36.465626 26.510112-34.673633 34.702078-31.857645 131.299008-28.614992 161.876659 8.41952 79.928556 23.779456 133.347 39.281614 168.78863-75.178353-141.880298-99.35603-349.466988-99.35603-349.466988C74.182802 176.895263 26.993665 333.395944 42.325157 427.46133c2.702211 16.583042 7.879078 30.833649 14.023053 42.837155 22.35724 43.690485 115.114187 70.712594 145.208284 77.055679 82.659211 17.436372 139.832306 18.545701 178.459701 13.93772C220.557303 597.700621 0.028444 557.025235 0.028444 557.025235c64.426398 283.390819 200.162722 374.497995 294.569439 387.497052 16.639931 2.30399 31.772312 1.535994 45.084257-0.796441 48.32691-8.533298 101.432466-89.22985 116.337293-116.138183 36.920735-66.588167 55.096659-117.332844 63.430847-154.737133-19.171476 160.169999-120.660831 346.764777-120.660831 346.764777 289.392572 26.794555 418.131591-73.926803 459.830973-159.629557 7.338636-15.103937 11.349286-29.724321 13.255056-43.093154 6.911971-48.582909-53.333111-124.131038-74.268135-146.658944-64.540176-69.4326-114.687522-103.651124-149.844709-120.404832 151.380703 64.255732 307.767607 232.276366 307.767607 232.276366C1072.749308 516.179183 1018.136202 362.124713 950.097375 295.36588zM517.54451 625.092507c-60.55797 0-109.624432-49.094907-109.624432-109.624432 0-60.55797 49.094907-109.624432 109.624432-109.624432 60.55797 0 109.624432 49.094907 109.624432 109.624432C627.168942 575.9976 578.10248 625.092507 517.54451 625.092507z" /></svg>