<svg class="icon" style="width: 1em; height: 1em;vertical-align: middle;fill: currentColor;overflow: hidden;" viewBox="0 0 1024 1024" version="1.1" xmlns="http://www.w3.org/2000/svg"><path d="M510.400631 1024c-223.911695 0-415.836005-159.936925-454.220867-380.649881-39.984231-228.709803 95.962155-452.621497 318.274481-519.795006 3.198738-1.599369 7.996846-4.798108 7.996846-6.397477 0-3.198738-3.198738-7.996846-4.798108-7.996846-28.788646-14.394323-41.5836-39.984231-31.987385-67.173509C352.063075 13.198635 382.451091-2.795058 411.239737 0.403681c47.981077 7.996846 65.574139 57.577293 39.984232 89.564678-1.599369 1.599369 0 7.996846 1.599369 11.195584 1.599369 1.599369 6.397477 3.198738 9.596215 3.198739 47.981077-4.798108 97.561524-3.198738 145.542602 9.596215C790.290249 158.741236 911.842312 272.296453 955.025282 454.624547c44.782339 182.328094-11.195585 339.066281-151.940079 462.217713-78.369093 68.772878-185.526833 107.15774-292.684572 107.15774z m0-849.265071c-214.315479 0-388.646727 172.731879-388.646728 387.047358 0 214.315479 174.331248 388.646727 387.047359 388.646728 214.315479 0 388.646727-174.331248 388.646727-388.646728 0-212.71611-172.731879-387.047358-387.047358-387.047358z m-73.570986-91.164047c12.794954-14.394323 15.993692-31.987385 6.397477-47.981078C432.031538 17.996743 408.040999 9.999896 387.249199 16.397373c-19.192431 6.397477-31.987385 22.391169-31.987385 39.984232 0 19.192431 12.794954 35.186123 31.987385 39.984231 15.993692-17.593062 28.788646-20.7918 49.580446-12.794954zM171.33435 630.555165c-17.593062-70.372247-4.798108-175.930617 44.782339-251.100972 7.996846 4.798108 15.993692 11.195585 25.589908 15.993692 3.198738 1.599369 7.996846 0 11.195585 0-1.599369-3.198738-1.599369-7.996846-4.798108-11.195585-7.996846-6.397477-15.993692-11.195585-25.589908-15.993692 52.779185-73.570985 121.552063-121.552063 209.517372-143.943232 1.599369 9.596215 4.798108 19.192431 6.397477 27.189277 1.599369 4.798108 1.599369 11.195585 7.996846 7.996846 1.599369 0 3.198738-7.996846 3.198738-11.195585-1.599369-9.596215-3.198738-17.593062-4.798107-25.589908 65.574139-17.593062 169.53314-6.397477 247.902233 44.782339-4.798108 7.996846-11.195585 15.993692-15.993692 25.589908-1.599369 3.198738 0 7.996846 0 11.195585 3.198738-1.599369 7.996846-1.599369 9.596215-4.798108 6.397477-7.996846 11.195585-15.993692 15.993693-23.990538 55.977924 23.990539 137.545755 142.343863 142.343863 206.318633-7.996846 1.599369-15.993692 3.198738-23.990539 6.397477-3.198738 1.599369-4.798108 4.798108-6.397477 7.996846 3.198738 1.599369 6.397477 4.798108 9.596216 4.798108 7.996846-1.599369 15.993692-3.198738 25.589907-4.798108 15.993692 87.965309 1.599369 169.53314-43.182969 247.902233l-23.990539-14.394323c-3.198738-1.599369-6.397477 0-11.195585 0 1.599369 3.198738 1.599369 7.996846 4.798108 9.596216 6.397477 4.798108 14.394323 9.596215 22.39117 14.394323-51.179816 75.170355-118.353324 123.151432-206.318634 145.542602-1.599369-9.596215-3.198738-19.192431-6.397477-28.788647-1.599369-3.198738-4.798108-4.798108-7.996846-7.996846-1.599369 3.198738-3.198738 7.996846-3.198738 11.195585 1.599369 9.596215 3.198738 19.192431 6.397477 28.788646-89.564678 17.593062-172.731879 3.198738-251.100972-43.18297 6.397477-9.596215 12.794954-19.192431 17.593061-28.788646 1.599369-3.198738 0-6.397477 0-11.195585-3.198738 1.599369-7.996846 1.599369-9.596215 4.798108l-19.192431 28.788646c-75.170355-51.179816-123.151432-119.952694-145.542602-209.517371 9.596215-3.198738 19.192431-4.798108 27.189277-6.397477 3.198738-1.599369 6.397477-4.798108 9.596216-7.996846-3.198738-1.599369-7.996846-4.798108-11.195585-4.798108-9.596215 1.599369-19.192431 4.798108-27.189277 6.397477z m313.476373 31.987385v3.198738c4.798108 0 7.996846 1.599369 12.794954 1.59937 9.596215 0 14.394323 4.798108 17.593061 12.794954 12.794954 30.388016 27.189277 60.776031 39.984232 91.164047l4.798107 9.596215 3.198739-1.599369v-103.959001c0-14.394323 1.599369-27.189277 15.993692-33.586754 3.198738-1.599369 4.798108-3.198738 6.397477-6.397477 4.798108-6.397477 9.596215-6.397477 15.993693-3.198739 15.993692 6.397477 31.987385 12.794954 47.981077 17.593062 1.599369-1.599369 3.198738-3.198738 3.198739-4.798108-11.195585-9.596215-23.990539-20.7918-35.186124-30.388016-7.996846-6.397477-11.195585-14.394323-6.397477-23.990538 1.599369-4.798108 3.198738-11.195585 3.198739-17.593062 0-6.397477 3.198738-9.596215 7.996846-11.195585 31.987385-14.394323 65.574139-28.788646 97.561524-43.18297 1.599369-1.599369 4.798108-3.198738 6.397477-3.198738V512.20184h-115.154586c-14.394323 0-17.593062 4.798108-12.794954 17.593062 23.990539 67.173508-30.388016 135.946386-100.760262 127.94954-3.198738 0-7.996846 3.198738-12.794954 4.798108z m-17.593062-319.87385h-1.599369V453.025178c0 9.596215-1.599369 15.993692-11.195585 19.192431-6.397477 3.198738-11.195585 6.397477-15.993692 11.195585-4.798108 4.798108-7.996846 4.798108-12.794954 1.599369-17.593062-6.397477-33.586754-12.794954-51.179816-19.192431l-1.59937 1.599369c12.794954 12.794954 25.589908 23.990539 38.384862 36.785493 4.798108 3.198738 4.798108 6.397477 3.198739 12.794954-3.198738 7.996846-4.798108 15.993692-7.996846 23.990539-1.599369 4.798108-4.798108 9.596215-9.596216 11.195585-33.586754 15.993692-67.173508 31.987385-99.160893 46.381708-1.599369 1.599369-4.798108 3.198738-9.596216 4.798108h116.753955c11.195585 0 14.394323-6.397477 12.794954-17.593062-1.599369-11.195585-4.798108-23.990539-3.198738-35.186124 6.397477-52.779185 47.981077-86.365939 100.760262-84.76657 6.397477 0 12.794954 0 14.394324-4.798108-6.397477-6.397477-11.195585-11.195585-14.394324-15.993692-12.794954-27.189277-25.589908-55.977924-38.384861-83.167201-3.198738-4.798108-6.397477-12.794954-9.596216-19.192431z m71.971616 220.712956c0 15.993692-14.394323 28.788646-30.388015 28.788647-15.993692 0-28.788646-12.794954-28.788647-28.788647s12.794954-30.388016 30.388016-30.388015c15.993692 0 28.788646 14.394323 28.788646 30.388015z" fill="#57AFEF" /><path d="M307.280736 808.085151c3.198738 0 6.397477-1.599369 7.996846-3.198738 73.570985-70.372247 148.74134-139.145125 222.312326-209.517372 3.198738-3.198738 4.798108-6.397477 7.996846-9.596215 52.779185-87.965309 105.55837-175.930617 159.936925-265.495295 1.599369-1.599369 1.599369-4.798108 3.198739-7.996847l-3.198739 1.59937c-76.769724 71.971616-151.940079 142.343863-228.709802 214.315479-3.198738 3.198738-6.397477 6.397477-7.996847 11.195585-27.189277 44.782339-54.378554 89.564678-79.968462 134.347017-28.788646 44.782339-54.378554 89.564678-81.567832 134.347016z" fill="#F7433C" /><path d="M308.880105 809.684521c1.599369-1.599369 4.798108-3.198738 6.397477-4.798108 73.570985-70.372247 148.74134-139.145125 222.312326-209.517372 3.198738-3.198738-65.574139-59.176662-68.772878-55.977923-27.189277 44.782339-54.378554 89.564678-79.968462 134.347017-28.788646 44.782339-54.378554 89.564678-79.968463 135.946386z" fill="#FFFFFF" /></svg>