<svg class="icon" style="width: 1em; height: 1em;vertical-align: middle;fill: currentColor;overflow: hidden;" viewBox="0 0 1024 1024" version="1.1" xmlns="http://www.w3.org/2000/svg"><path d="M792.494809 454.321141v-4.961387a12.403468 12.403468 0 0 0-12.403468-12.403467h-159.508592a12.403468 12.403468 0 0 0-12.403468 12.403467v4.961387a12.403468 12.403468 0 0 0 12.403468 12.403468h159.508592a12.403468 12.403468 0 0 0 12.403468-12.403468zM523.538019 832.540076c92.356219 0 167.446811-62.736739 167.446811-155.043344v-12.477888a18.270308 18.270308 0 1 0-36.540615 0v12.477888c0 72.212988-58.755226 118.564746-130.968213 118.564746s-130.968213-46.351758-130.968213-118.564746v-12.477888a18.270308 18.270308 0 0 0-36.540616 0v12.477888c0.03721 92.306605 75.18982 155.043344 167.570846 155.043344z" fill="" /><path d="M330.688907 445.688328m-49.61387 0a49.61387 49.61387 0 1 0 99.22774 0 49.61387 49.61387 0 1 0-99.22774 0Z" fill="" /><path d="M1001.604867 379.91274H962.955662a470.872837 470.872837 0 1 1-901.942946 0H22.363511A508.356116 508.356116 0 0 0 3.931959 515.953971c0 280.541628 227.516804 508.046029 508.070835 508.046029s508.046029-227.504401 508.046029-508.046029a508.405729 508.405729 0 0 0-18.443956-136.041231zM130.348099 292.914819q42.903594 0 68.901262-18.344729v-31.145107q-27.597715 21.185122-60.714973 21.185123-29.383815 0-45.756392-17.178803T75.51237 198.73529h137.802524v-17.625327q0-44.652483-21.718472-69.521436t-60.355273-24.806935q-38.996502 0-65.254642 29.371411t-26.18372 74.569647q0 48.07584 23.951095 75.140206t66.594217 27.051963zM94.712937 130.367377q15.219055-15.491931 36.05688-15.491931 22.611521 0 35.077006 14.598881t12.639134 41.303547h-102.94878q3.956706-24.918566 19.17576-40.410497zM294.743658 176.297417q0-26.531017 13.085658-43.622995t33.030434-17.091978q43.263295 0 43.263295 56.08848v116.592594h34.890954v-112.139749q0-24.571269 13.705831-42.556297t32.94361-17.985028q22.78517 0 32.757558 13.805059t9.922774 45.89283v113.057606h34.890954v-121.429947q0-80.1264-64.981767-80.113996-43.622995 0-65.515115 40.236848a55.939638 55.939638 0 0 0-21.011474-29.383814 58.296297 58.296297 0 0 0-34.84134-10.939859q-40.422901 0-61.421971 35.784004h-0.706998V91.370875h-34.915761V288.288325h34.890954zM685.192411 292.914819q45.223043 0 72.11376-28.664414t26.878314-75.313854q0-47.889788-25.191442-75.040979t-69.521436-27.188401q-46.649441 0-73.887455 28.217889t-27.287629 77.000726q0 45.396691 26.344965 73.180458t70.550923 27.808575z m-44.243168-157.213951q17.005154-20.118424 46.376565-20.118424 29.917164 0 45.582743 19.225374t15.665579 55.195431q0 35.784004-15.665579 54.922554t-45.582743 19.150954q-29.024114 0-46.202917-19.585076t-17.116785-53.595383q0-35.064603 16.943137-55.19543z" fill="" /><path d="M765.49246 374.814914a60.776991 60.776991 0 0 0 26.531017 6.201734q36.491001 0 56.348953-26.25814t19.845548-74.160333V91.370875h-34.890954v194.424353q0 66.048464-41.489599 66.048465-12.403468 0-26.357369-8.545989zM851.125999 43.481087a22.152593 22.152593 0 0 0 15.938456-6.201734 20.391301 20.391301 0 0 0 6.499417-15.305879 20.937053 20.937053 0 0 0-6.412593-15.665579 22.078172 22.078172 0 0 0-16.02528-6.201734 21.085895 21.085895 0 0 0-15.665579 6.325769 21.321561 21.321561 0 0 0-6.201734 15.578755 21.433192 21.433192 0 0 0 21.904524 21.544823zM948.344378 43.481087a22.326242 22.326242 0 0 0 15.938455-6.201734 20.304476 20.304476 0 0 0 6.499417-15.405106 20.800615 20.800615 0 0 0-6.499417-15.66558 22.164996 22.164996 0 0 0-15.938455-6.201733 21.594437 21.594437 0 0 0-21.904524 21.904523 20.726194 20.726194 0 0 0 6.201734 15.405107 21.408385 21.408385 0 0 0 15.70279 6.164523zM930.532998 91.370875h34.890954V288.288325h-34.890954z" fill="" /></svg>