<svg class="icon" style="width: 1em; height: 1em;vertical-align: middle;fill: currentColor;overflow: hidden;" viewBox="0 0 1024 1024" version="1.1" xmlns="http://www.w3.org/2000/svg"><path d="M919.74053774 190.09957547H117.52566215c-51.5040677 0-92.8633947 42.13969237-92.86339584 77.25610211v557.18037049c0 67.11136142 42.13969237 108.47068843 92.86339584 108.47068843h802.21487559c51.5040677 0 92.8633947-42.13969237 92.86339471-108.47068843V267.35567758c0-35.89677511-42.92005661-77.25610211-92.86339471-77.25610211z m25.75203328 65.55063182v150.6103808H320.42047488V255.65020729h625.07209614zM257.99130112 573.25862571H90.21289927V468.68976071h167.77840185v104.568865z m0 54.6255269v103.00813539H90.21289927V627.88415261h167.77840185z m0-372.23394532v150.6103808H90.21289927V255.65020729h167.77840185z m-167.77840185 613.36662698v-82.71865514h167.77840185v82.71865514H90.21289927z m230.20757561 0V468.68976071h625.85246151v399.5467082H320.42047488z" fill="" /></svg>