<svg class="icon" style="width: 1em; height: 1em;vertical-align: middle;fill: currentColor;overflow: hidden;" viewBox="0 0 1024 1024" version="1.1" xmlns="http://www.w3.org/2000/svg"><path d="M355.465 365.931c13.537-13.598 23.643-25.862 22.432-39.214-0.515-5.834-1.849-11.359-5.629-17.235-2.567-3.923-7.066-7.681-10.722-11.339-7.108-7.169-14.235-14.299-21.343-21.425-33.032-33.095-66.084-66.226-99.094-99.342-7.559-7.558-15.099-15.139-22.658-22.7-4.15-4.15-8.464-9.243-12.818-11.811-5.197-3.080-10.189-4.212-15.385-4.704-13.908-1.253-22.865 8.793-36.833 22.802-14.955 14.973-23.212 23.252-38.166 38.228 67.295 67.439 135.986 136.317 203.261 203.796 15.016-15.054 21.94-22.020 36.956-37.056v0zM502.958 705.848c-14.77-9.94-28.102-23.252-43.058-33.852-4.725-3.985-9.448-7.971-14.133-11.914-6.245-5.547-12.488-11.136-18.713-16.68-6.634-6.079-13.27-12.203-19.885-18.282-1.622-1.643-3.265-3.245-4.868-4.889-4.766-4.724-9.531-9.417-14.297-14.123-2.301-2.322-4.581-4.581-6.86-6.903-6.594-6.921-13.168-13.864-19.742-20.786-5.69-6.387-11.36-12.776-17.030-19.145-3.513-4.15-7.005-8.279-10.496-12.387-8.34-11.688-18.57-22.185-26.088-33.607-18.118-27.463-35.845-64.13-7.765-91.78-67.315-67.439-135.926-136.357-203.241-203.776-3.821 4.13-10.435 13.107-12.716 17.338-6.594 12.325-11.072 24.198-14.235 36.381-11.524 44.514-9.059 88.063 0.8 132.207 6.286 28.204 16.66 55.34 28.676 83.707 8.279 19.577 19.29 38.248 30.176 57.948 8.483 15.366 19.227 30.116 28.984 45.603 3.39 4.704 6.779 9.408 10.148 14.112 10.189 15.457 23.582 29.55 34.675 45.284 4.561 5.464 9.1 10.89 13.66 16.351 7.519 8.629 15.057 17.175 22.576 25.761 8.772 9.407 17.522 18.817 26.294 28.184 2.178 2.22 4.355 4.396 6.532 6.575 8.115 8.175 16.229 16.269 24.343 24.402 2.116 2.139 4.23 4.232 6.347 6.369 8.464 7.89 16.906 15.736 25.349 23.541 2.691 2.507 5.382 4.972 8.073 7.478 9.387 8.135 18.775 16.228 28.162 24.321 8.709 6.986 17.42 14.009 26.109 21.036 5.628 4.232 11.256 8.505 16.865 12.737 15.734 10.435 30.401 22.185 45.93 31.387 18.407 10.928 35.868 21.733 53.841 30.853 18.96 9.615 37.693 17.707 56.49 24.816 8.444 3.163 16.823 6.326 25.328 8.421 10.723 2.671 20.893 6.040 31.514 8.259 38.514 8.092 78.654 10.557 117.497 1.026 12.531-3.083 24.92-6.82 37.592-13.601 6.183-3.243 16.927-10.063 23.13-16.555-65.63-65.774-137.63-138-203.241-203.776-29.621 29.786-63.311 7.764-92.725-12.039v0zM873.614 812.708c-2.588-4.355-7.436-8.627-11.647-12.859-6.861-6.901-13.72-13.803-20.624-20.705-32.209-32.293-64.419-64.584-96.607-96.876-7.232-7.231-14.441-14.461-21.653-21.65-4.908-4.972-9.861-10.437-14.831-13.066 9.88 5.176-14.873-20.747-38.679-3.78-14.668 14.707-40.756 40.878-55.423 55.586 65.817 65.981 137.427 137.794 203.221 203.776 14.853-14.914 22.925-23.173 37.776-38.042 14.009-14.092 24.198-23.461 22.906-37.348-0.433-5.011-1.583-10.064-4.439-15.036v0zM740.154 427.125h73.17c0-121.524-98.272-220.065-219.49-220.065v73.336c80.81 0 146.319 65.692 146.319 146.729v0zM593.834 60.351v73.334c161.622 0 292.64 131.387 292.64 293.44h73.17c-0.001-202.563-163.782-366.774-365.81-366.774v0zM593.834 60.351z" fill="#d81e06" /></svg>