<svg class="icon" style="width: 1em; height: 1em;vertical-align: middle;fill: currentColor;overflow: hidden;" viewBox="0 0 1024 1024" version="1.1" xmlns="http://www.w3.org/2000/svg"><path d="M428.373333 926.72H199.424c-31.701333 0-57.216-25.6-57.216-57.728V156.757333c0-31.829333 25.941333-57.770667 57.6-57.770666h626.432c31.829333 0 57.557333 25.642667 57.557333 57.386666V426.666667a27.733333 27.733333 0 1 0 55.466667 0V156.373333a112.896 112.896 0 0 0-113.066667-112.853333H199.808c-62.293333 0-113.024 50.773333-113.024 113.237333v712.234667c0 62.72 50.346667 113.194667 112.64 113.194667h228.992a27.733333 27.733333 0 0 0 0-55.466667z" fill="#5C646F" /><path d="M284.714667 313.173333h455.253333a27.733333 27.733333 0 1 0 0-55.466666H284.672a27.733333 27.733333 0 1 0 0 55.466666zM284.714667 483.84h455.253333a27.733333 27.733333 0 1 0 0-55.466667H284.672a27.733333 27.733333 0 1 0 0 55.466667zM284.714667 654.506667h156.586666a27.733333 27.733333 0 1 0 0-55.466667h-156.586666a27.733333 27.733333 0 1 0 0 55.466667zM738.133333 930.133333a162.133333 162.133333 0 1 0 0-324.266666 162.133333 162.133333 0 0 0 0 324.266666z m0 51.2a213.333333 213.333333 0 1 1 0-426.666666 213.333333 213.333333 0 0 1 0 426.666666z" fill="#5C646F" /><path d="M753.322667 684.330667a25.6 25.6 0 1 0-51.2 0v100.181333a25.6 25.6 0 0 0 25.6 25.6H810.666667a25.6 25.6 0 1 0 0-51.2h-57.344V684.373333z" fill="#5C646F" /></svg>