<svg class="icon" style="width: 1em; height: 1em;vertical-align: middle;fill: currentColor;overflow: hidden;" viewBox="0 0 1024 1024" version="1.1" xmlns="http://www.w3.org/2000/svg"><path d="M829 633c-11-8.9-27.1-7.2-35.9 3.9-8.9 11-7.2 27.1 3.9 35.9 17.9 14.4 42 57.4 42 81.6 0 43.2-35.1 78.3-78.3 78.3-25.5 0-49.4-12.4-64.1-33.2-1.8-2.5-49.3-70.9-76.9-100.6-48.9-52.2-130.9-49.3-131.1-49.3-103.8-21.3-174.9-105.5-161.8-191.7 6.5-42.9 32.8-80.6 74.2-106 42.8-26.1 96.2-36.2 150.4-27.9 54.2 8.1 102.2 33.4 135.4 71 32.1 36.5 46.1 80.1 39.6 123.2-2.5 16.5-7.8 32.3-16.2 47.1-6.9 12.2-2.6 27.9 9.8 34.8 12.2 6.9 27.9 2.6 34.8-9.8 11.3-20.2 18.9-42 22.2-64.5 8.8-58.2-9.6-116.6-51.9-164.6-41.1-46.6-100.2-77.9-166.2-87.8-66.1-9.9-131.7 2.5-184.8 35-54.5 33.4-89.3 83.8-98 142C258.8 563.3 347.5 673 478 700c1.8 0.4 71.4-0.8 104 34.1 28.6 30.6 72.4 97 75.7 99.1 24.4 31.9 62.3 50.9 102.8 50.9 71.4 0 129.5-58.1 129.5-129.5 0.1-41.6-32.1-98.5-61-121.6z m0 0" fill="#bfbfbf" /><path d="M171.9 344.4c0 28.2 23 51.2 51.2 51.2s51.2-23 51.2-51.2c0-28.2-23-51.2-51.2-51.2s-51.2 23-51.2 51.2z m0 0" fill="#bfbfbf" /><path d="M338.7 270.3c-8.8 0-17.6-3-24.8-9.1-16-13.6-18.2-37.4-4.8-53.7 3.2-3.9 79-92.5 221.7-64 20.8 4.1 34.3 24.4 30.1 45.1-4.1 20.8-24.4 34.4-45.1 30.1-96.6-19.2-145.8 36-147.9 38.3-7.6 8.8-18.3 13.3-29.2 13.3z m0 0" fill="#bfbfbf" /></svg>