<svg class="icon" style="width: 1em; height: 1em;vertical-align: middle;fill: currentColor;overflow: hidden;" viewBox="0 0 1024 1024" version="1.1" xmlns="http://www.w3.org/2000/svg"><path d="M928.512 959.744a32 32 0 0 1-32-32v-256a32 32 0 0 1 64 0v256a32 32 0 0 1-32 32z" fill="" /><path d="M960.512 927.744a32 32 0 0 1-32 32h-256a32 32 0 0 1 0-64h256a32 32 0 0 1 32 32zM95.744 64.256a32 32 0 0 1 32 32v256a32 32 0 0 1-64 0v-256a32 32 0 0 1 32-32z" fill="" /><path d="M63.744 96.256a32 32 0 0 1 32-32h256a32 32 0 0 1 0 64h-256a32 32 0 0 1-32-32z" fill="" /><path d="M64.064 927.744a32 32 0 0 1 32-32h256a32 32 0 0 1 0 64h-256a32 32 0 0 1-32-32z" fill="" /><path d="M96.064 959.744a32 32 0 0 1-32-32v-256a32 32 0 0 1 64 0v256a32 32 0 0 1-32 32z" fill="" /><path d="M81.472 942.272a32 32 0 0 1 0-45.248l247.936-247.936a32 32 0 0 1 45.248 45.248L126.72 942.272a31.936 31.936 0 0 1-45.248 0z" fill="" /><path d="M959.616 96.512a32 32 0 0 1-32 32h-256a32 32 0 0 1 0-64h256a32 32 0 0 1 32 32z" fill="" /><path d="M927.616 64.512a32 32 0 0 1 32 32v256a32 32 0 0 1-64 0v-256a32 32 0 0 1 32-32z" fill="" /><path d="M942.144 81.92a32 32 0 0 1 0 45.248l-247.936 247.936a32 32 0 0 1-45.248-45.248l247.936-247.936a32 32 0 0 1 45.248 0z" fill="" /></svg>