<svg class="icon" style="width: 1em; height: 1em;vertical-align: middle;fill: currentColor;overflow: hidden;" viewBox="0 0 1024 1024" version="1.1" xmlns="http://www.w3.org/2000/svg"><path d="M511.996352 828.199525c-42.294524 0-83.33479-8.288481-121.980048-24.633565-37.317219-15.784842-70.827883-38.376082-99.599607-67.147806s-51.363775-62.281577-67.147807-99.599608C206.922996 598.172478 198.634515 557.132212 198.634515 514.837688s8.288481-83.33479 24.633564-121.980858c15.784032-37.317219 38.376082-70.827883 67.147807-99.599608s62.282388-51.363775 99.599607-67.147806c38.646068-16.345894 79.686334-24.633565 121.980048-24.633565 42.294524 0 83.33479 8.288481 121.980858 24.633565 37.317219 15.784032 70.826261 38.376082 99.599607 67.147806s51.363775 62.282388 67.147807 99.599608c16.345083 38.646068 24.633565 79.686334 24.633565 121.980858s-8.288481 83.33479-24.633565 121.980858c-15.784842 37.317219-38.375272 70.827072-67.147807 99.599608s-62.281577 51.363775-99.599607 67.147806c-38.645257 16.345083-79.685523 24.633565-121.980047 24.633565z m0-586.185273c-150.434762 0-272.823436 122.387864-272.823437 272.823436s122.387864 272.823436 272.823437 272.823436 272.823436-122.387864 272.823436-272.823436-122.387864-272.823436-272.823436-272.823436z" fill="#999999" /><path d="M511.996352 514.837688m-164.180523 0a164.180523 164.180523 0 1 0 328.361045 0 164.180523 164.180523 0 1 0-328.361045 0Z" fill="#999999" /></svg>