<svg class="icon" style="width: 1em; height: 1em;vertical-align: middle;fill: currentColor;overflow: hidden;" viewBox="0 0 1024 1024" version="1.1" xmlns="http://www.w3.org/2000/svg"><path d="M188.63736979 216.63476562h683.85058593c16.07519531 0 29.10058594 13.02539063 29.10058594 29.10058594v552.90234375c0 16.07519531-13.02539063 29.10058594-29.10058594 29.10058594H188.63736979c-16.07519531 0-29.10058594-13.02539063-29.10058594-29.10058594V245.73535156c0-16.06640625 13.02539063-29.10058594 29.10058594-29.10058594z m0 14.55468751c-8.03320313 0-14.54589844 6.51269531-14.54589844 14.54589843v552.90234375c0 8.03320313 6.51269531 14.54589844 14.54589844 14.54589844h683.85058593c8.03320313 0 14.54589844-6.51269531 14.54589844-14.54589844V245.73535156c0-8.03320313-6.51269531-14.54589844-14.54589844-14.54589844H188.63736979z" fill="#8a8a8a" /><path d="M188.63736979 216.63476562h683.85058593c16.07519531 0 29.10058594 13.02539063 29.10058594 29.10058594v116.40234375H159.53678385V245.73535156c0-16.06640625 13.02539063-29.10058594 29.10058594-29.10058594z m-14.5546875 130.95703127h712.95117187V245.73535156c0-8.03320313-6.51269531-14.54589844-14.54589844-14.54589844H188.63736979c-8.03320313 0-14.54589844 6.51269531-14.54589844 14.54589844v101.85644531zM640.0875651 693.38867188c-9.12304688-7.60253906-19.01074219-14.44921875-31.18359375-19.77539063 0-0.76464844 0.76464844-1.52050781 0.76464843-1.52050781 3.80566406-11.40820313 6.84667969-24.33691406 8.3671875-37.265625 0-1.52050781 0.76464844-3.04101563 0.76464844-5.32617187 0.76464844-5.32617188 1.52050781-9.88769531 1.52050781-15.21386719 0-2.28515625 0-3.80566406 0.76464844-6.08203126 0-4.56152345 0-8.3671875 0.76464844-12.92871093h60.84667969c-2.30273438 38.02148438-18.27246094 72.24609375-42.609375 98.11230468z m-64.65234375 39.54199218c3.04101563-3.80566406 6.08203125-7.60253906 9.12304687-11.40820312 0-0.76464844 0.76464844-0.76464844 0.76464845-1.52050782 6.08203125-8.3671875 11.40820313-18.25488281 15.96972656-28.8984375 0-0.76464844 0.76464844-1.52050781 0.76464843-1.52050781 0-0.76464844 0.76464844-1.52050781 0.76464844-2.28515625 9.12304688 4.56152345 17.49023438 9.88769531 25.1015625 15.96972656-14.45800781 13.69335938-32.71289063 23.58105469-52.48828125 29.66308594z m-37.265625 6.09082031v-67.69335937c19.01074219 0.76464844 36.50976563 4.56152345 51.71484375 9.88769531-12.1640625 31.93945313-30.41894531 53.23535156-51.71484375 57.80566406z m0-143.75390624h68.44921875c-0.76464844 26.62207031-4.56152345 50.95898438-11.40820313 72.25488281-17.49023438-6.08203125-36.50976563-9.88769531-57.04101562-10.65234375v-61.60253906z m0-76.05175782c20.53125001-0.76464844 39.55078125-4.56152345 57.04101562-10.64355468 6.84667969 21.29589844 10.65234375 45.6328125 11.40820313 72.25488281h-68.44921875v-61.61132813z m0-82.90722656c21.29589844 4.56152345 39.55078125 25.85742188 51.71484375 57.04101563-15.96972656 6.08203125-33.46875001 9.12304688-51.71484375 9.88769531v-66.92871094z m90.50097656 35.74511719c-7.60253906 6.08203125-15.96972656 11.40820313-25.1015625 15.96972656 0-0.76464844-0.76464844-1.52050781-0.76464844-2.28515625 0-0.76464844-0.76464844-1.52050781-0.76464844-1.52050781-4.56152345-10.65234375-9.88769531-20.53125001-15.96972656-28.8984375 0-0.76464844-0.76464844-0.76464844-0.76464843-1.52050782-3.04101563-3.80566406-6.08203125-7.60253906-9.12304688-11.40820312 19.02832031 6.09082031 37.28320313 15.97851563 52.48828125 29.66308594z m54.00878906 108.00878906h-60.84667968c0-4.56152345 0-9.12304688-0.76464844-12.92871094 0-2.28515625 0-3.80566406-0.76464844-6.08203125-0.76464844-5.32617188-0.76464844-9.88769531-1.52050781-15.21386718 0-1.52050781-0.76464844-3.04101563-0.76464844-5.32617188-2.28515625-12.92871094-5.32617188-25.85742188-8.3671875-37.265625 0-0.76464844-0.76464844-1.52050781-0.76464844-1.52050781 11.40820313-5.32617188 22.06054688-12.17285156 31.18359375-19.77539063 24.35449219 25.85742188 40.32421875 60.08203125 42.609375 98.11230469zM522.95572916 504.00195312c-19.01074219-0.76464844-36.50976563-4.56152345-51.71484375-9.88769531 12.17285156-31.94824219 31.18359375-53.24414063 51.71484375-57.04101562v66.92871093z m0 76.06054688h-68.44921875c0.76464844-26.62207031 4.56152345-50.95898438 11.40820313-72.25488281 17.49023438 6.08203125 36.50976563 9.88769531 57.04101562 10.65234375v61.60253906z m0 76.05175781c-20.53125001 0.76464844-39.55078125 4.56152345-57.04101563 10.64355469-6.84667969-21.29589844-10.65234375-45.6328125-11.40820312-72.25488281h68.44921875v61.61132812z m0 82.90722657c-21.29589844-4.56152345-39.55078125-25.85742188-51.71484375-57.04101563 15.96972656-6.08203125 33.46875001-9.12304688 51.71484375-9.88769531v66.92871093z m-90.50976563-35.75390626c7.60253906-6.08203125 15.96972656-11.40820313 25.10156251-15.96972656 0 0.76464844 0.76464844 1.52050781 0.76464843 2.28515625s0.76464844 1.52050781 0.76464844 1.52050781c4.56152345 10.65234375 9.88769531 20.53125001 15.96972656 28.8984375 0 0.76464844 0.76464844 0.76464844 0.76464844 1.52050782 3.04101563 3.80566406 6.08203125 7.60253906 9.12304688 11.40820312-19.01953125-6.08203125-37.27441406-15.96972656-52.48828126-29.66308594zM378.44596353 595.26757813h60.84667968c0 4.56152345 0 9.12304688 0.76464845 12.92871093 0 2.28515625 0 3.80566406 0.76464844 6.08203125 0.76464844 5.32617188 0.76464844 9.88769531 1.52050781 15.21386719 0 1.52050781 0.76464844 3.04101563 0.76464844 5.32617187 2.28515625 12.92871094 5.32617188 25.85742188 8.3671875 37.265625 0 0.76464844 0.76464844 1.52050781 0.76464844 1.52050782-11.40820313 5.32617188-22.06054688 12.17285156-31.18359376 19.77539062-24.35449219-25.85742188-40.32421875-60.08203125-42.609375-98.11230468z m42.59179688-113.32617188c9.12304688 7.60253906 19.01074219 14.44921875 31.18359375 19.77539062 0 0.76464844-0.76464844 1.52050781-0.76464844 1.52050782-3.80566406 11.40820313-6.84667969 24.33691406-8.3671875 37.265625 0 1.52050781-0.76464844 3.04101563-0.76464843 5.32617187-0.76464844 5.32617188-1.52050781 9.88769531-1.52050782 15.21386719 0 2.28515625 0 3.80566406-0.76464843 6.08203125 0 4.56152345 0 8.3671875-0.76464844 12.92871094H378.44596353c2.28515625-38.02148438 18.25488281-72.24609375 42.59179688-98.11230469z m64.65234375-39.54199219c-3.04101563 3.80566406-6.08203125 7.60253906-9.12304688 11.40820313 0 0.76464844-0.76464844 0.76464844-0.76464843 1.52050781-6.08203125 8.3671875-11.40820313 18.25488281-15.96972657 28.8984375 0 0.76464844-0.76464844 1.52050781-0.76464843 1.52050781 0 0.76464844-0.76464844 1.52050781-0.76464844 2.28515625-9.12304688-4.56152345-17.49023438-9.88769531-25.1015625-15.96972656 14.45800781-13.69335938 32.71289063-23.58105469 52.48828125-29.66308594z m44.86816406-22.06054687c-92.03027344 0-167.32617188 74.54003906-167.32617187 167.32617187s75.29589844 167.32617188 167.32617187 167.32617188c92.78613281 0 167.32617188-74.54003906 167.32617188-167.32617188s-74.53125001-167.32617188-167.32617188-167.32617187z" fill="#8a8a8a" /><path d="M799.74088541 289.390625m-36.37792969 0a36.37792969 36.37792969 0 1 0 72.75585938 0 36.37792969 36.37792969 0 1 0-72.75585938 0Z" fill="#8a8a8a" /><path d="M683.33854166 289.390625m-36.37792969 0a36.37792969 36.37792969 0 1 0 72.75585938 0 36.37792969 36.37792969 0 1 0-72.75585938 0Z" fill="#8a8a8a" /><path d="M799.74088541 289.390625m-21.8232422 0a21.82324219 21.82324219 0 1 0 43.64648439 0 21.82324219 21.82324219 0 1 0-43.64648439 0Z" fill="#8a8a8a" /><path d="M683.33854166 289.390625m-21.82324219 0a21.82324219 21.82324219 0 1 0 43.64648438 0 21.82324219 21.82324219 0 1 0-43.64648438 0Z" fill="#8a8a8a" /></svg>