<svg class="icon" style="width: 1em; height: 1em;vertical-align: middle;fill: currentColor;overflow: hidden;" viewBox="0 0 1024 1024" version="1.1" xmlns="http://www.w3.org/2000/svg"><path d="M933.17802667 280.14819555l-189.32622222 102.52743112V262.08938667c0-30.29219555-24.46677333-54.75896889-54.7589689-54.75896889H154.31907555c-30.29219555 0-55.34151111 24.46677333-55.3415111 54.75896889V759.58044445c0 30.29219555 24.46677333 54.75896889 55.3415111 54.75896888h534.77376c30.29219555 0 54.75896889-24.46677333 54.7589689-54.75896888V638.99420445l186.99605333 101.36234666s11.06830222 4.66033778 20.97152-1.16508444c11.65084445-6.99050667 11.65084445-17.47626667 11.65084444-17.47626667V295.29429333s-2.91271111-10.48576-13.39847111-13.98101333-16.89372445-1.16508445-16.89372444-1.16508445zM531.80643555 517.82542222c-1.16508445 1.74762667-2.33016889 2.91271111-4.07779555 4.07779556l-156.12131555 99.61472c-2.33016889 1.16508445-4.66033778 2.33016889-6.99050667 2.33016889-6.99050667 0-13.39847111-5.82542222-13.39847111-13.39847112V411.22019555c0-6.99050667 5.82542222-13.39847111 13.39847111-13.3984711 2.33016889 0 5.24288 0.58254222 6.99050667 2.33016888l156.12131555 99.61472c5.82542222 3.49525333 8.15559111 11.65084445 4.07779555 18.05880889z" fill="#2C2C2C" /></svg>