<svg class="icon" style="width: 1em; height: 1em;vertical-align: middle;fill: currentColor;overflow: hidden;" viewBox="0 0 1024 1024" version="1.1" xmlns="http://www.w3.org/2000/svg"><path d="M512 921.6a577.65888 577.65888 0 0 1-122.88-13.6192L225.28 1003.52v-159.17056C89.35424 763.35104 0 626.3808 0 471.04 0 222.208 229.23264 20.48 512 20.48s512 201.728 512 450.56-229.23264 450.56-512 450.56zM245.76 389.12a81.92 81.92 0 1 0 81.92 81.92 81.92 81.92 0 0 0-81.92-81.92z m266.24 0a81.92 81.92 0 1 0 81.92 81.92 81.92 81.92 0 0 0-81.92-81.92z m266.24 0a81.92 81.92 0 1 0 81.92 81.92 81.92 81.92 0 0 0-81.92-81.92z" fill="#3BC47A" /></svg>