<svg class="icon" style="width: 1em; height: 1em;vertical-align: middle;fill: currentColor;overflow: hidden;" viewBox="0 0 1024 1024" version="1.1" xmlns="http://www.w3.org/2000/svg"><path d="M876.762131 340.943948A84.928895 84.928895 0 1 1 962.551169 256.015053a85.358967 85.358967 0 0 1-85.789038 84.928895zM684.356302 213.007895A84.928895 84.928895 0 1 1 770.042942 128.017561a85.358967 85.358967 0 0 1-85.68664 84.990334zM469.893945 171.086157a85.543283 85.543283 0 1 1 85.789039-85.543283 85.666161 85.666161 0 0 1-85.789039 85.543283zM191.08469 299.02221a149.50107 149.50107 0 1 1 150.115458-149.50107 149.828743 149.828743 0 0 1-150.115458 149.50107z m321.386341-43.007157c264.862649 0 321.529698 192.262472 321.529698 383.992473S813.050099 1024 576.77697 1024c-120.645315 0-150.033539-83.311007-150.033539-135.533984s21.44214-50.420772 21.44214-158.12298-192.897339-78.457342-192.897339-248.458491c0 0-7.65937-225.869493 257.182799-225.869492z" fill="#3BC47A" /></svg>