<svg class="icon" style="width: 1em; height: 1em;vertical-align: middle;fill: currentColor;overflow: hidden;" viewBox="0 0 1024 1024" version="1.1" xmlns="http://www.w3.org/2000/svg"><path d="M714.136566 0c-51.044848 1.975596-112.950303 34.133333-149.690182 77.182707-32.79903 38.105212-61.657212 99.214222-53.765172 157.592566 56.971636 4.447677 115.163798-29.189172 150.683152-72.238546C696.873374 119.735596 720.797737 59.867798 714.136566 0zM694.659879 245.656566c-72.248889 0.99297-139.088162 47.507394-176.076283 47.507394-40.194586 0-102.10004-45.511111-167.698101-44.280243-86.31596 1.241212-165.722505 50.217374-210.116525 127.648323-89.522424 155.865212-22.931394 386.927192 64.367192 513.592889 42.666667 61.853737 93.463273 131.620202 160.540444 128.899879 64.367192-2.482424 88.78804-41.808162 166.467232-41.808162 77.679192 0 99.638303 41.808162 167.698101 40.56695 69.30101-1.241212 113.198545-63.332848 155.61697-125.176242C904.269576 820.854949 924.49099 751.336727 925.732202 747.623434c-1.479111-0.744727-134.899071-51.955071-136.378182-206.330828-1.241212-128.889535 105.058263-190.991515 109.743839-193.960081-59.681616-87.577859-152.658747-99.700364-185.94392-101.179474a461.482667 461.482667 0 0 0-18.504404-0.496485z" /></svg>