<svg class="icon" style="width: 1em; height: 1em;vertical-align: middle;fill: currentColor;overflow: hidden;" viewBox="0 0 1024 1024" version="1.1" xmlns="http://www.w3.org/2000/svg"><path d="M534.096842 129.347368H533.557895c0 0.538947 0 0.538947 0.538947 0zM40.96 594.997895c0.538947 1.077895 1.077895 1.616842 1.077895 2.694737 0-1.077895-0.538947-2.155789-1.077895-2.694737zM707.098947 603.621053c31.797895 0 57.128421 25.869474 57.128421 57.128421 0 12.395789-3.772632 23.713684-10.778947 32.875789h0.538947c31.797895-53.355789 50.122105-115.873684 50.122106-182.16421 0-196.715789-158.989474-355.705263-355.705263-355.705264s-355.705263 158.989474-355.705264 355.705264c0 64.134737 17.246316 124.496842 46.888421 176.235789h0.538948c-4.311579-8.084211-7.006316-17.246316-7.006316-26.947368 0-31.797895 25.869474-57.128421 57.128421-57.128421 21.018947 0 38.804211 11.317895 49.044211 28.025263-19.941053-35.031579-31.797895-75.991579-31.797895-119.646316 0-133.12 107.789474-240.909474 240.909474-240.909474S689.852632 378.88 689.852632 512c0 44.193684-11.856842 85.153684-32.336843 120.724211 10.24-17.246316 28.564211-29.103158 49.583158-29.103158z" fill="#28B75A" /><path d="M241.448421 633.802105c-0.538947-1.077895-1.077895-1.616842-1.616842-2.155789 0.538947 0.538947 0.538947 1.616842 1.616842 2.155789z" fill="#28B75A" /><path d="M764.766316 661.288421c0-31.797895-25.869474-57.128421-57.128421-57.128421-21.557895 0-39.882105 11.856842-49.583158 29.103158-41.498947 71.68-119.107368 120.185263-208.572632 120.185263-88.387368 0-165.456842-47.966316-207.494737-119.107368h-0.538947c-9.701053-17.785263-28.564211-30.181053-50.122105-30.181053-31.797895 0-57.128421 25.869474-57.128421 57.128421 0 11.856842 3.772632 23.174737 10.24 32.336842C205.338947 797.642105 319.056842 867.705263 448.943158 867.705263s243.065263-69.524211 305.583158-173.541052h-0.538948c6.467368-9.162105 10.778947-20.48 10.778948-32.87579zM180.547368 717.338947c3.233684 0.538947 6.467368 1.077895 10.24 1.077895-3.233684 0-7.006316-0.538947-10.24-1.077895z m-18.32421-7.006315c1.077895 0.538947 2.694737 1.616842 3.772631 2.155789-1.616842-0.538947-2.694737-1.077895-3.772631-2.155789z m7.545263 4.311579c2.694737 1.077895 5.389474 2.155789 8.623158 2.694736-3.233684-1.077895-5.928421-1.616842-8.623158-2.694736z m77.608421-63.056843c0.538947 3.233684 1.077895 6.467368 1.077895 9.701053 0-3.233684-0.538947-6.467368-1.077895-9.701053z m-2.155789-7.006315c0.538947 1.077895 0.538947 2.155789 1.077894 3.233684 0-1.077895-0.538947-2.155789-1.077894-3.233684z m405.827368 7.006315c-0.538947 3.233684-1.077895 6.467368-1.077895 9.701053 0-3.233684 0-6.467368 1.077895-9.701053z m1.616842-8.08421c-0.538947 1.616842-1.077895 2.694737-1.077895 4.311579 0.538947-1.616842 1.077895-3.233684 1.077895-4.311579z m64.673684 73.835789c-3.233684 0.538947-7.006316 1.077895-10.24 1.077895 3.772632 0 7.006316-0.538947 10.24-1.077895z m29.103158-14.551579c-2.155789 1.616842-4.311579 3.772632-6.467368 5.389474 2.155789-1.616842 4.311579-3.233684 6.467368-5.389474z m-8.623158 7.006316c-2.155789 1.077895-4.311579 2.694737-6.467368 3.772632 2.155789-1.616842 4.311579-2.694737 6.467368-3.772632z m-9.162105 4.311579c-2.694737 1.077895-5.928421 2.155789-9.162105 2.694737 3.233684-0.538947 6.467368-1.077895 9.162105-2.694737z m20.48-14.012631c1.616842-2.155789 3.772632-3.772632 4.850526-5.928421-1.616842 2.155789-3.233684 4.311579-4.850526 5.928421z" fill="#F9B617" /><path d="M713.027368 649.431579m-57.128421 0a57.128421 57.128421 0 1 0 114.256842 0 57.128421 57.128421 0 1 0-114.256842 0Z" fill="#28944A" /><path d="M707.098947 661.288421m-57.128421 0a57.128421 57.128421 0 1 0 114.256842 0 57.128421 57.128421 0 1 0-114.256842 0Z" fill="#F9B617" /><path d="M184.858947 649.431579m-57.128421 0a57.128421 57.128421 0 1 0 114.256842 0 57.128421 57.128421 0 1 0-114.256842 0Z" fill="#28944A" /><path d="M190.787368 661.288421m-57.128421 0a57.128421 57.128421 0 1 0 114.256842 0 57.128421 57.128421 0 1 0-114.256842 0Z" fill="#F9B617" /><path d="M913.515789 810.576842m-57.128421 0a57.128421 57.128421 0 1 0 114.256843 0 57.128421 57.128421 0 1 0-114.256843 0Z" fill="#F9B617" /></svg>