<svg class="icon" style="width: 1em; height: 1em;vertical-align: middle;fill: currentColor;overflow: hidden;" viewBox="0 0 1024 1024" version="1.1" xmlns="http://www.w3.org/2000/svg"><path d="M511.2 62c-247.4 0-448 200.6-448 448s200.6 448 448 448 448-200.6 448-448-200.6-448-448-448z" fill="#2DBE53" /><path d="M728.9 398.8L469.8 657.9c-4.8 4.8-11.4 7.5-18.4 7.5-6.9 0-13.5-2.7-18.4-7.5L293.5 518.4c-10.2-10.2-10.2-26.6 0-36.7 10.2-10.2 26.6-10.2 36.7 0L451.4 603l240.7-240.8c10.2-10.2 26.6-10.2 36.7 0 10.3 10.1 10.3 26.5 0.1 36.6z" fill="#FFFFFF" /></svg>