<svg class="icon" style="width: 1em; height: 1em;vertical-align: middle;fill: currentColor;overflow: hidden;" viewBox="0 0 1024 1024" version="1.1" xmlns="http://www.w3.org/2000/svg"><path d="M503.172414 1024A503.172414 503.172414 0 1 1 1006.344828 520.827586 503.172414 503.172414 0 0 1 503.172414 1024z m0-971.034483A467.862069 467.862069 0 1 0 971.034483 520.827586 467.862069 467.862069 0 0 0 503.172414 52.965517zM741.517241 706.206897h-35.310344a17.655172 17.655172 0 0 1-17.655173-17.655173v-35.310345a17.655172 17.655172 0 0 1 17.655173-17.655172h35.310344a17.655172 17.655172 0 0 1 17.655173 17.655172v35.310345a17.655172 17.655172 0 0 1-17.655173 17.655173z m0-141.24138h-35.310344a17.655172 17.655172 0 0 1-17.655173-17.655172v-35.310345a17.655172 17.655172 0 0 1 17.655173-17.655172h35.310344a17.655172 17.655172 0 0 1 17.655173 17.655172v35.310345a17.655172 17.655172 0 0 1-17.655173 17.655172z m0-141.241379h-35.310344a17.655172 17.655172 0 0 1-17.655173-17.655172v-35.310345a17.655172 17.655172 0 0 1 17.655173-17.655173h35.310344a17.655172 17.655172 0 0 1 17.655173 17.655173v35.310345a17.655172 17.655172 0 0 1-17.655173 17.655172z m-141.241379 282.482759h-35.310345a17.655172 17.655172 0 0 1-17.655172-17.655173v-35.310345a17.655172 17.655172 0 0 1 17.655172-17.655172h35.310345a17.655172 17.655172 0 0 1 17.655172 17.655172v35.310345a17.655172 17.655172 0 0 1-17.655172 17.655173z m0-141.24138h-35.310345a17.655172 17.655172 0 0 1-17.655172-17.655172v-35.310345a17.655172 17.655172 0 0 1 17.655172-17.655172h35.310345a17.655172 17.655172 0 0 1 17.655172 17.655172v35.310345a17.655172 17.655172 0 0 1-17.655172 17.655172z m0-141.241379h-35.310345a17.655172 17.655172 0 0 1-17.655172-17.655172v-35.310345a17.655172 17.655172 0 0 1 17.655172-17.655173h35.310345a17.655172 17.655172 0 0 1 17.655172 17.655173v35.310345a17.655172 17.655172 0 0 1-17.655172 17.655172z m-141.241379 282.482759H282.482759a17.655172 17.655172 0 0 1-17.655173-17.655173v-35.310345a17.655172 17.655172 0 0 1 17.655173-17.655172h176.551724a17.655172 17.655172 0 0 1 17.655172 17.655172v35.310345a17.655172 17.655172 0 0 1-17.655172 17.655173z m0-141.24138h-35.310345a17.655172 17.655172 0 0 1-17.655172-17.655172v-35.310345a17.655172 17.655172 0 0 1 17.655172-17.655172h35.310345a17.655172 17.655172 0 0 1 17.655172 17.655172v35.310345a17.655172 17.655172 0 0 1-17.655172 17.655172z m0-141.241379h-35.310345a17.655172 17.655172 0 0 1-17.655172-17.655172v-35.310345a17.655172 17.655172 0 0 1 17.655172-17.655173h35.310345a17.655172 17.655172 0 0 1 17.655172 17.655173v35.310345a17.655172 17.655172 0 0 1-17.655172 17.655172z m-141.24138 141.241379h-35.310344a17.655172 17.655172 0 0 1-17.655173-17.655172v-35.310345a17.655172 17.655172 0 0 1 17.655173-17.655172h35.310344a17.655172 17.655172 0 0 1 17.655173 17.655172v35.310345a17.655172 17.655172 0 0 1-17.655173 17.655172z m0-141.241379h-35.310344a17.655172 17.655172 0 0 1-17.655173-17.655172v-35.310345a17.655172 17.655172 0 0 1 17.655173-17.655173h35.310344a17.655172 17.655172 0 0 1 17.655173 17.655173v35.310345a17.655172 17.655172 0 0 1-17.655173 17.655172z" fill="#666666" /></svg>