<svg class="icon" style="width: 1em; height: 1em;vertical-align: middle;fill: currentColor;overflow: hidden;" viewBox="0 0 1024 1024" version="1.1" xmlns="http://www.w3.org/2000/svg"><path d="M596.68 884.6a27.64 27.64 0 0 1-19.58-47.22C756.55 658 756.63 366 577.17 186.66a27.69 27.69 0 1 1 39.16-39.16c200.9 201 200.9 528-0.07 729a27.63 27.63 0 0 1-19.58 8.1z" fill="#676767" /><path d="M596.68 884.6a27.64 27.64 0 0 1-19.58-47.22C756.55 658 756.63 366 577.17 186.66a27.69 27.69 0 1 1 39.16-39.16c200.9 201 200.9 528-0.07 729a27.63 27.63 0 0 1-19.58 8.1z" fill="#676767" /><path d="M596.68 884.6a27.64 27.64 0 0 1-19.58-47.22C756.55 658 756.63 366 577.17 186.66a27.69 27.69 0 1 1 39.16-39.16c200.9 201 200.9 528-0.07 729a27.63 27.63 0 0 1-19.58 8.1z" fill="#676767" /><path d="M455.17 743a27.64 27.64 0 0 1-19.58-47.15c101.35-101.42 101.35-266.33 0-367.61a27.69 27.69 0 0 1 39.16-39.16c122.8 122.87 122.8 322.91 0 445.78a27.7 27.7 0 0 1-19.58 8.14z" fill="#676767" /><path d="M455.17 743a27.64 27.64 0 0 1-19.58-47.15c101.35-101.42 101.35-266.33 0-367.61a27.69 27.69 0 0 1 39.16-39.16c122.8 122.87 122.8 322.91 0 445.78a27.7 27.7 0 0 1-19.58 8.14z" fill="#676767" /><path d="M455.17 743a27.64 27.64 0 0 1-19.58-47.15c101.35-101.42 101.35-266.33 0-367.61a27.69 27.69 0 0 1 39.16-39.16c122.8 122.87 122.8 322.91 0 445.78a27.7 27.7 0 0 1-19.58 8.14zM336.14 427.66l-75.46 75.46a12.55 12.55 0 0 0 0 17.75l75.45 75.45a119.4 119.4 0 0 0 0.01-168.66z" fill="#676767" /></svg>