<svg class="icon" style="width: 1.3330078125em; height: 1em;vertical-align: middle;fill: currentColor;overflow: hidden;" viewBox="0 0 1365 1024" version="1.1" xmlns="http://www.w3.org/2000/svg"><path d="M1148.29686 200.084249c-118.23666-116.511796-306.886728-120.629214-430.24234-9.472843-123.355612-111.156371-311.95004-107.038953-430.270161 9.472843-120.796136 119.210374-122.089784 313.758365-2.87941 434.554501l2.87941 2.893321L648.23925 994.718065a97.886044 97.886044 0 0 0 138.420353 1.224097l1.238008-1.224097 360.42707-356.87997c120.921328-119.099092 122.409719-313.647083 3.241075-434.540591l-3.268896-3.213255z m-22.08939 400.850098L747.349391 979.806336c-13.52071 13.645902-43.775385 12.79738-57.449106-0.778971l-0.208653-0.180833-378.969361-380.861147c-101.87827-100.556802-99.332705-268.828434 1.251918-370.706704l2.350823-2.378644c100.306418-97.635661 253.235105-106.079149 356.657407-11.768025l47.155562 38.406049 47.294664-38.406049C869.272253 119.307745 1021.783634 130.477632 1121.631016 228.62797c101.335773 101.057569 106.232161 270.275094 5.174593 371.680418a4.173059 4.173059 0 0 0-0.598139 0.625959z m0 0" fill="#858585" /><path d="M458.685019 247.504105a16.288839 16.288839 0 0 0-16.316659-16.34448 138.684647 138.684647 0 0 0-138.656827 138.656827 16.330569 16.330569 0 0 0 16.330569 16.330569 16.330569 16.330569 0 0 0 16.316659-16.330569 106.023509 106.023509 0 0 1 106.009599-106.023509 16.274928 16.274928 0 0 0 16.316659-16.288838z m0 0" fill="#858585" /></svg>