<svg class="icon" style="width: 1em; height: 1em;vertical-align: middle;fill: currentColor;overflow: hidden;" viewBox="0 0 1024 1024" version="1.1" xmlns="http://www.w3.org/2000/svg"><path d="M511.56906667 41.6c75.5776 0 144.02986667 30.65386667 193.58933333 80.20373333 49.55093333 49.5552 80.19946667 118.0064 80.19946667 193.5904 0 75.57973333-30.64746667 144.0608-80.19946667 193.59146667-12.41813333 12.41386667-26.00853333 23.63093333-40.608 33.47946667 57.84 21.87733333 109.7664 55.76 152.74346667 98.61226666 78.36906667 78.192 126.85226667 186.11626667 126.85226666 305.216 0 20.57066667-16.6944 37.26613333-37.29173333 37.26613334-20.56853333 0-37.26293333-16.6944-37.26293333-37.26613334 0-98.6752-40.0288-187.9584-104.736-252.49706666-64.68586667-64.51093333-154.0768-104.47573333-252.8416-104.60693334l-0.4448 0-0.02453334 0-0.4256 0c-98.80533333 0.1312-188.1952 40.096-252.86186666 104.60693334-64.70613333 64.53866667-104.736 153.82186667-104.736 252.49706666 0 20.57066667-16.6944 37.26613333-37.28746667 37.26613334-20.57386667 0-37.2672-16.6944-37.2672-37.26613334 0-119.09866667 48.48533333-227.024 126.87146667-305.216 42.93866667-42.85226667 94.86506667-76.73493333 152.70506666-98.61226666-14.58133333-9.84746667-28.17173333-21.0656-40.5856-33.47946667-49.53386667-49.53066667-80.18346667-118.01173333-80.18346666-193.59146667 0-75.584 30.6496-144.0352 80.18346666-193.5904C367.50826667 72.25386667 435.9648 41.6 511.56906667 41.6L511.56906667 41.6 511.56906667 41.6zM652.4352 174.52906667c-36.0448-36.04586667-85.86133333-58.37546667-140.8672-58.37546667-55.0112 0-104.84693333 22.3296-140.89066667 58.37546667-36.04586667 36.0448-58.3712 85.85493333-58.3712 140.86613333 0 55.01226667 22.32533333 104.8224 58.3712 140.8928 35.93706667 35.93386667 85.59893333 58.21866667 140.44053334 58.3488l0.4256 0 0.02453333 0 0.4256 0c54.8352-0.13013333 104.49493333-22.41493333 140.43733333-58.3488 36.04906667-36.0704 58.3744-85.8816 58.3744-140.8928C710.80533333 260.38293333 688.48 210.57386667 652.4352 174.52906667L652.4352 174.52906667zM652.4352 174.52906667" /></svg>