<svg class="icon" style="width: 1.25em; height: 1em;vertical-align: middle;fill: currentColor;overflow: hidden;" viewBox="0 0 1280 1024" version="1.1" xmlns="http://www.w3.org/2000/svg"><path d="M481.92 354.56 373.973333 470.186667 646.186667 725.333333 1162.026667 194.56 1067.733333 107.946667 644.053333 518.826667ZM245.973333 0c-70.826667 0-128 57.173333-128 128l0 768c0 70.826667 57.173333 128 128 128l768 0c70.826667 0 128-57.173333 128-128L1141.973333 410.453333l-128 124.16L1013.973333 853.333333c0 23.466667-19.2 42.666667-42.666667 42.666667l-682.666667 0c-23.466667 0-42.666667-19.2-42.666667-42.666667L245.973333 170.666667c0-23.466667 19.2-42.666667 42.666667-42.666667l538.88 0 114.773333-125.44L245.973333 0z" /></svg>