<svg class="icon" style="width: 1.25em; height: 1em;vertical-align: middle;fill: currentColor;overflow: hidden;" viewBox="0 0 1280 1024" version="1.1" xmlns="http://www.w3.org/2000/svg"><path d="M256 0C185.173333 0 128 57.173333 128 128l0 768c0 70.826667 57.173333 128 128 128l768 0c70.826667 0 128-57.173333 128-128L1152 128c0-70.826667-57.173333-128-128-128L256 0zM298.666667 896c-23.466667 0-42.666667-19.2-42.666667-42.666667L256 170.666667c0-23.466667 19.2-42.666667 42.666667-42.666667l682.666667 0c23.466667 0 42.666667 19.2 42.666667 42.666667l0 682.666667c0 23.466667-19.2 42.666667-42.666667 42.666667L298.666667 896z" /></svg>