<svg class="icon" style="width: 1em; height: 1em;vertical-align: middle;fill: currentColor;overflow: hidden;" viewBox="0 0 1024 1024" version="1.1" xmlns="http://www.w3.org/2000/svg"><path d="M908 796.66666667H386a36 36 0 0 1-36-36v-18a36 36 0 0 1 36-36h522a36 36 0 0 1 36 36v18a36 36 0 0 1-36 36z m0-252H386a36 36 0 0 1-36-36v-18a36 36 0 0 1 36-36h522a36 36 0 0 1 36 36v18a36 36 0 0 1-36 36z m0-252H386a36 36 0 0 1-36-36v-18a36 36 0 0 1 36-36h522a36 36 0 0 1 36 36v18a36 36 0 0 1-36 36zM224 796.66666667H116a36 36 0 0 1-36-36v-18a36 36 0 0 1 36-36h108a36 36 0 0 1 36 36v18a36 36 0 0 1-36 36z m0-252H116a36 36 0 0 1-36-36v-18a36 36 0 0 1 36-36h108a36 36 0 0 1 36 36v18a36 36 0 0 1-36 36z m0-252H116a36 36 0 0 1-36-36v-18a36 36 0 0 1 36-36h108a36 36 0 0 1 36 36v18a36 36 0 0 1-36 36z" /></svg>