<svg class="icon" style="width: 1.099609375em; height: 1em;vertical-align: middle;fill: currentColor;overflow: hidden;" viewBox="0 0 1126 1024" version="1.1" xmlns="http://www.w3.org/2000/svg"><path d="M951.46140018 887.11623273H196.03693305S136.4921875 897.03391944 136.4921875 817.0454129V168.61993687S137.3419986 96.90743594 210.85069208 96.90743594h265.1508399s31.27885663-6.75986426 58.27968524 34.65878916c25.75508252 39.59348992 40.10530792 64.54704494 40.10530791 64.54704494s10.18808119 11.39519961 30.85395148 10.95098021c-19.03384593 0.44421939 340.79371902 0 340.79371902 0s60.23038926-6.27701643 60.23038848 60.83877606v552.84099798s8.92302085 66.36255095-54.80318393 66.36255171z m-55.57573969-506.98980586a30.42904553 30.42904553 0 0 0-30.41938802-30.41938803H277.65746319a30.42904553 30.42904553 0 0 0-30.41938802 30.41938803v2.43355107a30.42904553 30.42904553 0 0 0 30.41938802 30.4193888h587.79915255a30.42904553 30.42904553 0 0 0 30.41938803-30.4193888v-2.43355107z" /></svg>