<svg class="icon" style="width: 1em; height: 1em;vertical-align: middle;fill: currentColor;overflow: hidden;" viewBox="0 0 1024 1024" version="1.1" xmlns="http://www.w3.org/2000/svg"><path d="M771.86843869 197.96534421H144.12718683A54.0750888 54.0750888 0 0 0 90.125 251.98575735v627.88705582a54.0750888 54.0750888 0 0 0 54.00218682 54.00218683h627.74125187a54.0750888 54.0750888 0 0 0 54.00218682-54.02041233V251.96753186a53.98396133 53.98396133 0 0 0-15.80151681-38.27357199 53.96573584 53.96573584 0 0 0-38.27357199-15.80151764zM520.50220095 679.24639548l-110.7382011 110.75642578a123.25912646 123.25912646 0 0 1-173.78024057 0l-2.07770801-2.07770801a123.33202844 123.33202844 0 0 1 0-173.81669155l77.54954617-77.44019322a173.14234826 173.14234826 0 0 0 12.46624887 67.17923082l-50.01080026 50.02902575a66.65069146 66.65069146 0 0 0 0 94.17121188l2.077708 2.09593351a66.63246597 66.63246597 0 0 0 94.1529864 0l110.73820028-110.73820029a66.65069146 66.65069146 0 0 0 0-94.17121189l-2.11415899-2.00480603a62.60462759 62.60462759 0 0 0-13.32284793-10.20628591l40.44240747-40.51530945a122.11091949 122.11091949 0 0 1 12.63027832 10.93530569l2.07770883 2.07770883a123.45960691 123.45960691 0 0 1-0.18225577 173.81669156z m161.49624665-161.53269763l-77.34906574 77.27616375a169.77062851 169.77062851 0 0 0-12.46624887-67.16100613l50.01080027-50.02902576a66.66891697 66.66891697 0 0 0 0-94.18943737l-2.11415982-2.00480604a66.43198471 66.43198471 0 0 0-93.97073062 0l-110.70175012 110.73820111a66.66891697 66.66891697 0 0 0 0 94.18943738l2.077708 2.07770802a64.66411093 64.66411093 0 0 0 13.32284876 10.22451141l-40.66111423 40.40595566a120.28836841 120.28836841 0 0 1-12.63027832-10.93530571l-2.07770801-2.077708a123.31380295 123.31380295 0 0 1 0-173.81669238l110.73820029-110.75642579a123.25912646 123.25912646 0 0 1 173.78024139 1e-8l2.04125702 2.13238448a123.22267548 123.22267548 0 0 1 0 174.01717283zM879.85458767 90.14322549H252.11333581a54.0750888 54.0750888 0 0 0-54.00218682 54.02041233v2.24173828h648.62768655a30.98336765 30.98336765 0 0 1 30.81933738 30.81933737v648.82816782h2.24173828a54.0750888 54.0750888 0 0 0 54.05686331-54.02041315V143.98138287A54.03863782 54.03863782 0 0 0 879.85458767 90.14322549z" /></svg>