<svg class="icon" style="width: 1em; height: 1em;vertical-align: middle;fill: currentColor;overflow: hidden;" viewBox="0 0 1024 1024" version="1.1" xmlns="http://www.w3.org/2000/svg"><path d="M890 812.66666667H134a72 72 0 0 1-72-72V372.56666667a72 72 0 0 1 72-72h142.866l93.708-102.6C396.458 172.10066667 406.448 146.66666667 434.852 146.66666667H602c28.404 0 61.506 35.658 77.148 51.228l93.708 102.6H890a72 72 0 0 1 72 72V740.66666667a72 72 0 0 1-72 72zM524.852 325.98266667a204.93 204.93 0 1 0 205.722 204.912 205.326 205.326 0 0 0-205.722-204.912z m0 358.614a153.702 153.702 0 1 1 154.278-153.684 153.99 153.99 0 0 1-154.278 153.684zM139.058 210.74666667H242v50.94H139.058v-50.94z" /></svg>