<svg class="icon" style="width: 1.03125em; height: 1em;vertical-align: middle;fill: currentColor;overflow: hidden;" viewBox="0 0 1056 1024" version="1.1" xmlns="http://www.w3.org/2000/svg"><path d="M556.28257555 784.23628193l3.38143359-54.56684345-0.81443051 0.43298794 13.21645386-153.17478946 0.38144256 0.26804059L845.26107479 168.07321558V90.16623663H129.03645833v843.70876337h716.22461646V525.80408124L732.12739986 692.81388064l-175.84482431 91.42240128zM240.0258102 273.66052152l448.95739169 0.16494818-0.05154621 44.39161724-448.96770126-0.16494817 0.06185578-44.39161725z m0 179.05100014l345.86492266 0.15463862v44.4534722l-345.92677844-0.21649439 0.06185578-44.39161642z m255.23633358 223.71065635l-255.23633358-0.16494818v-44.5050184l255.28787978 0.21649438-0.0515462 44.39161725z"  /><path d="M879.23004273 166.66084893l-42.02049023 63.70083601 6.25771308 4.15462664-0.54638993 0.81443051 2.34019914 1.63916978v-1.30927424l112.68006783 75.1234823 42.02049024-63.70083682-120.73159013-80.42243418zM819.05496937 258.95953567l120.64911604 80.39150712-201.45299277 305.00937762-120.65942561-80.39150711 201.46330234-305.00937763zM596.28245345 591.62862281l-11.80408723 148.10264072 132.32949253-67.08226961-120.5254053-81.02037111z"  /></svg>