<svg class="icon" style="width: 1em; height: 1em;vertical-align: middle;fill: currentColor;overflow: hidden;" viewBox="0 0 1024 1024" version="1.1" xmlns="http://www.w3.org/2000/svg"><path d="M917.5 341.4C894.4 288 863 241.9 823.1 201c-39.9-39.8-86-71.2-139.5-94.3-53.5-23-110.1-34.6-171-34.6s-118.5 11.5-172 34.6c-53.5 23-99.6 54.5-139.5 94.3-39.9 39.8-71.3 87-94.4 140.4-23.1 53.4-34.6 110-34.6 170.8 0 60.8 11.5 117.3 34.6 170.8 23.1 53.4 54.5 99.5 94.4 140.4 39.9 39.8 86 71.2 139.5 94.3 53.5 23 111.2 34.6 172 34.6s117.5-11.5 171-34.6c53.5-23 99.6-54.5 139.5-94.3 39.9-39.8 71.3-87 94.4-140.4 23.1-53.4 34.6-110 34.6-170.8 0-60.8-11.5-117.4-34.6-170.8zM813.9 590.1H489.5c-32.4 0-54.1-21.6-54.1-54.1V211.6c0-32.4 21.6-54.1 54.1-54.1s54.1 21.6 54.1 54.1V482h270.3c32.4 0 54.1 21.6 54.1 54.1 0 32.4-21.6 54-54.1 54z" fill="" /></svg>