<svg class="icon" style="width: 1em; height: 1em;vertical-align: middle;fill: currentColor;overflow: hidden;" viewBox="0 0 1024 1024" version="1.1" xmlns="http://www.w3.org/2000/svg"><path d="M917.5 341.4C894.4 288 863 241.9 823.1 201c-39.9-39.8-86-71.2-139.5-94.3-53.5-23-110.1-34.6-171-34.6s-118.5 11.5-172 34.6c-53.5 23-99.6 54.5-139.5 94.3-39.9 39.8-71.3 87-94.4 140.4-23.1 53.4-34.6 110-34.6 170.8 0 60.8 11.5 117.3 34.6 170.8 23.1 53.4 54.5 99.5 94.4 140.4 39.9 39.8 86 71.2 139.5 94.3 53.5 23 111.2 34.6 172 34.6s117.5-11.5 171-34.6c53.5-23 99.6-54.5 139.5-94.3 39.9-39.8 71.3-87 94.4-140.4 23.1-53.4 34.6-110 34.6-170.8 0-60.8-11.5-117.4-34.6-170.8zM771.4 671.2c0 22-12.5 40-27.7 40H279c-15.3 0-27.7-18-27.7-40s12.5-40 27.7-40h464.6c15.3 0 27.8 18 27.8 40z m0-160c0 22-12.5 40-27.7 40H279c-15.3 0-27.7-18-27.7-40s12.5-40 27.7-40h464.6c15.3 0 27.8 18 27.8 40z m0-160c0 22-12.5 40-27.7 40H279c-15.3 0-27.7-18-27.7-40s12.5-40 27.7-40h464.6c15.3 0 27.8 18 27.8 40z" fill="" /></svg>