<svg class="icon" style="width: 1em; height: 1em;vertical-align: middle;fill: currentColor;overflow: hidden;" viewBox="0 0 1024 1024" version="1.1" xmlns="http://www.w3.org/2000/svg"><path d="M894.90276 111.851461h-768.31876c-35.359322 0-64.026222 28.636201-64.026222 64.025199v512.181125c0 35.361369 28.6669 64.027246 64.026222 64.027245h320.132134v96.04138H286.648532c-17.663288 0-32.014134 14.349823-32.014134 32.013111v32.009018h512.213871v-32.009018c0-17.663288-14.349823-32.013111-32.014135-32.013111H574.767556v-96.04138h320.134181c35.358299 0 64.027246-28.665877 64.027245-64.027245V175.87666c0-35.390022-28.667923-64.025199-64.027245-64.025199h0.001023zM478.730269 688.059831c0-17.663288 14.3488-32.011064 32.013111-32.011064 17.662265 0 32.012088 14.3488 32.012088 32.011064 0 17.697057-14.349823 32.04688-32.012088 32.046881-17.664312-0.002047-32.013111-14.350846-32.013111-32.046881z m-352.148316-64.027245V175.87666h768.31876v448.155926h-768.31876z" /></svg>