<svg class="icon" style="width: 1.2158203125em; height: 1em;vertical-align: middle;fill: currentColor;overflow: hidden;" viewBox="0 0 1245 1024" version="1.1" xmlns="http://www.w3.org/2000/svg"><path d="M788.871209 478.458186a269.09632 269.09632 0 1 0-330.130322 6.318498c-156.259595 54.715505-271.96429 201.56457-271.964291 485.538488 0 46.873397 15.863463 53.057459 185.880356 53.057459 60.630694 0 140.933876-0.806617 247.093606-0.806616 127.938383 0 220.699313 1.433985 287.827754 1.433985 149.403352 0 171.674938-7.169927 171.674937-53.684828 0-302.122796-108.803641-444.176973-290.38204-491.856986zM619.750558 80.70649a188.61389 188.61389 0 0 1 188.38983 188.38983 188.658702 188.658702 0 0 1-188.38983 188.389829 188.658702 188.658702 0 0 1-188.345018-188.389829 188.61389 188.61389 0 0 1 188.345018-188.38983z m287.827754 862.542208c-28.007527 0-60.54107-0.22406-98.183187-0.537744-52.609339-0.403308-115.166951-0.941053-189.599755-0.941053-60.630694 0-112.836725 0.268872-157.783204 0.492932-33.743469 0.179248-63.364229 0.313684-89.310402 0.313684-24.601812 0-72.37145 0-104.680933-2.016542 8.379852-262.329701 129.596429-400.754103 351.774539-400.754102 191.257801 0 368.579056 49.293248 378.258457 401.426283-29.800009 2.016542-72.864382 2.016542-90.475515 2.016542z m0 0" fill="#1374BC" /><path d="M290.516476 540.522866h10.396394c20.747976-5.153385 31.099558-20.747976 31.099558-41.495953 0-20.792788-10.351582-36.342567-31.099558-41.495952a131.164851 131.164851 0 0 1-77.793707-119.334471c0-62.28874 36.297755-108.982889 93.343486-129.775677a275.818126 275.818126 0 0 1 41.540764-77.838519c0-5.153385 5.198197-10.351582 10.351582-15.549779h-10.351582A221.50593 221.50593 0 0 0 134.88425 338.151678c0 57.045731 20.747976 108.938077 57.045731 150.434029A349.085817 349.085817 0 0 0 0 799.984596v67.442125c0 25.946173 20.747976 46.694149 46.694149 46.694149h77.793707c0-31.099558 5.243009-62.28874 10.396394-88.190101H88.234913v-25.946173c0-124.532668 82.947092-228.31736 202.281563-259.46173m762.7906-57.045732a226.076758 226.076758 0 0 0 57.045731-150.478841c0-119.334471-98.586495-223.119163-223.119163-223.119163h-10.351582c5.153385 10.30677 10.351582 15.549779 10.351582 20.747976 15.549779 25.946173 31.099558 51.892346 41.540764 77.793707 51.847534 15.594591 93.343486 67.486937 93.343486 124.532668a131.075226 131.075226 0 0 1-77.793707 119.334471c-15.549779 5.198197-31.099558 20.747976-31.099558 41.495952 0 20.792788 15.594591 36.387379 31.099558 41.540765h10.396394c119.289659 31.099558 202.326375 134.929062 202.326375 254.263533v25.946173h-46.694149c5.153385 31.099558 10.351582 57.045731 10.351582 88.234913h77.838519c25.946173 0 46.694149-20.792788 46.694149-46.694149V789.588202c0.044812-124.532668-77.793707-243.867139-191.929981-306.111068m0 0" fill="#1374BC" /></svg>