<svg class="icon" style="width: 1em; height: 1em;vertical-align: middle;fill: currentColor;overflow: hidden;" viewBox="0 0 1024 1024" version="1.1" xmlns="http://www.w3.org/2000/svg"><path d="M940.169981 91.335028zM600.067882 1024h-265.579774a7.551425 7.551425 0 0 1 0-15.10285h265.579774a7.551425 7.551425 0 0 1 0 15.10285z m-26.269999-921.945788a18.795369 18.795369 0 0 1-18.270609-14.590889l-14.910864-64.251107a18.798568 18.798568 0 1 1 36.605212-8.575347l14.910864 64.283105a18.856164 18.856164 0 0 1-14.04693 22.622277 18.040226 18.040226 0 0 1-4.287673 0.511961z m209.104075 165.71538a18.587384 18.587384 0 0 1-3.743715-0.383971l-64.443092-13.055006a18.846565 18.846565 0 0 1 7.423435-36.957185l64.475089 13.055005a18.878562 18.878562 0 0 1-3.711717 37.341157z m-102.744175-129.590131a18.728174 18.728174 0 0 1-14.494896-6.847479 18.932958 18.932958 0 0 1 2.527807-26.557977l55.259792-45.820511a18.833766 18.833766 0 0 1 23.934177 29.085785l-55.259792 45.820511a18.849764 18.849764 0 0 1-11.967088 4.319671z m181.490178 832.768579H418.577704l310.568348-112.951398a77.021334 77.021334 0 0 0 45.916503-98.488499l-20.126467-55.739755a13.157398 13.157398 0 1 0-24.734117 8.991315l20.126468 55.739755a50.514553 50.514553 0 0 1-30.141705 64.667075L370.677352 960.324849a50.332167 50.332167 0 0 1-64.47509-30.269695L113.096968 395.375874a50.655342 50.655342 0 0 1 30.173702-64.699073l349.477385-127.126319a50.332167 50.332167 0 0 1 64.47509 30.269695l78.873993 219.15131a13.154198 13.154198 0 1 0 24.734116-8.959317l-78.873993-219.183308a76.541371 76.541371 0 0 0-98.168524-46.076491L134.311352 305.878689a77.034133 77.034133 0 0 0-45.9485 98.4885l193.137291 534.679281a76.68216 76.68216 0 0 0 56.571692 49.052264 9.042511 9.042511 0 0 0 5.055615 1.503886h6.5595c1.3119 0.095993 2.591803 0.12799 3.903703 0.12799s2.6238-0.031998 3.903702-0.12799H861.647961a9.32729 9.32729 0 0 0 0-18.65458z m-91.25705-564.597002l-20.414445-11.135152c-8.159379-4.447661-19.838489 1.343898-26.110012 12.895018l-170.003053 314.472051a9.045711 9.045711 0 0 0-1.087917 4.351668l1.119914 34.781352a5.308396 5.308396 0 0 0-1.56788 0.351973l-52.827977 19.742496a5.676368 5.676368 0 0 0 1.983849 10.975164 5.295597 5.295597 0 0 0 1.951851-0.38397l50.844128-19.006553v0.415968a4.022094 4.022094 0 0 0 6.527503 3.55173l39.996954-24.28615a8.677739 8.677739 0 0 0 3.039768-3.29575l170.003054-314.440053c6.239525-11.583118 4.703642-24.574129-3.455737-28.989792zM390.355853 822.639335L351.606804 837.134231a5.64757 5.64757 0 0 0-3.295749 7.263447 5.564376 5.564376 0 0 0 5.279598 3.67972 5.2508 5.2508 0 0 0 1.951851-0.351974l38.749049-14.494896a5.65077 5.65077 0 1 0-3.9357-10.591193z m80.985832-30.301692l-52.795979 19.774494a5.64757 5.64757 0 0 0 1.951851 10.943166 5.413988 5.413988 0 0 0 1.983849-0.351973l52.79598-19.742496a5.663569 5.663569 0 0 0-3.935701-10.623191z m-155.444162-87.417343a5.64757 5.64757 0 0 1-1.951851-10.943167l33.117478-12.415054a5.663569 5.663569 0 0 1 3.9357 10.623191l-33.117478 12.383057a5.301996 5.301996 0 0 1-1.983849 0.351973z m61.307331-22.910255a5.669968 5.669968 0 0 1-1.951851-10.975165l52.795979-19.742496a5.65077 5.65077 0 1 1 3.935701 10.591193L379.188703 681.626074a5.461984 5.461984 0 0 1-1.983849 0.383971z m80.985833-30.301693a5.653969 5.653969 0 0 1-1.983849-10.943166l52.827977-19.774494a5.65077 5.65077 0 0 1 3.9357 10.591193l-52.827977 19.774494a5.989944 5.989944 0 0 1-1.951851 0.351973z m80.953835-30.301692a5.64757 5.64757 0 0 1-1.951852-10.943167l52.79598-19.742496a5.621972 5.621972 0 0 1 7.263446 3.295749 5.685967 5.685967 0 0 1-3.327746 7.295444l-52.795979 19.742497a5.301996 5.301996 0 0 1-1.983849 0.351973z" /></svg>