<svg class="icon" style="width: 1em; height: 1em;vertical-align: middle;fill: currentColor;overflow: hidden;" viewBox="0 0 1024 1024" version="1.1" xmlns="http://www.w3.org/2000/svg"><path d="M722.9375 681.171875V786.21875a42.1875 42.1875 0 0 1-42.1875 42.1875H132.3125a42.1875 42.1875 0 0 1-42.1875-42.1875V237.78125a42.1875 42.1875 0 0 1 42.1875-42.1875h548.4375a42.1875 42.1875 0 0 1 42.1875 42.1875v105.4265625L933.875 258.875v506.25l-210.9375-83.953125zM891.6875 322.15625l-210.9375 84.375V279.96875a42.1875 42.1875 0 0 0-42.1875-42.1875H174.5a42.1875 42.1875 0 0 0-42.1875 42.1875v464.0625a42.1875 42.1875 0 0 0 42.1875 42.1875h464.0625a42.1875 42.1875 0 0 0 42.1875-42.1875v-126.5625l210.9375 84.375V322.15625z m-548.4375 63.28125l210.9375 126.5625-210.9375 126.5625V385.4375z m42.1875 189.84375l105.46875-63.28125-105.46875-63.28125v126.5625z" fill="#89D9C6" /></svg>