<svg class="icon" style="width: 1em; height: 1em;vertical-align: middle;fill: currentColor;overflow: hidden;" viewBox="0 0 1024 1024" version="1.1" xmlns="http://www.w3.org/2000/svg"><path d="M844.137412 302.742588C844.137412 135.529412 685.778824 0 509.831529 0 333.824 0 179.862588 135.529412 179.862588 302.742588c0 155.045647 326.294588 526.275765 326.294588 526.275765s337.92-366.049882 337.92-526.275765z m-439.476706 10.721883c0-57.223529 49.633882-103.604706 110.71247-103.604706 61.199059 0 110.772706 46.381176 110.772706 103.604706s-49.633882 103.604706-110.772706 103.604705c-61.078588 0-110.712471-46.381176-110.71247-103.604705z m216.786823 524.649411a25.298824 25.298824 0 0 1 1.445647 8.252236c0 28.611765-49.633882 51.802353-110.772705 51.802353-61.078588 0-110.712471-23.190588-110.712471-51.802353 0-2.831059 0.481882-5.601882 1.445647-8.312471-67.041882 11.926588-112.158118 34.334118-112.158118 60.114824 0 38.249412 99.147294 69.089882 221.424942 69.089882 122.277647 0 221.485176-30.840471 221.485176-69.089882-0.060235-25.780706-45.176471-48.188235-112.158118-60.114824z" fill="#F23C3C" /></svg>