<svg t="1611662462103" class="icon" style="width: 1em;height: 1em;vertical-align: middle;fill: currentColor;overflow: hidden;" viewBox="0 0 1024 1024" version="1.1" xmlns="http://www.w3.org/2000/svg" p-id="6697"><path d="M117.92967901 698.32312023h-19.05631516v-19.05631516a4.75046702 4.75046702 0 0 0-4.79130173-4.79130231 4.75046702 4.75046702 0 0 0-4.79130232 4.79130231v19.05631518h-19.05631516a4.75046702 4.75046702 0 0 0-4.79130173 4.79130172 4.75046702 4.75046702 0 0 0 4.79130173 4.79130232h19.05631516v19.05631518a4.76407879 4.76407879 0 0 0 4.79130232 4.79130172 4.76407879 4.76407879 0 0 0 4.79130173-4.79130172v-19.05631518h19.05631515a4.76407879 4.76407879 0 0 0 4.79130234-4.79130232 4.76407879 4.76407879 0 0 0-4.79130234-4.79130172z m828.13300416-368.15439466h-17.6951497v-17.6951497a4.79130233 4.79130233 0 0 0-9.52815759 0v17.6951497h-17.69514971a4.79130233 4.79130233 0 1 0 0 9.52815759h17.69514971v17.69514973a4.79130233 4.79130233 0 0 0 9.52815759 0V339.86022318h17.6951497a4.8457488 4.8457488 0 0 0 0-9.69149761zM757.86796065 632.02075545a6.99639023 6.99639023 0 0 0-3.67514631-2.72233091l-22.62256853 14.71419761a7.06444848 7.06444848 0 0 0 1.11615603 4.4510111l19.72328582 30.42204531L777.63208179 662.61975254z m0 0M589.36930101 568.22293509c27.781385 42.7950391 86.06648591 54.25605103 130.20907811 25.60352062s57.3867314-86.55650539 29.60534639-129.31070918-86.08009708-54.25605103-130.20907811-25.60352065-57.3867314 86.55650539-29.61895816 129.31070921z m0 0M816.58863455 685.17426282a7.22778789 7.22778789 0 0 0-10.03178881-2.12341788l-36.88758137 23.95651043a7.22778789 7.22778789 0 0 0-2.10980612 10.05901176l54.99108051 84.66448516a7.22778789 7.22778789 0 0 0 10.03178882 2.12341789l36.8739696-23.95650985a7.22778789 7.22778789 0 0 0 2.12341789-10.03178881z m0 1e-8" fill="#8a8a8a" p-id="6698"></path><path d="M147.2355689 288.04065772a12.5907797 12.5907797 0 0 0 12.59077969 12.5907797 12.5907797 12.5907797 0 0 0 12.59077971-12.5907797 12.5907797 12.5907797 0 0 0-12.59077971-12.59077969 12.5907797 12.5907797 0 0 0-12.59077969 12.59077969z m0 0M948.85307232 632.36104668a16.60621723 16.60621723 0 1 1 16.61982897-16.60621724 4.79130233 4.79130233 0 0 0 9.5281576 0A26.29771483 26.29771483 0 1 0 948.70334408 642.05254428a4.8457488 4.8457488 0 0 0 0.10889355-9.6914976z m-170.1592816 83.34415501a2.42559664 2.42559664 0 1 0-4.01543752 2.72233089l10.88932244 16.71511077a2.49093265 2.49093265 0 0 0 2.00091317 1.11615543 2.15064143 2.15064143 0 0 0 1.36116546-0.44918476 2.35481616 2.35481616 0 0 0 0.66697126-3.34846685z m219.14762259 90.92584588h-39.0790575a4.79130233 4.79130233 0 0 0 0 9.52815758h39.10628103a4.79130233 4.79130233 0 0 0 0-9.52815758z m0 0" fill="#8a8a8a" p-id="6699"></path><path d="M919.43828889 806.63104757h-80.24069818l31.53820192-20.49915003a12.08714847 12.08714847 0 0 0 3.53902981-16.71511078l-60.8440918-93.82512799a12.16881849 12.16881849 0 0 0-14.22417812-4.80491409 13.61165335 13.61165335 0 0 0-1.22504837-2.5589909l-4.79130235-7.3502926a12.12798318 12.12798318 0 0 0-7.6905844-5.2404865 11.82852726 11.82852726 0 0 0-6.24774897 0.34029122l-17.38208144-26.74689959a12.25048849 12.25048849 0 0 0 1.22504897-14.70058583l-4.79130233-7.35029263-1.36116544-1.67423372h9.02452633c37.89484384 0 68.64356918-29.19699693 68.64356917-65.06370405V271.55694521C834.61046371 235.67662633 803.86173835 206.4796294 765.96689452 206.4796294H351.70982919c-37.88123207 0-68.64356918 29.19699693-68.64356857 65.07731581v269.21128491c0 35.88031889 30.74872535 65.07731581 68.64356857 65.07731581h211.93344647a132.63195252 132.63195252 0 0 0 93.48483677 37.89484326 136.38876883 136.38876883 0 0 0 51.08453596-9.93650706 11.88297374 11.88297374 0 0 0 1.78312668 5.00908823l4.79130232 7.35029322a12.15520671 12.15520671 0 0 0 7.69058384 5.24048649 9.99095351 9.99095351 0 0 0 2.55899088 0.2177865 10.6851483 10.6851483 0 0 0 3.67514691-0.66697068l17.38208143 26.746899a12.25048849 12.25048849 0 0 0-1.22504896 14.70058585l4.79130232 7.3502932a16.14342129 16.14342129 0 0 0 1.78312668 2.10980613 12.10076023 12.10076023 0 0 0-1.44283546 14.97281882l58.27148913 89.83691399H129.17290505a4.75046702 4.75046702 0 0 0-4.79130235 4.79130173 4.75046702 4.75046702 0 0 0 4.79130234 4.79130231h790.26538385a4.79130233 4.79130233 0 0 0 0-9.52815758zM351.70982919 596.14043657c-32.53185203 0-58.93845982-24.84126759-58.9384598-55.37220645V271.55694521c-0.01361177-30.53093886 26.50188956-55.39942998 58.9384598-55.39942997h414.39318183c32.54546379 0 58.95207158 24.85487936 58.95207217 55.3858182v269.22489668c0 30.53093886-26.5291131 55.37220704-58.95207217 55.37220645h-4.23322403a136.22542881 136.22542881 0 0 0 30.87123006-60.1090623 130.0457381 130.0457381 0 0 0-102.22351837-157.62294836 139.91418749 139.91418749 0 0 0-151.21185939 74.86409459H372.53565927a4.79130233 4.79130233 0 0 0 0 9.5281576h162.46869717a132.79529253 132.79529253 0 0 0 11.03905128 121.23899822 117.48218192 117.48218192 0 0 0 8.79312809 11.92380905H351.70982919z m202.47334713-17.16429494A120.3950758 120.3950758 0 0 1 538.06697855 485.83159607a130.19546634 130.19546634 0 0 1 126.03030059-100.29066345 121.89235775 121.89235775 0 0 1 24.62348169 2.45009735 120.29979462 120.29979462 0 0 1 94.60099219 145.86247993 128.33067026 128.33067026 0 0 1-55.71249826 79.23343571c-58.61178036 38.11263033-136.49766237 22.73146147-173.37163136-34.0971922z m172.16019476 62.61360612a2.27314614 2.27314614 0 0 1-1.78312667 0.34029181 2.83122386 2.83122386 0 0 1-1.56534017-0.99365071l-4.79130174-7.35029321a2.55899089 2.55899089 0 0 1 0.66697066-3.34846687l28.0808415-18.15794564a2.96734034 2.96734034 0 0 1 1.36116547-0.3402912 2.24592261 2.24592261 0 0 1 2.01452434 1.11615541l4.79130233 7.35029262a2.55899089 2.55899089 0 0 1-0.66697127 3.3348551z m10.69875949 4.57351583l17.04179081-11.03905129 16.82400373 25.95742361-17.05540199 11.06627424z m15.9256348 40.95746595a2.57260266 2.57260266 0 0 1 0.66697126-3.34846686l28.0808415-18.10349976a2.01452494 2.01452494 0 0 1 1.36116486-0.34029122h0.5580783a2.81761209 2.81761209 0 0 1 1.55172843 1.00726248l4.79130173 7.35029321a2.27314614 2.27314614 0 0 1 0.3402912 1.78312667 2.81761209 2.81761209 0 0 1-1.00726187 1.56533958l-14.03361517 9.1334199-14.07444987 9.11980813a2.55899089 2.55899089 0 0 1-3.33485509-0.66697125z m66.07096652 118.21721083l-60.95298475-93.71623444a2.55899089 2.55899089 0 0 1 0.66697125-3.33485511l7.58169089-4.90019527 14.0200034-9.18786637L801.86082518 680.16517399a2.00091318 2.00091318 0 0 1 1.36116545-0.34029122h0.55807772a2.83122386 2.83122386 0 0 1 1.56534018 1.00726249L866.10783033 774.65727325a2.57260266 2.57260266 0 0 1-0.66697128 3.34846686l-32.53185202 21.05722834-29.75507463-45.80321415a2.38203909 2.38203909 0 0 0-3.34846687-0.66697127 2.35481616 2.35481616 0 0 0-0.66697126 3.3348551l29.80952173 45.80321417-6.57442902 4.2332246a2.32759263 2.32759263 0 0 1-3.34846684-0.5580777z m-753.81337549 1.22504896H28.33777505A4.75046702 4.75046702 0 0 0 23.54647332 811.35429164a4.75046702 4.75046702 0 0 0 4.79130175 4.79130175h36.88758133a4.75046702 4.75046702 0 0 0 4.79130173-4.79130174 4.75046702 4.75046702 0 0 0-4.79130173-4.79130233z m0 0" fill="#8a8a8a" p-id="6700"></path><path d="M157.03596005 668.56804559c0 29.30588988 24.50097638 53.26240032 54.71884695 53.26240033h36.75146488l0.77586421 58.84317863 84.70532046-51.35676893a45.62626297 45.62626297 0 0 1 25.18155882-7.47279793h176.61120527c30.19064764 0 54.70523578-23.8476169 54.70523579-53.26240092a4.79130233 4.79130233 0 1 0-9.52815758 0c0 24.06540339-20.17247059 43.55729154-45.01373817 43.55729155H359.06012241a55.44026528 55.44026528 0 0 0-30.29954117 8.9156334l-70.10001582 42.4547473-0.66697125-51.3703807h-46.36129188c-24.84126759 0-45.01373818-19.50549932-45.01373819-43.55729155V466.88417445c0-24.06540339 20.17247059-43.55729154 45.01373819-43.55729155h30.20425939a4.79130233 4.79130233 0 1 0 0-9.52815758h-30.20425939C181.44165465 413.73066707 156.94067827 437.57828398 156.94067827 466.9930674v201.57497819z m215.49969921-307.09251696h378.30868822a4.79130233 4.79130233 0 1 0 0-9.52815759H372.53565927a4.79130233 4.79130233 0 1 0 0 9.52815759z m369.50194836 214.94162211c2.00091318-2.45009794 4.01543753-4.90019527 5.7985642-7.45918616a4.87569457 4.87569457 0 1 0-7.90837033-5.70328302 112.25530721 112.25530721 0 0 1-5.24048648 6.80582667 103.31245086 103.31245086 0 0 1-22.17338376 19.50549994c-45.46292294 29.52367638-105.64004347 17.69514971-134.26535095-26.29771483a93.02204085 93.02204085 0 0 1-12.48188674-72.14176431 100.6173435 100.6173435 0 0 1 116.665483-75.7760753 93.34872029 93.34872029 0 0 1 60.72158649 40.83496064 92.35506958 92.35506958 0 0 1 14.60530464 58.72067391 4.8607217 4.8607217 0 1 0 9.69149701 0.77586422 101.76072246 101.76072246 0 0 0-16.15703246-64.84591816 102.89048964 102.89048964 0 0 0-66.96933605-45.01373817 110.13188932 110.13188932 0 0 0-127.94954373 83.1263685 102.53658666 102.53658666 0 0 0 13.81582867 79.45122221c19.83217938 30.53093886 53.26240032 47.02826313 87.91767023 47.02826311a110.14550107 110.14550107 0 0 0 59.8912758-17.83126619 108.89322857 108.89322857 0 0 0 24.065404-21.1661213z m0 0" fill="#8a8a8a" p-id="6701"></path></svg>