<svg class="icon" style="width: 1em; height: 1em;vertical-align: middle;fill: currentColor;overflow: hidden;" viewBox="0 0 1024 1024" version="1.1" xmlns="http://www.w3.org/2000/svg"><path d="M828.10330863 443.81469388c5.18459701 24.03767705 7.54123201 48.5466811 7.06990501 73.21279413-1.09976302-18.53886205-3.45639799-36.92061508-7.38412302-54.9881501 0.31421799-6.441469 0.47132701-12.56872002 0.31421801-18.22464403zM597.46729616 846.48506166c-1.72819901-8.79810401-9.58364903-13.51137403-23.88056803-9.74075801 11.46895703-48.5466811 16.96777203-75.72653814 40.84834007-96.46492621 34.40687107-29.85071007 4.08483399-63.15781813-22.15236903-59.2300931-20.73838803 3.14217999-7.54123201-25.60876705-26.08009407-27.17985708-18.38175303-1.57108999-42.57653909-38.17748707-69.12796013-50.90331608-14.13981003-6.59857803-27.96540207-24.50900404-49.64644411-25.45165806-19.16729804-0.78554501-47.28980909 16.33933604-47.28980908 3.14218002 0-42.26232108-4.24194301-72.42724913-5.18459702-84.36753317-0.78554501-9.74075802-6.28436002-3.29928901 19.63862506-2.670853 14.13981003 0.31421799 7.22701402-28.43672906 21.20971504-29.53649206 13.66848304-1.09976302 46.50426407 12.88293803 54.83104109 7.384123 7.85545002-5.18459701 57.0305671 129.30070725 57.03056712 22.15236906 0-12.72582902-6.59857803-34.72108908 0-46.8184821 26.08009405-47.60402709 50.4319891-86.25284116 48.2324631-92.06587417-1.25687199-3.14217999-26.70853004-5.81303301-46.97559109 0.94265398-6.91279601 2.35663501 2.19952601 13.04004703-7.69834102 15.39668204-36.92061508 8.48388603-69.44217814-9.89786702-58.13033011-27.33696606 11.62606602-17.75331703 54.0454961-7.69834101 57.8161121-43.51919309 2.19952601-20.42417004 3.92772502-44.14762909 5.02748802-61.74383712 49.64644411 7.69834101 44.14762909-64.41469013-29.69360106-72.11303113 149.4106593 1.72819901 275.88340455 98.19312518 322.38766864 232.04999346-2.19952601-2.19952601-5.18459701-3.45639799-8.32677702-3.77061601-22.30947806-55.77369511-76.51208316-15.39668203-58.13033011 33.77843506-98.5073432 75.72653814-73.21279417 128.51516225-40.84834008 158.68009032 16.96777203 15.86800901 33.30710806 39.74857708 43.83341109 56.87345812-11.46895703 33.62132607 42.41943008 20.10995203 68.97085112-36.76350609-33.77843506 118.14596825-127.72961725 209.11207941-246.66113049 239.27700748z m-144.85449827 5.498815c-162.29359733-28.27962006-285.62416257-169.83482934-285.62416258-339.98387666 0-24.35189504 2.51374401-48.23246309 7.38412303-71.17037714 14.92535503 15.86800901 50.11777109 15.55379103 58.60165712-8.326777 15.39668203 9.11232202 35.97796108 10.84052103 35.97796106 29.06516504 0 60.32985613 2.19952601 125.05876425 57.03056711 126.00141824 1.57108999 0 30.47914606 10.99763002 44.30473809 46.8184821 4.71327001 12.41161103 23.72345905 0 44.46184708 0 10.36919402 0 0 17.43909904 0 55.14525911 0 37.54905107 80.91113516 95.36516319 80.91113516 95.3651632-0.31421799 24.82322205 0.628436 44.93317409 2.670853 60.95829211-18.22464404-0.47132701-33.62132607 1.885308-45.71871907 6.127251zM512 134.93839925c-208.32653442 0-377.06160075 168.73506633-377.06160075 376.74738276 0 192.14430737 144.06895328 350.8243977 330.08600967 373.91942072 10.52630302 2.19952601 23.25213204 3.45639799 38.49170505 3.45639802 4.24194301 0 8.326777-0.31421799 12.41161105-0.62843601C722.36895142 886.23363874 889.06160075 718.44122641 889.06160075 511.68578201 889.06160075 303.67346558 720.32653442 134.93839925 512 134.93839925z" fill="#eaeaea" /></svg>