<svg class="icon" style="width: 1em; height: 1em;vertical-align: middle;fill: currentColor;overflow: hidden;" viewBox="0 0 1024 1024" version="1.1" xmlns="http://www.w3.org/2000/svg"><path d="M490.123636 588.334545h-2.792727a221.090909 221.090909 0 1 1 208.058182-93.090909 23.272727 23.272727 0 0 1-38.632727-26.065454 174.545455 174.545455 0 1 0-164.305455 75.403636 23.272727 23.272727 0 0 1-2.327273 46.545455z" fill="#1B37A8" /><path d="M906.705455 966.283636h-791.272728a23.272727 23.272727 0 0 1-18.152727-35.374545l192.232727-333.265455a23.272727 23.272727 0 0 1 31.650909-8.378181 388.189091 388.189091 0 0 0 381.207273 0 23.272727 23.272727 0 0 1 31.650909 8.378181L926.72 930.909091a23.272727 23.272727 0 0 1-20.014545 34.909091z m-748.916364-46.545454h708.421818l-161.047273-279.272727a434.734545 434.734545 0 0 1-386.792727 0z" fill="#1B37A8" /><path d="M512 870.865455a125.207273 125.207273 0 0 1-107.52-60.509091l-114.501818-188.509091 39.563636-24.203637 114.967273 188.509091a79.127273 79.127273 0 0 0 67.956364 38.167273 79.127273 79.127273 0 0 0 67.956363-38.167273l114.036364-186.181818 40.029091 24.203636-114.036364 186.181819a125.207273 125.207273 0 0 1-108.450909 60.509091z" fill="#1B37A8" /><path d="M818.734545 363.985455h-46.545454a259.723636 259.723636 0 1 0-519.447273 0h-46.545454a306.269091 306.269091 0 1 1 612.538181 0z" fill="#FFB718" /><path d="M228.538182 431.941818A40.029091 40.029091 0 0 1 186.181818 391.912727v-35.374545a40.029091 40.029091 0 0 1 80.058182 0v35.374545a40.029091 40.029091 0 0 1-37.701818 40.029091zM795.461818 421.701818a40.029091 40.029091 0 0 1-40.029091-40.029091v-35.374545a40.029091 40.029091 0 0 1 80.058182 0v35.374545a40.029091 40.029091 0 0 1-40.029091 40.029091z" fill="#FFB718" /><path d="M597.643636 585.076364v-46.545455a175.010909 175.010909 0 0 0 174.545455-174.545454h46.545454a221.556364 221.556364 0 0 1-221.090909 221.090909z" fill="#FFB718" /><path d="M615.330909 605.090909h-35.374545a40.029091 40.029091 0 1 1 0-80.058182h35.374545a40.029091 40.029091 0 1 1 0 80.058182z" fill="#FFB718" /></svg>