<svg class="icon" style="width: 1em; height: 1em;vertical-align: middle;fill: currentColor;overflow: hidden;" viewBox="0 0 1024 1024" version="1.1" xmlns="http://www.w3.org/2000/svg"><path d="M940.964202 1024c0.32761-6.838856 1.023781-13.575335 1.023781-20.475618a429.987983 429.987983 0 0 0-859.975966 0c0 6.920759 0.716647 13.636762 1.023781 20.475618h-40.951236c-0.286659-6.838856-1.023781-13.554859-1.023781-20.475618a470.693512 470.693512 0 0 1 353.183939-455.500603 286.658655 286.658655 0 1 1 235.469609 0A470.693512 470.693512 0 0 1 982.939219 1003.524382c0 6.920759-0.737122 13.636762-1.023781 20.475618h-40.951236zM757.707419 286.877744a245.707419 245.707419 0 1 0-245.707419 245.707419 245.707419 245.707419 0 0 0 245.707419-245.707419z" fill="#929292" /></svg>