<svg class="icon" style="width: 1em; height: 1em;vertical-align: middle;fill: currentColor;overflow: hidden;" viewBox="0 0 1024 1024" version="1.1" xmlns="http://www.w3.org/2000/svg"><path d="M503.172414 1024A503.172414 503.172414 0 1 1 1006.344828 520.827586 503.172414 503.172414 0 0 1 503.172414 1024z m0-971.211034A467.862069 467.862069 0 1 0 971.034483 520.651034a467.862069 467.862069 0 0 0-467.862069-467.862068z m302.344827 493.426758H529.655172V820.965517a8.827586 8.827586 0 0 1-8.827586 8.827586h-35.310345a8.827586 8.827586 0 0 1-8.827586-8.827586V546.215724H187.586207a8.827586 8.827586 0 0 1-8.827586-8.827586v-33.103448a8.827586 8.827586 0 0 1 8.827586-8.827587H476.689655V238.344828a8.827586 8.827586 0 0 1 8.827586-8.827587h35.310345a8.827586 8.827586 0 0 1 8.827586 8.827587v257.09462h275.862069a8.827586 8.827586 0 0 1 8.827587 8.827586v33.103449a8.827586 8.827586 0 0 1-8.827587 8.845241z" fill="#666666" /></svg>