<svg class="icon" style="width: 1em; height: 1em;vertical-align: middle;fill: currentColor;overflow: hidden;" viewBox="0 0 1024 1024" version="1.1" xmlns="http://www.w3.org/2000/svg"><path d="M287.45901892 310.50913221c-17.24311845-14.25206815-43.908968-13.05286335-59.55066809 2.69751803-15.62404973 15.75130903-14.31523397 40.09305935 2.94646043 54.37949852 39.49949308 32.70089529 62.16829982 79.51359763 62.16829978 128.40609735 0 48.822834-22.72082414 95.6708329-62.37544356 128.47855215-9.19886874 7.60116523-13.84985664 18.0428988-13.84985653 28.53757953 0 9.20722803 3.60040558 18.48505348 10.93962251 25.85770983 15.64077037 15.73551814 42.30662008 16.93379532 59.55066814 2.64642849 57.2247095-47.39326277 90.0575086-115.00118453 90.05750856-185.51934033 0-70.60640165-32.76498887-138.2133957-89.88659124-185.48404357zM447.28320551 183.65243589c-16.41639867-15.07971566-43.09989858-15.16889121-59.60268557-0.15791367-16.518578 14.95710287-16.57152503 39.38523951-0.17277484 54.44916427 74.98707994 68.87772396 116.31092809 160.50878382 116.310928 258.04763186 0 97.36235657-41.37679511 188.97576585-116.51714417 257.97796207-8.16500511 7.49620086-12.26515897 17.32021583-12.26515692 27.12658458 0 9.87789174 4.13359324 19.79108232 12.41935372 27.28635327 16.51950762 15.01097762 43.18628696 14.94038217 59.62033589-0.14119284 90.97247217-83.49949399 141.06510843-194.40888594 141.06510854-312.25063677 0-118.03496119-50.04154867-228.96200342-140.85796465-312.33795277z" /></svg>