<svg class="icon" style="width: 1em; height: 1em;vertical-align: middle;fill: currentColor;overflow: hidden;" viewBox="0 0 1024 1024" version="1.1" xmlns="http://www.w3.org/2000/svg"><path d="M286.57697961 307.86195715c-17.16652916-14.18876618-43.71393853-12.99488604-59.28616286 2.68553584-15.55465267 15.68134686-14.25165004 39.91497809 2.93337429 54.13796114 39.32404892 32.55564884 61.89216815 79.16042292 61.89216816 127.83575862 0 48.60597845-22.61990628 95.24589438-62.09839139 127.90789079-9.1580103 7.5674039-13.78834002 17.96275805-13.78834001 28.41082425 0 9.16633364 3.58441386 18.40294803 10.89103106 25.74285859 15.57129936 15.66562515 42.11870873 16.85858029 59.28616288 2.63467229 56.97053477-47.18275649 89.65750122-114.49038497 89.65750121-184.69532094 0-70.29278982-32.61945769-137.59949482-89.48734334-184.66018058zM445.69127797 181.56871632c-16.34348322-15.0127371-42.90846277-15.10151447-59.33794992-0.15721114-16.44520736 14.89066781-16.49791941 39.21030299-0.17200784 54.20731987 74.65401244 68.57179084 115.7943126 159.79585486 115.7943126 256.90146272 0 96.92990305-41.19301219 188.13639541-115.99961234 256.83210548-8.12873966 7.46290484-12.21068039 17.24328476-12.21067892 27.00609598 0 9.83401842 4.11523263 19.70317721 12.36419161 27.16515705 16.44613235 14.94430335 42.9944667 14.87402113 59.35552009-0.14056445 90.56840105-83.12861627 140.43854183-193.54538237 140.43854184-310.86371904 0-117.51068816-49.81927873-227.94502447-140.23231712-310.95064647z m157.74286196-126.88786848c-16.03553436-15.25872559-42.59958894-15.76827575-59.33702493-1.10510126-16.75593116 14.663173-17.2885999 38.93009762-1.23549389 54.19067316C651.83019524 211.5118865 711.82010971 348.14499451 711.82010971 492.50456754c0 144.07936618-60.09163862 280.66068714-169.16471331 384.61700204-7.78472544 7.4101928-11.67893663 16.96215439-11.67893664 26.51504246 0 10.06151175 4.32238084 20.14151868 12.93107719 27.67378075 16.72078932 14.64467783 43.30241555 14.11848396 59.35459514-1.15873828C727.39325755 811.8669325 795.7505018 656.46096725 795.7505018 492.52306272c0.03421685-164.25695168-68.28881053-319.73227418-192.31636187-437.83943993z" /></svg>