<svg class="icon" style="width: 1em; height: 1em;vertical-align: middle;fill: currentColor;overflow: hidden;" viewBox="0 0 1024 1024" version="1.1" xmlns="http://www.w3.org/2000/svg"><path d="M577.010643 474.783377M951.292048 606.610798c-2.110057-7.867178-7.261381-14.572904-14.317077-18.641569l-0.979304-0.564865c-2.793626-1.609661-5.822612-2.77009-8.977465-3.437286-15.213493-3.219321-28.806069-11.07422-39.308261-22.716374-12.202926-13.526061-18.922978-31.017434-18.922978-49.250704 0-18.23327 6.720052-35.724643 18.924002-49.251727 10.501168-11.640108 24.093744-19.495006 39.308261-22.714328 3.157923-0.668219 6.191003-1.830695 8.986675-3.444449l0.979304-0.564865c7.05365-4.070712 12.199856-10.775414 14.307867-18.640546 2.109034-7.866155 1.00591-16.246009-3.065825-23.298636l-116.028597-200.967104c-4.071735-7.052626-10.777461-12.19781-18.643616-14.304797s-16.244986-1.001817-23.297612 3.070942l-0.277316 0.159636c-2.975774 1.718131-5.641487 3.923356-7.885598 6.5246-10.856255 12.57848-25.759687 21.190625-41.962717 24.249287-0.001023 0-0.002047 0-0.00307 0.001023-4.524037 0.853437-9.153474 1.286296-13.758352 1.286296-31.206746 0-59.108213-19.772322-69.436442-49.200562-0.001023-0.004093-0.002047-0.007163-0.00307-0.011256-2.738367-7.80578-4.126994-16.001439-4.126994-24.356734s1.388627-16.549931 4.126994-24.356734c1.14508-3.26537 1.730411-6.701632 1.730411-10.162454l0-0.116657c0-16.954137-13.745049-30.699186-30.699186-30.699186l-231.830019 0c-10.000771 0-19.37528 4.871961-25.12319 13.056364-5.747911 8.185426-7.147794 18.655895-3.753487 28.063149 2.882654 7.987928 4.343935 16.391319 4.343935 24.975834 0 8.752338-1.514493 17.304108-4.502547 25.418926-10.604522 28.79993-38.359656 48.149627-69.064982 48.149627-4.345981 0-8.701173-0.38067-12.944823-1.131777-16.814967-2.976798-32.194236-11.865235-43.304272-25.029046-2.266623-2.686179-5.0449-5.001921-8.083096-6.769171-7.052626-4.104481-15.448854-5.233188-23.336498-3.13541-7.886621 2.098801-14.612813 7.250124-18.693758 14.3181L75.771731 393.857253c-5.02648 8.706289-5.471618 19.322068-1.192152 28.418236 4.279467 9.097192 12.742209 15.521508 22.653953 17.199731 17.438161 2.952238 33.260521 12.172227 44.552705 25.960255 10.868535 13.271258 16.612353 29.372981 16.612353 46.563502 0 17.191544-5.743818 33.293267-16.612353 46.563502-11.291161 13.789051-27.114544 23.008017-44.552705 25.960255-9.911744 1.678222-18.374486 8.103562-22.653953 17.199731-4.279467 9.097192-3.834328 19.712971 1.192152 28.418236l115.630531 200.277396c5.045923 8.739035 14.063297 14.439874 24.122397 15.250332 10.04989 0.805342 19.871583-3.374864 26.250874-11.192923 11.69639-14.33652 28.146037-23.687492 46.317908-26.331715 3.548826-0.51677 7.157004-0.778736 10.723226-0.778736 30.483268 0 57.375755 18.329461 68.51342 46.698578 3.353374 8.54256 5.054109 17.582447 5.054109 26.868951 0 9.03784-1.617847 17.85874-4.808516 26.219151-3.602038 9.435906-2.331092 20.040429 3.397377 28.358885 5.728468 8.318456 15.182794 13.286608 25.28385 13.286608l231.686756 0c10.241248 0 19.807115-5.106298 25.50693-13.616112s6.779404-19.298532 2.880607-28.76923c-3.65218-8.874111-5.505387-18.287505-5.505387-27.977191 0-9.702989 1.856277-19.127639 5.519714-28.010961 11.409864-27.675316 38.120203-45.557592 68.047816-45.557592 2.382257 0 4.800329 0.1361 7.184633 0.402159 18.835997 2.110057 37.051871 12.732999 49.977251 29.147854 6.300496 8.002254 16.164145 12.358469 26.319435 11.627828 10.159384-0.729617 19.293415-6.450922 24.38641-15.270798l115.966175-200.859657C952.300005 622.8609 953.402105 614.477976 951.292048 606.610798zM798.249443 766.888178c-18.044982-12.354376-38.623669-20.260439-59.84397-22.636556-4.64581-0.51984-9.359158-0.782829-14.012132-0.782829-54.894238 0-103.886045 32.796964-124.811634 83.552951-6.737448 16.343223-10.154267 33.640168-10.154267 51.41295 0 3.003404 0.097214 5.990434 0.291642 8.964162L433.630095 887.398856c0.101307-2.149966 0.152473-4.304026 0.152473-6.466272 0-16.997116-3.12927-33.586956-9.30083-49.308009-9.80225-24.965601-26.66429-46.272883-48.762587-61.616336-22.652929-15.728216-49.244564-24.041556-76.901461-24.041556-6.515391 0-13.097296 0.476861-19.563568 1.418302-19.203364 2.793626-37.34556 9.644661-53.373605 19.953448L147.486052 631.556956c15.940041-8.362458 30.187533-19.909445 41.803082-34.092469 19.674085-24.023136 30.508851-54.375421 30.508851-85.464487 0-31.088042-10.834766-61.440327-30.507828-85.464487-11.614525-14.182001-25.866111-25.731034-41.804105-34.092469l78.949097-136.744407c14.576997 9.133008 30.854728 15.467273 47.951105 18.494213 7.767917 1.3743 15.7231 2.071172 23.64656 2.071172 28.160363 0 55.150064-8.592702 78.051657-24.848944 22.367427-15.877619 39.183418-37.829584 48.629557-63.48387 5.497201-14.930037 8.284687-30.619368 8.284687-46.633087 0-1.568728-0.026606-3.134387-0.080841-4.696975l158.544923 0c-0.037862 1.309832-0.057305 2.622734-0.057305 3.936659 0 15.294334 2.553149 30.327726 7.588839 44.681642 0.010233 0.029676 0.022513 0.058328 0.032746 0.088004 18.965957 53.952796 70.12922 90.197278 127.343293 90.197278 8.4126 0 16.869203-0.791016 25.13547-2.349511 0.005117-0.001023 0.010233-0.001023 0.014326-0.002047 16.23373-3.064802 31.747051-9.147334 45.724391-17.778922l79.901795 138.395c-13.015432 7.18361-24.823362 16.544815-35.025725 27.853371-22.399149 24.827455-34.734082 56.924477-34.734082 90.379427 0 33.453926 12.334933 65.550948 34.732036 90.379427 10.202363 11.308557 22.013363 20.670785 35.026748 27.854395L798.249443 766.888178zM512 336.26558c-96.899934 0-175.73442 78.834486-175.73442 175.73442 0 96.900957 78.834486 175.735443 175.73442 175.735443s175.73442-78.834486 175.73442-175.735443C687.73442 415.099043 608.899934 336.26558 512 336.26558zM512 626.337071c-63.044872 0-114.336048-51.291177-114.336048-114.337071 0-63.044872 51.291177-114.336048 114.336048-114.336048s114.336048 51.291177 114.336048 114.336048C626.336048 575.044872 575.044872 626.337071 512 626.337071z" /></svg>