<svg class="icon" style="width: 1em; height: 1em;vertical-align: middle;fill: currentColor;overflow: hidden;" viewBox="0 0 1024 1024" version="1.1" xmlns="http://www.w3.org/2000/svg"><path d="M737.45342134 690.89458495c17.10840659 14.14072387 43.56592919 12.95088786 59.08542848-2.67644368 15.50198684-15.62825193 14.2033962-39.77983232-2.9234412-53.95465869-39.19090329-32.44541955-61.68260998-78.89239765-61.68260994-127.40292471 0-48.44140561 22.5433177-94.92340452 61.88813541-127.47481346 9.12700258-7.54178113 13.74165463-17.90193865 13.74165453-28.31462969 0-9.13529655-3.57227741-18.340639-10.85415671-25.65569648-15.51857685-15.6125844-41.97609961-16.80150004-59.08542855-2.62575327-56.77764146 47.0230029-89.35393431 114.10273778-89.35393427 184.0699705 0 70.05478914 32.50901239 137.13360355 89.18435225 184.03494948zM578.8778612 816.76021333c16.28814556 14.96190538 42.76318062 15.05038425 59.13703959 0.15667997 16.38952661-14.8402505 16.44205999-39.07754233 0.17142504-54.02378019-74.40124338-68.33961674-115.40224896-159.25480895-115.40224888-256.03163473 0-96.60171317 41.0535389-187.49939268 115.60685398-255.96250924 8.10121601-7.43763679 12.16933742-17.18490164 12.16933539-26.91465813 0-9.80072072-4.10129954-19.63646449-12.32232752-27.07317864-16.39044897-14.89370436-42.84889409-14.82366043-59.15455202 0.14008976-90.26174973 82.84715419-139.96303727 192.89006652-139.96303738 309.81117868 0 117.11281306 49.65059906 227.17323777 139.7575118 309.89781252z" /></svg>