<svg class="icon" style="width: 1em; height: 1em;vertical-align: middle;fill: currentColor;overflow: hidden;" viewBox="0 0 1024 1024" version="1.1" xmlns="http://www.w3.org/2000/svg"><path d="M734.75635372 692.13804282c17.16652916 14.18876618 43.71393853 12.99488604 59.28616286-2.68553584 15.55465267-15.68134686 14.25165004-39.91497809-2.93337429-54.13796114-39.32404892-32.55564885-61.89216815-79.16042292-61.89216816-127.83575862 0-48.60597845 22.61990628-95.24589439 62.09839139-127.9078908 9.1580103-7.5674039 13.78834002-17.96275806 13.78834001-28.41082424 0-9.16633365-3.58441386-18.40294803-10.89103106-25.74285859-15.57129935-15.66562515-42.11870873-16.85858029-59.28616288-2.63467229-56.97053476 47.18275649-89.65750122 114.49038497-89.65750121 184.69532094 0 70.29278982 32.6194577 137.59949482 89.48734334 184.66018058zM575.64205536 818.43128366c16.34348322 15.0127371 42.90846277 15.10151447 59.33794992 0.15721113 16.44520736-14.89066781 16.49791941-39.21030299 0.17200784-54.20731987-74.65401244-68.57179084-115.7943126-159.79585486-115.7943126-256.90146272 0-96.92990306 41.19301219-188.13639541 115.99961234-256.83210548 8.12873967-7.46290484 12.21068039-17.24328476 12.21067892-27.00609597 0-9.83401842-4.11523262-19.70317721-12.36419162-27.16515706-16.44613235-14.94430335-42.9944667-14.87402113-59.35552008 0.14056445-90.56840105 83.12861627-140.43854183 193.54538237-140.43854184 310.86371904 0 117.51068816 49.81927872 227.94502447 140.23231712 310.95064648z m-157.74286197 126.88786847c16.03553436 15.25872559 42.59958894 15.76827576 59.33702494 1.10510126 16.75593116-14.663173 17.2885999-38.93009762 1.23549389-54.19067316C369.50313809 788.48811347 309.51322362 651.85500546 309.51322362 507.49543243c0-144.07936617 60.09163862-280.66068714 169.16471331-384.61700204 7.78472544-7.4101928 11.67893663-16.96215439 11.67893665-26.51504246 0-10.06151175-4.32238084-20.14151868-12.9310772-27.67378075-16.72078932-14.64467783-43.30241555-14.11848396-59.35459514 1.15873828C293.94007578 188.13306747 225.58283153 343.53903272 225.58283153 507.47693725c-0.03421685 164.25695168 68.28881053 319.73227418 192.31636187 437.83943993z" /></svg>