<svg class="icon" style="width: 1.001953125em; height: 1em;vertical-align: middle;fill: currentColor;overflow: hidden;" viewBox="0 0 1026 1024" version="1.1" xmlns="http://www.w3.org/2000/svg"><path d="M919.04426 768.993899H355.134332c-48.502274 0-78.262451-26.863672-88.542208-79.966278L194.406656 152.492512l-0.851914-9.93899C188.784027 85.986467 181.571159 0.454354 32.202329 0.454354A31.918358 31.918358 0 0 0 0 31.975153c0 17.492623 14.425735 31.577593 32.202329 31.577592 90.075652 0 92.574598 29.93056 97.118137 84.225846l1.135885 11.699612 72.412645 538.693289 0.227177 1.590238c15.675208 82.919578 72.526234 132.387354 152.038159 132.387355h563.909928a31.861564 31.861564 0 0 0 32.202329-31.577593 31.918358 31.918358 0 0 0-32.202329-31.577593" fill="#999999" /><path d="M998.10183 156.411314c-20.616306-22.660899-50.717249-34.644481-87.122351-34.644481H291.127232a31.918358 31.918358 0 0 0-32.202329 31.577593c0 17.435829 14.425735 31.577593 32.202329 31.577593H910.979479c12.21076 0 28.965058 2.328564 39.074431 13.517027 10.279756 11.302052 10.904493 28.567499 9.541431 41.346201l-48.161508 281.131447c-3.805214 21.695397-22.54731 60.145092-68.493844 67.698725l-473.436717 30.498502a31.80477 31.80477 0 0 0-29.987354 33.565391 31.975153 31.975153 0 0 0 34.246922 29.419412l474.913366-30.555296 2.839712-0.283972a147.210649 147.210649 0 0 0 123.413866-119.72224l48.275097-282.210538 0.283971-1.647033c5.395452-46.514476-10.790904-75.309151-25.387022-91.268331" fill="#999999" /><path d="M328.27066 897.9736c-39.58558 0-71.617526 28.226733-71.617526 63.041597 0 34.75807 32.031947 62.928009 71.560732 62.928009 39.528785 0 71.560732-28.169939 71.560732-62.984803 0-34.75807-32.031947-62.984803-71.560732-62.984803M824.481864 897.9736c-39.528785 0-71.560732 28.226733-71.560733 63.041597 0 34.75807 32.031947 62.928009 71.560733 62.928009 39.528785 0 71.560732-28.169939 71.560732-62.984803 0-34.75807-32.031947-62.984803-71.560732-62.984803" fill="#999999" /></svg>