<svg class="icon" style="width: 1em; height: 1em;vertical-align: middle;fill: currentColor;overflow: hidden;" viewBox="0 0 1024 1024" version="1.1" xmlns="http://www.w3.org/2000/svg"><path d="M765.814218 639.610376c10.873652 50.498114 20.462031 96.212272 28.773324 137.120984 3.829212 17.266245 7.346315 34.527374 10.5421 51.78748 3.202948 17.254989 6.237051 32.917714 9.112542 46.988174 2.877537 14.058181 5.27719 26.047236 7.188726 35.956933 1.917676 9.909697 3.202948 16.138562 3.841491 18.696828 1.917676 12.785188-0.958838 21.258163-8.635681 25.414833-7.665587 4.149507-16.301268 6.229888-25.89067 6.229888-3.190669 0-7.828292-1.116427-13.896498-3.353374-6.078439-2.242064-10.710946-3.998057-13.906731-5.276167L512.660544 807.418266c-45.388746 26.855648-86.62287 50.828642-123.695207 71.918983-15.987113 8.955976-31.807427 17.899672-47.470151 26.855648-15.661701 8.944719-29.888727 17.261129-42.669822 24.931832-12.786211 7.671727-23.816428 14.058181-33.086559 19.172665s-15.498996 8.316409-18.695804 9.589402c-6.393617 3.196809-12.948917 4.318352-19.659759 3.358491-6.713912-0.963954-12.787234-3.358491-18.22099-7.188726-5.433756-3.841491-9.426697-8.472975-11.983939-13.906731-2.557242-5.434779-3.200902-11.025101-1.916653-16.784268 0.638543-2.557242 2.230808-8.78713 4.787026-18.696828 2.558265-9.909697 5.440919-21.735024 8.631588-35.480073 3.202948-13.745049 6.874571-28.925796 11.030218-45.547359 4.160763-16.626679 8.472975-33.567513 12.941753-50.828642 9.590426-39.630602 20.456914-84.379783 32.603559-134.24447-37.71702-32.603559-71.594595-61.691037-101.639888-87.262436-12.787234-10.867512-25.41074-21.578458-37.880749-32.121582-12.466939-10.549264-23.647583-20.143783-33.562397-28.773324-9.908674-8.630564-18.057261-15.657608-24.449855-21.091364-6.392594-5.438872-9.910721-8.472975-10.549264-9.112542-7.671727-7.03216-14.227026-14.859429-19.660782-23.491017-5.428639-8.631588-7.509021-17.423835-6.229888-26.372647 1.279133-8.949836 4.795213-15.97688 10.549264-21.095457 5.752004-5.115508 12.145621-8.311293 19.177781-9.584286l296.308543-26.855648L467.591069 97.820909c3.837398-10.228969 9.270131-19.016099 16.303314-26.373671 7.037277-7.346315 16.620539-11.025101 28.766161-11.025101 6.393617 0 11.985986 1.435699 16.785292 4.313236 4.795213 2.882654 8.78713 6.236028 11.989055 10.07138 3.190669 3.836375 5.910617 7.67275 8.142447 11.508102 2.237971 3.834328 3.998057 7.03216 5.27719 9.588379l107.393939 256.988002 296.309566 27.808346c12.786211 3.197832 21.736047 7.037277 26.849508 11.508102 5.114484 4.474918 7.671727 11.506055 7.671727 21.095457 0 8.949836-2.713808 16.783245-8.153704 23.491017-5.428639 6.712889-12.30321 14.866592-20.609387 24.455995L765.814218 639.610376 765.814218 639.610376zM765.814218 639.610376" /></svg>