<svg class="icon" style="width: 1em; height: 1em;vertical-align: middle;fill: currentColor;overflow: hidden;" viewBox="0 0 1024 1024" version="1.1" xmlns="http://www.w3.org/2000/svg"><path d="M503.172414 1024A503.172414 503.172414 0 1 1 1006.344828 520.827586 503.172414 503.172414 0 0 1 503.172414 1024z m-0.176552-971.034483a467.862069 467.862069 0 1 0 467.862069 467.862069A467.862069 467.862069 0 0 0 502.995862 52.965517zM617.931034 317.793103h105.931035v105.931035h-105.931035v-105.931035z m35.310345 70.62069h35.310345v-35.310345h-35.310345v35.310345z m33.20938 211.862069H722.096552a220.530759 220.530759 0 0 1-437.848276 0h35.681103a185.149793 185.149793 0 0 0 366.52138 0zM282.482759 317.793103h105.931034v105.931035h-105.931034v-105.931035z m35.310344 70.62069h35.310345v-35.310345h-35.310345v35.310345z" fill="#666666" /></svg>