<svg class="icon" style="width: 1em; height: 1em;vertical-align: middle;fill: currentColor;overflow: hidden;" viewBox="0 0 1024 1024" version="1.1" xmlns="http://www.w3.org/2000/svg"><path d="M258.875 90.125h393.75000027l224.99999946 225.00000027v506.25c0 61.87499973-50.625 112.49999973-112.49999973 112.49999973H258.875c-61.87499973 0-112.49999973-50.625-112.49999973-112.49999973V202.62499973C146.37500027 140.75 197.00000027 90.125 258.875 90.125z m253.125 703.12499973c123.75000027 0 225.00000027-101.25 225.00000027-224.99999946s-101.25-225.00000027-225.00000027-225.00000027-225.00000027 101.25-225.00000027 225.00000027 101.25 225.00000027 225.00000027 224.99999946z m0-56.24999946c-95.62499973 0-168.75-73.12500027-168.75-168.75s73.12500027-168.75 168.75-168.75 168.75 73.12500027 168.75 168.75-73.12500027 168.75-168.75 168.75zM596.375 585.12500027l5.62500027-5.62500027c5.62500027-11.24999973 5.62500027-22.50000027-5.62500027-28.12499973L489.49999973 478.25s-5.62500027-5.62500027-11.24999973-5.62500027c-11.24999973 0-22.50000027 11.24999973-22.50000027 22.50000027v140.62500027c0 5.62500027 0 11.24999973 5.62500027 11.24999973 5.62500027 11.24999973 22.50000027 11.24999973 33.75 5.62500027L596.375 585.12500027z" fill="#777777" /><path d="M652.62500027 90.125l224.99999946 225.00000027h-168.75c-33.75 0-56.25000027-22.50000027-56.24999946-56.25000027V90.125z" fill="#E0E0E0" /></svg>