<?xml version="1.0" standalone="no"?><!DOCTYPE svg PUBLIC "-//W3C//DTD SVG 1.1//EN" "http://www.w3.org/Graphics/SVG/1.1/DTD/svg11.dtd"><svg t="1611561208715" class="icon" viewBox="0 0 1024 1024" version="1.1" xmlns="http://www.w3.org/2000/svg" p-id="5946" xmlns:xlink="http://www.w3.org/1999/xlink" width="280" height="280"><defs><style type="text/css"></style></defs><path d="M664.89265051 107.17637805c-38.60945231 1.4943071-85.4336825 25.81787085-113.22310027 58.379683-24.80862682 28.82213236-46.63646342 75.04394515-40.66705899 119.20032875 43.09237366 3.36414701 87.10793237-22.07819179 113.97416584-54.64000398C651.83506657 197.74234044 669.93104665 152.45935924 664.89265051 107.17637805zM650.1608167 292.98681422c-54.64782724 0.75106557-105.20391321 35.93378245-133.18109699 35.93378245-30.40249923 0-77.22672865-34.42382805-126.84398303-33.49282049-65.28791979 0.93883158-125.34967592 37.9835651-158.92855538 96.55101411-67.71323446 117.89378764-17.34491527 292.6651279 48.68624606 388.47290048 32.27233912 46.78511158 70.69402543 99.55527565 121.43005337 97.49766973 48.68624606-1.87766317 67.15775893-31.62298059 125.91297473-31.62298058 58.75521579 0 75.36471277 31.62298059 126.84398303 30.68414899 52.41810184-0.93883158 85.62144852-47.9038859 117.70602163-94.68117421C808.70601602 728.05705949 824.00114864 675.47466218 824.93998024 672.6659907c-1.11877433-0.56329879-102.03535622-39.29792946-103.15413056-156.06511873-0.93883158-97.48984569 79.46427806-144.46272405 83.00836782-146.70809674-45.14215631-66.24239865-115.46847221-75.41165466-140.64480928-76.53042824a349.05761743 349.05761743 0 0 0-13.99641555-0.37553277z" p-id="5947"></path></svg>