<?xml version="1.0" standalone="no"?><!DOCTYPE svg PUBLIC "-//W3C//DTD SVG 1.1//EN" "http://www.w3.org/Graphics/SVG/1.1/DTD/svg11.dtd"><svg t="1611560991505" class="icon" viewBox="0 0 1024 1024" version="1.1" xmlns="http://www.w3.org/2000/svg" p-id="6056" xmlns:xlink="http://www.w3.org/1999/xlink" width="280" height="280"><defs><style type="text/css"></style></defs><path d="M293.77050521 360.1627776h436.50551042v316.66769688a52.10339662 52.10339662 0 0 1-51.77775078 52.33600156h-35.77456458v107.92846459a48.98649688 48.98649688 0 1 1-97.97299376 0v-107.92846459H479.24929349v107.92846459c0 27.07515781-21.95785989 48.93997605-49.07953854 48.93997603a48.84693437 48.84693437 0 0 1-48.47476772-48.93997603l-0.4186875-107.92846459h-35.2163138a52.19643829 52.19643829 0 0 1-52.28948072-52.33600156V360.1627776z m-67.54833203-9.02505261a48.84693437 48.84693437 0 0 0-48.98649688 48.47476693v204.50583178c0 27.12167865 21.91133906 48.93997605 48.98649688 48.93997605s48.47476693-21.86481823 48.47476769-48.93997605V399.61249192c0-26.56342787-21.77177657-48.47476693-48.47476769-48.47476693z m505.449469-8.09463516H291.86314947c0-75.59644635 45.21830468-141.23742188 112.25490677-175.43027577L370.29736978 105.36786327a6.93161276 6.93161276 0 0 1 2.37256485-9.53678255c3.30298308-1.4421474 7.62942605-0.51172995 9.53678256 2.88429558l34.19285391 62.75668071c29.07555599-12.88628646 61.407575-20.00398255 95.6004289-20.00398331s66.52487214 7.1176961 95.60042891 19.95746171L641.79328281 98.66885545c1.90735651-3.34950392 6.23379948-4.27992213 9.53678255-2.88429556a6.93161276 6.93161276 0 0 1 2.37256486 9.53678256l-33.82068646 62.24495078c66.61791458 34.23937475 111.78969844 99.88035026 111.78969842 175.47679661zM430.16975494 245.11661692a18.51531432 18.51531432 0 0 0-18.46879349-18.56183516 18.46879348 18.46879348 0 0 0-18.09662603 18.56183516c0 9.95547006 8.04811432 18.51531432 18.09662603 18.51531355a18.46879348 18.46879348 0 0 0 18.46879349-18.51531355z m200.22590964 0a18.46879348 18.46879348 0 0 0-18.09662603-18.56183516 18.51531432 18.51531432 0 0 0 0 37.07714871 18.37575182 18.37575182 0 0 0 18.09662603-18.51531355z m167.38216224 106.02110807a48.38172526 48.38172526 0 0 0-48.47476769 48.47476694v204.50583177a48.70737187 48.70737187 0 1 0 97.46126457 0V399.61249192a48.56780937 48.56780937 0 0 0-48.98649688-48.47476693z" p-id="6057"></path></svg>