<svg class="icon" style="width: 1em; height: 1em;vertical-align: middle;fill: currentColor;overflow: hidden;" viewBox="0 0 1024 1024" version="1.1" xmlns="http://www.w3.org/2000/svg"><path d="M237.714286 475.428571c30.321371 0 54.857143-24.572343 54.857143-54.857143s-24.535771-54.857143-54.857143-54.857143-54.857143 24.572343-54.857143 54.857143S207.392914 475.428571 237.714286 475.428571zM420.571429 475.428571c30.321371 0 54.857143-24.572343 54.857143-54.857143s-24.535771-54.857143-54.857143-54.857143-54.857143 24.572343-54.857143 54.857143S390.250057 475.428571 420.571429 475.428571zM603.428571 475.428571c30.321371 0 54.857143-24.572343 54.857143-54.857143s-24.535771-54.857143-54.857143-54.857143-54.857143 24.572343-54.857143 54.857143S573.1072 475.428571 603.428571 475.428571zM841.142857 694.857143 841.142857 146.285714c0-36.571429-36.571429-36.571429-36.571429-36.571429L36.571429 109.714286c0 0-36.571429 0-36.571429 36.571429l0 548.571429c0 36.571429 36.571429 36.571429 36.571429 36.571429l109.714286 0 0 182.857143 182.857143-182.857143 475.428571 0C841.142857 731.428571 841.142857 694.857143 841.142857 694.857143zM768 658.285714 298.858057 658.285714l-21.429029 21.429029L219.428571 737.7152 219.428571 731.428571l0-73.142857L73.142857 658.285714 73.142857 182.857143l694.857143 0L768 658.285714zM987.428571 219.428571l-109.714286 0 0 73.142857 73.142857 0 0 475.428571-146.285714 0 0 79.429486L725.143771 768 365.714286 768l0 73.142857 329.142857 0 182.857143 182.857143L877.714286 841.142857l109.714286 0c0 0 36.571429 0 36.571429-36.571429L1024 256C1024 219.428571 987.428571 219.428571 987.428571 219.428571z" /></svg>