<svg class="icon" style="width: 1em; height: 1em;vertical-align: middle;fill: currentColor;overflow: hidden;" viewBox="0 0 1024 1024" version="1.1" xmlns="http://www.w3.org/2000/svg"><path d="M346.447816 744.725989h-41.359078a25.845568 25.845568 0 0 1-25.845569-25.86099 25.845568 25.845568 0 0 1 25.845569-25.860989h41.374499a25.845568 25.845568 0 0 1 25.845568 25.860989 25.845568 25.845568 0 0 1-25.845568 25.86099zM346.447816 372.417184h-41.359078a25.845568 25.845568 0 0 1-25.845569-25.845569 25.845568 25.845568 0 0 1 25.845569-25.860989h41.374499a25.860989 25.860989 0 0 1 25.845568 25.845568 25.845568 25.845568 0 0 1-25.860989 25.86099zM346.447816 558.579297h-41.359078a25.860989 25.860989 0 0 1-25.845569-25.86099 25.845568 25.845568 0 0 1 25.845569-25.860989h41.374499a25.845568 25.845568 0 0 1 25.845568 25.860989 25.860989 25.860989 0 0 1-25.860989 25.86099z" fill="#272536" /><path d="M511.976653 1023.953737c-282.728312 0-511.976653-229.202078-511.976653-511.976653s229.202078-511.976653 511.976653-511.976652a510.311186 510.311186 0 0 1 211.730103 45.692374c24.843204 17.950025 5.258555 47.805049-17.086449 37.688884A468.905846 468.905846 0 0 0 511.976653 41.421194c-259.874414 0-470.555891 210.666056-470.555891 470.55589S252.040555 982.563817 511.976653 982.563817s470.494207-210.650635 470.494207-470.54047a472.390988 472.390988 0 0 0-11.519475-104.029954c-7.710492-36.856151 37.01036-41.960496 40.356714-9.129223a515.060849 515.060849 0 0 1 12.537259 113.159177c0 282.728312-229.186657 511.976653-511.976652 511.976653z" fill="#272536" /><path d="M470.555891 693.00401h330.934306a25.860989 25.860989 0 0 1 0 51.706558h-330.934306a25.860989 25.860989 0 0 1 0-51.706558zM470.555891 372.417184a25.845568 25.845568 0 0 1-25.860989-25.86099 25.845568 25.845568 0 0 1 25.860989-25.845568h93.081056a25.860989 25.860989 0 0 1 25.845569 25.845568 25.860989 25.860989 0 0 1-25.845569 25.86099zM588.264258 544.623307a23.640368 23.640368 0 0 1-3.408037 2.806619 25.845568 25.845568 0 0 1-21.219274 11.13395h-93.081056a25.860989 25.860989 0 0 1 0-51.721979h82.409736l358.321973-348.020756a25.830147 25.830147 0 0 1 36.547731 0 25.830147 25.830147 0 0 1 0 36.547731L588.264258 544.623307z" fill="#272536" /></svg>