<svg class="icon" style="width: 1em; height: 1em;vertical-align: middle;fill: currentColor;overflow: hidden;" viewBox="0 0 1024 1024" version="1.1" xmlns="http://www.w3.org/2000/svg"><path d="M976.64 469.76H765.44c-23.232512 0-42.24 19.008512-42.24 42.24s19.008512 42.24 42.24 42.24h211.2c23.232512 0 42.24-19.008512 42.24-42.24s-19.007488-42.24-42.24-42.24z" fill="#272636" /><path d="M300.8 512c0-23.232512-19.008512-42.24-42.24-42.24H47.36C24.128512 469.76 5.12 488.768512 5.12 512s19.008512 42.24 42.24 42.24H258.56c23.232512 0 42.24-19.007488 42.24-42.24z" fill="#272636" /><path d="M512 723.2c-23.232512 0-42.24 19.008512-42.24 42.24v211.2c0 23.232512 19.008512 42.24 42.24 42.24s42.24-19.008512 42.24-42.24V765.44c0-23.231488-19.007488-42.24-42.24-42.24z" fill="#272636" /><path d="M512 5.12c-23.232512 0-42.24 19.008512-42.24 42.24V258.56c0 23.232512 19.008512 42.24 42.24 42.24s42.24-19.008512 42.24-42.24V47.36C554.24 24.128512 535.232512 5.12 512 5.12z" fill="#272636" /><path d="M694.951936 406.4c11.616256 20.328448 37.487616 27.19232 57.816064 15.576064l182.951936-105.6c20.328448-11.616256 27.19232-37.487616 15.576064-57.816064s-37.487616-27.19232-57.816064-15.576064L710.528 348.583936c-20.328448 11.880448-27.19232 37.487616-15.576064 57.816064z" fill="#272636" /><path d="M329.048064 617.6c-11.616256-20.328448-37.487616-27.19232-57.816064-15.576064L88.280064 707.623936C67.951616 719.240192 61.087744 745.111552 72.704 765.44s37.487616 27.19232 57.816064 15.576064l182.951936-105.6c20.328448-11.880448 27.19232-37.487616 15.576064-57.816064z" fill="#272636" /><path d="M675.416064 710.263808c-11.616256-20.328448-37.487616-27.19232-57.816064-15.576064s-27.19232 37.487616-15.576064 57.816064l105.6 182.951936c11.616256 20.328448 37.487616 27.19232 57.816064 15.576064s27.19232-37.487616 15.576064-57.816064L675.416064 710.263808z" fill="#272636" /><path d="M316.376064 88.544256c-11.616256-20.328448-37.487616-27.19232-57.816064-15.576064s-27.19232 37.487616-15.576064 57.816064l105.6 182.951936c11.616256 20.328448 37.487616 27.19232 57.816064 15.576064s27.19232-37.487616 15.576064-57.816064L316.376064 88.544256z" fill="#272636" /><path d="M617.6 329.048064c20.328448 11.616256 45.935616 4.752384 57.816064-15.576064l105.6-182.951936C792.63232 110.191616 785.768448 84.584448 765.44 72.704c-20.328448-11.616256-45.935616-4.752384-57.816064 15.576064L602.023936 271.232c-11.616256 20.328448-4.752384 46.199808 15.576064 57.816064z" fill="#272636" /><path d="M406.4 694.951936c-20.328448-11.616256-45.935616-4.752384-57.816064 15.576064L242.983936 893.479936c-11.616256 20.328448-4.752384 45.935616 15.576064 57.816064 20.328448 11.616256 45.935616 4.752384 57.816064-15.576064l105.6-182.951936c11.616256-20.328448 4.752384-46.199808-15.576064-57.816064z" fill="#272636" /><path d="M935.455744 707.623936L752.503808 602.023936c-20.328448-11.616256-45.935616-4.752384-57.816064 15.576064-11.616256 20.328448-4.752384 45.935616 15.576064 57.816064l182.951936 105.6c20.328448 11.616256 45.935616 4.752384 57.816064-15.576064 11.616256-20.328448 4.752384-45.935616-15.576064-57.816064z" fill="#272636" /><path d="M88.544256 316.376064l182.951936 105.6c20.328448 11.616256 45.935616 4.752384 57.816064-15.576064s4.752384-45.935616-15.576064-57.816064L130.784256 242.983936c-20.328448-11.616256-45.935616-4.752384-57.816064 15.576064-11.616256 20.328448-4.752384 45.935616 15.576064 57.816064z" fill="#272636" /></svg>