<svg class="icon" style="width: 1em; height: 1em;vertical-align: middle;fill: currentColor;overflow: hidden;" viewBox="0 0 1024 1024" version="1.1" xmlns="http://www.w3.org/2000/svg"><path d="M393.846154 196.923077 275.692308 196.923077C253.991385 196.923077 236.307692 214.606769 236.307692 236.307692l0 551.384615c0 21.700923 17.683692 39.384615 39.384615 39.384615l118.153846 0c21.700923 0 39.384615-17.683692 39.384615-39.384615L433.230769 236.307692C433.230769 214.606769 415.547077 196.923077 393.846154 196.923077zM748.307692 196.923077l-118.153846 0c-21.700923 0-39.384615 17.683692-39.384615 39.384615l0 551.384615c0 21.700923 17.683692 39.384615 39.384615 39.384615l118.153846 0c21.700923 0 39.384615-17.683692 39.384615-39.384615L787.692308 236.307692C787.692308 214.606769 770.008615 196.923077 748.307692 196.923077z" /></svg>