<svg class="icon" style="width: 1em; height: 1em;vertical-align: middle;fill: currentColor;overflow: hidden;" viewBox="0 0 1024 1024" version="1.1" xmlns="http://www.w3.org/2000/svg"><path d="M547.734485 557.515547v-69.695682a22.820158 22.820158 0 1 0-45.640316 0v69.695682c0 128.299444-102.172921 232.293986-228.226533 232.293986S45.641103 685.814992 45.641103 557.515547v-69.695682a23.032264 23.032264 0 0 0-22.820158-23.219417A23.032264 23.032264 0 0 0 0.000788 487.819865v69.695682c0 146.103909 110.49498 265.756896 251.04669 277.58495v140.539234h-159.703675a23.231894 23.231894 0 0 0 0 46.463788h365.11005a23.231894 23.231894 0 0 0 0-46.463788h-159.703675V835.100497C437.264458 823.272444 547.734485 703.631933 547.734485 557.515547z m0 0M273.867636 0C173.017261 0 91.293896 83.20811 91.293896 185.842675v371.672872c0 102.622088 81.723365 185.842675 182.57374 185.842675s182.586217-83.20811 182.586217-185.830198v-371.685349C456.453853 83.20811 374.718011 0 273.867636 0z m0 0M813.042215 1022.103519H673.663328a23.231894 23.231894 0 0 1-23.231894-23.231894v-46.463788a23.219417 23.219417 0 0 1 23.231894-23.219417h139.378887a23.219417 23.219417 0 0 1 23.231893 23.219417v46.463788a23.231894 23.231894 0 0 1-23.231893 23.231894z m46.451311-197.446145H673.663328a23.231894 23.231894 0 0 1-23.231894-23.231894v-46.463788a23.231894 23.231894 0 0 1 23.231894-23.219417h185.830198a23.231894 23.231894 0 0 1 23.231894 23.231894v46.463788a23.231894 23.231894 0 0 1-23.231894 23.231894z m46.463787-197.446145H673.663328a23.231894 23.231894 0 0 1-23.231894-23.231894v-46.463788a23.231894 23.231894 0 0 1 23.231894-23.231894h232.293985a23.231894 23.231894 0 0 1 23.231894 23.231894v46.463788a23.231894 23.231894 0 0 1-23.231894 23.231894z m46.451312-197.408714H673.663328a23.231894 23.231894 0 0 1-23.231894-23.231894v-46.513695a23.231894 23.231894 0 0 1 23.231894-23.231894h278.745297A23.231894 23.231894 0 0 1 975.690426 360.056926v46.463788a23.231894 23.231894 0 0 1-23.281801 23.281801z m46.476264-197.508529H673.663328a23.231894 23.231894 0 0 1-23.231894-23.231894v-46.451311a23.231894 23.231894 0 0 1 23.231894-23.231894h325.221561a23.219417 23.219417 0 0 1 23.219417 23.231894v46.463788a23.219417 23.219417 0 0 1-23.219417 23.231894z m0 0" /></svg>