<svg class="icon" style="width: 1em; height: 1em;vertical-align: middle;fill: currentColor;overflow: hidden;" viewBox="0 0 1024 1024" version="1.1" xmlns="http://www.w3.org/2000/svg"><path d="M981.333333 505.6c-2.133333 270.933333-206.933333 471.466667-462.933333 475.733333-258.133333 4.266667-471.466667-209.066667-475.733333-465.066666-4.266667-256 204.8-475.733333 469.333333-473.6 266.666667 2.133333 465.066667 209.066667 469.333333 462.933333z m-185.6-275.2l-4.266666-4.266667c-4.266667 2.133333-12.8 4.266667-17.066667 6.4-46.933333 32-93.866667 64-140.8 100.266667-14.933333 12.8-25.6 10.666667-40.533333 2.133333-59.733333-27.733333-121.6-25.6-177.066667 6.4-89.6 51.2-119.466667 155.733333-74.666667 247.466667 6.4 14.933333 4.266667 21.333333-2.133333 34.133333-29.866667 40.533333-57.6 78.933333-87.466667 119.466667-2.133333 4.266667-2.133333 12.8-2.133333 19.2 6.4 0 14.933333 0 19.2-2.133333 40.533333-27.733333 76.8-51.2 113.066667-81.066667 14.933333-12.8 27.733333-17.066667 46.933333-4.266667 12.8 6.4 27.733333 12.8 42.666667 14.933334 76.8 12.8 140.8-6.4 187.733333-68.266667 46.933333-59.733333 53.333333-125.866667 19.2-194.133333-4.266667-10.666667-4.266667-29.866667 0-36.266667 17.066667-27.733333 40.533333-51.2 59.733333-78.933333 23.466667-32 40.533333-55.466667 57.6-81.066667z" fill="#4185f4" /></svg>