<svg class="icon" style="width: 1em; height: 1em;vertical-align: middle;fill: currentColor;overflow: hidden;" viewBox="0 0 1024 1024" version="1.1" xmlns="http://www.w3.org/2000/svg"><path d="M512.939 170.257c-139.812 0-271.912-18.391-396.447-53.765 0 279.475 0 720.887 0 791.016 124.685-35.374 256.759-53.765 396.447-53.765 138.106 0 269.909 17.922 394.568 53.765 0-269.119 0-501.949 0-791.016-124.685 35.842-256.313 53.765-394.568 53.765zM732.001 237.764l-4.795 7.564c-4.475 7.094-8.503 13.126-14.065 21.629-7.417 11.123-21.333 33.223-38.018 61.65-4.647 7.885-10.357 17.304-16.216 27.513-11.272 19.009-23.953 40.465-33.989 57.472-4.178 7.267-8.331 14.683-12.656 22.099-11.123 19.306-22.568 39.254-33.518 58.411-11.272 19.924-22.395 39.551-33.519 59.004v19.627c0 27.191 0.618 56.855 1.557 83.279 0.47 12.063 0.939 33.518 1.557 56.236 0.618 27.043 1.236 55 2.002 69.214l0.148 4.326v0.47l-4.647-1.236c-1.853-0.47-3.56-0.939-5.413-1.385-5.562-1.236-11.594-2.151-17.452-2.793-3.56-0.297-7.268-0.47-10.975-0.47 0 0 0 0 0 0s0 0 0 0c-3.708 0-7.417 0.148-10.975 0.47-5.884 0.618-11.89 1.557-17.452 2.793-1.853 0.47-3.708 0.939-5.413 1.385l-4.647 1.236v-0.47l0.148-4.326c0.618-14.065 1.385-42.171 2.002-69.214 0.47-22.718 1.087-44.198 1.557-56.236 1.088-26.572 1.557-56.089 1.557-83.279v-19.627c-11.123-19.627-22.247-39.082-33.518-59.004-10.975-19.306-22.395-39.082-33.371-58.411-4.326-7.417-8.503-14.831-12.656-22.099-9.888-17.155-22.718-38.636-33.989-57.472-6.032-10.036-11.741-19.627-16.216-27.513-16.686-28.427-30.603-50.353-37.993-61.65-5.562-8.503-9.591-14.535-14.065-21.629l-4.795-7.564 8.652 2.472c10.975 3.090 22.248 4.647 34.285 4.647s23.632-1.557 34.459-4.647l2.62-0.766 1.385 2.324c21.333 38.463 78.632 132.717 112.942 189.102 11.741 19.454 21.159 34.755 25.807 42.641 0 0 0 0 0-0.148 0 0 0 0 0 0.148 4.647-7.737 14.065-23.186 25.807-42.641 34.285-56.236 91.61-150.49 112.943-189.102l1.385-2.324 2.62 0.766c10.827 3.090 22.395 4.647 34.459 4.647s23.335-1.557 34.285-4.647l8.182-2.472z" /></svg>